SplineFontDB: 3.2
FontName: TengwarGondolin
FullName: Tengwar Gondolin
FamilyName: Tengwar Gondolin
Weight: Book
Copyright: Shankar Sivarajan\nBased on glyphs from Libertinus Serif.
Version: 
ItalicAngle: 0
UnderlinePosition: -46
UnderlineWidth: 19
Ascent: 800
Descent: 200
InvalidEm: 0
sfntRevision: 0x00010000
LayerCount: 2
Layer: 0 1 "Back" 1
Layer: 1 1 "Fore" 0
XUID: [1021 146 -1796264217 17470]
StyleMap: 0x0040
FSType: 0
OS2Version: 4
OS2_WeightWidthSlopeOnly: 0
OS2_UseTypoMetrics: 0
CreationTime: 1107308838
ModificationTime: 1676496348
PfmFamily: 17
TTFWeight: 400
TTFWidth: 5
LineGap: 0
VLineGap: 0
Panose: 2 0 5 3 0 0 0 0 0 0
OS2TypoAscent: 800
OS2TypoAOffset: 0
OS2TypoDescent: -200
OS2TypoDOffset: 0
OS2TypoLinegap: 0
OS2WinAscent: 488
OS2WinAOffset: 0
OS2WinDescent: 572
OS2WinDOffset: 0
HheadAscent: 956
HheadAOffset: 0
HheadDescent: -572
HheadDOffset: 0
OS2SubXSize: 650
OS2SubYSize: 700
OS2SubXOff: 0
OS2SubYOff: 140
OS2SupXSize: 650
OS2SupYSize: 700
OS2SupXOff: 0
OS2SupYOff: 480
OS2StrikeYSize: 50
OS2StrikeYPos: 259
OS2Vendor: 'PfEd'
OS2CodePages: 00000001.c0d40000
OS2UnicodeRanges: 8000002f.00000008.00000000.00000000
Lookup: 4 0 1 "'liga' Standard Ligatures lookup 0" { "'liga' Standard Ligatures lookup 0 subtable"  } ['liga' ('DFLT' <'dflt' > ) ]
Lookup: 260 0 0 "'mark' Mark Positioning lookup 0" { "'mark' Mark Positioning lookup 0 subtable"  } ['mark' ('DFLT' <'dflt' > ) ]
Lookup: 262 0 0 "'mkmk' Mark to Mark lookup 1" { "'mkmk' Mark to Mark lookup 1 subtable"  } ['mkmk' ('DFLT' <'dflt' > ) ]
Lookup: 258 0 0 "'kern' Horizontal Kerning lookup 2" { "'kern' Horizontal Kerning lookup 2 subtable" [150,15,0] } ['kern' ('DFLT' <'dflt' > ) ]
MarkAttachClasses: 1
DEI: 91125
TtTable: prep
PUSHW_1
 511
SCANCTRL
PUSHB_1
 1
SCANTYPE
SVTCA[y-axis]
MPPEM
PUSHB_1
 8
LT
IF
PUSHB_2
 1
 1
INSTCTRL
EIF
PUSHB_2
 70
 6
CALL
IF
POP
PUSHB_1
 16
EIF
MPPEM
PUSHB_1
 20
GT
IF
POP
PUSHB_1
 128
EIF
SCVTCI
PUSHB_1
 6
CALL
NOT
IF
EIF
PUSHB_1
 20
CALL
EndTTInstrs
TtTable: fpgm
PUSHB_1
 0

StartChar: .notdef
Encoding: 65536 -1 0
Width: 365
GlyphClass: 1
Flags: W
LayerCount: 2
Fore
SplineSet
33 0 m 1,0,-1
 33 667 l 1,1,-1
 299 667 l 1,2,-1
 299 0 l 1,3,-1
 33 0 l 1,0,-1
66 33 m 1,4,-1
 266 33 l 1,5,-1
 266 633 l 1,6,-1
 66 633 l 1,7,-1
 66 33 l 1,4,-1
EndSplineSet
Validated: 1
EndChar

StartChar: colon
Encoding: 58 58 4
Width: 224
GlyphClass: 2
Flags: W
LayerCount: 2
Fore
SplineSet
51 619 m 128,-1,1
 51 641 51 641 66.5 656.5 c 128,-1,2
 82 672 82 672 104 672 c 128,-1,3
 126 672 126 672 141.5 656.5 c 128,-1,4
 157 641 157 641 157 619 c 128,-1,5
 157 597 157 597 141.5 581.5 c 128,-1,6
 126 566 126 566 104 566 c 128,-1,7
 82 566 82 566 66.5 581.5 c 128,-1,0
 51 597 51 597 51 619 c 128,-1,1
51 90 m 128,-1,9
 51 112 51 112 66.5 127.5 c 128,-1,10
 82 143 82 143 104 143 c 128,-1,11
 126 143 126 143 141.5 127.5 c 128,-1,12
 157 112 157 112 157 90 c 128,-1,13
 157 68 157 68 141.5 52.5 c 128,-1,14
 126 37 126 37 104 37 c 128,-1,15
 82 37 82 37 66.5 52.5 c 128,-1,8
 51 68 51 68 51 90 c 128,-1,9
EndSplineSet
Validated: 1
EndChar

StartChar: uni2058
Encoding: 8280 8280 6
Width: 538
GlyphClass: 2
Flags: W
LayerCount: 2
Fore
SplineSet
211 619 m 128,-1,1
 211 641 211 641 226.5 656.5 c 128,-1,2
 242 672 242 672 264 672 c 128,-1,3
 286 672 286 672 301.5 656.5 c 128,-1,4
 317 641 317 641 317 619 c 128,-1,5
 317 597 317 597 301.5 581.5 c 128,-1,6
 286 566 286 566 264 566 c 128,-1,7
 242 566 242 566 226.5 581.5 c 128,-1,0
 211 597 211 597 211 619 c 128,-1,1
211 90 m 128,-1,9
 211 112 211 112 226.5 127.5 c 128,-1,10
 242 143 242 143 264 143 c 128,-1,11
 286 143 286 143 301.5 127.5 c 128,-1,12
 317 112 317 112 317 90 c 128,-1,13
 317 68 317 68 301.5 52.5 c 128,-1,14
 286 37 286 37 264 37 c 128,-1,15
 242 37 242 37 226.5 52.5 c 128,-1,8
 211 68 211 68 211 90 c 128,-1,9
59 300 m 128,-1,17
 38 300 38 300 21.5 316.5 c 128,-1,18
 5 333 5 333 5 354 c 128,-1,19
 5 375 5 375 21.5 391.5 c 128,-1,20
 38 408 38 408 59 408 c 128,-1,21
 80 408 80 408 96.5 391.5 c 128,-1,22
 113 375 113 375 113 354 c 128,-1,23
 113 333 113 333 96.5 316.5 c 128,-1,16
 80 300 80 300 59 300 c 128,-1,17
467 300 m 128,-1,25
 446 300 446 300 429.5 316.5 c 128,-1,26
 413 333 413 333 413 354 c 128,-1,27
 413 375 413 375 429.5 391.5 c 128,-1,28
 446 408 446 408 467 408 c 128,-1,29
 488 408 488 408 504.5 391.5 c 128,-1,30
 521 375 521 375 521 354 c 128,-1,31
 521 333 521 333 504.5 316.5 c 128,-1,24
 488 300 488 300 467 300 c 128,-1,25
EndSplineSet
Validated: 1
EndChar

StartChar: uni205D
Encoding: 8285 8285 7
Width: 224
GlyphClass: 2
Flags: W
LayerCount: 2
Fore
SplineSet
51 619 m 128,-1,1
 51 641 51 641 66.5 656.5 c 128,-1,2
 82 672 82 672 104 672 c 128,-1,3
 126 672 126 672 141.5 656.5 c 128,-1,4
 157 641 157 641 157 619 c 128,-1,5
 157 597 157 597 141.5 581.5 c 128,-1,6
 126 566 126 566 104 566 c 128,-1,7
 82 566 82 566 66.5 581.5 c 128,-1,0
 51 597 51 597 51 619 c 128,-1,1
51 90 m 128,-1,9
 51 112 51 112 66.5 127.5 c 128,-1,10
 82 143 82 143 104 143 c 128,-1,11
 126 143 126 143 141.5 127.5 c 128,-1,12
 157 112 157 112 157 90 c 128,-1,13
 157 68 157 68 141.5 52.5 c 128,-1,14
 126 37 126 37 104 37 c 128,-1,15
 82 37 82 37 66.5 52.5 c 128,-1,8
 51 68 51 68 51 90 c 128,-1,9
51 354 m 128,-1,17
 51 376 51 376 66.5 391.5 c 128,-1,18
 82 407 82 407 104 407 c 128,-1,19
 126 407 126 407 141.5 391.5 c 128,-1,20
 157 376 157 376 157 354 c 128,-1,21
 157 332 157 332 141.5 316.5 c 128,-1,22
 126 301 126 301 104 301 c 128,-1,23
 82 301 82 301 66.5 316.5 c 128,-1,16
 51 332 51 332 51 354 c 128,-1,17
EndSplineSet
Validated: 1
EndChar

StartChar: uni2E2D
Encoding: 11821 11821 8
Width: 538
GlyphClass: 2
Flags: W
LayerCount: 2
Fore
SplineSet
211 619 m 128,-1,1
 211 641 211 641 226.5 656.5 c 128,-1,2
 242 672 242 672 264 672 c 128,-1,3
 286 672 286 672 301.5 656.5 c 128,-1,4
 317 641 317 641 317 619 c 128,-1,5
 317 597 317 597 301.5 581.5 c 128,-1,6
 286 566 286 566 264 566 c 128,-1,7
 242 566 242 566 226.5 581.5 c 128,-1,0
 211 597 211 597 211 619 c 128,-1,1
211 90 m 128,-1,9
 211 112 211 112 226.5 127.5 c 128,-1,10
 242 143 242 143 264 143 c 128,-1,11
 286 143 286 143 301.5 127.5 c 128,-1,12
 317 112 317 112 317 90 c 128,-1,13
 317 68 317 68 301.5 52.5 c 128,-1,14
 286 37 286 37 264 37 c 128,-1,15
 242 37 242 37 226.5 52.5 c 128,-1,8
 211 68 211 68 211 90 c 128,-1,9
211 354 m 128,-1,17
 211 376 211 376 226.5 391.5 c 128,-1,18
 242 407 242 407 264 407 c 128,-1,19
 286 407 286 407 301.5 391.5 c 128,-1,20
 317 376 317 376 317 354 c 128,-1,21
 317 332 317 332 301.5 316.5 c 128,-1,22
 286 301 286 301 264 301 c 128,-1,23
 242 301 242 301 226.5 316.5 c 128,-1,16
 211 332 211 332 211 354 c 128,-1,17
59 300 m 128,-1,25
 38 300 38 300 21.5 316.5 c 128,-1,26
 5 333 5 333 5 354 c 128,-1,27
 5 375 5 375 21.5 391.5 c 128,-1,28
 38 408 38 408 59 408 c 128,-1,29
 80 408 80 408 96.5 391.5 c 128,-1,30
 113 375 113 375 113 354 c 128,-1,31
 113 333 113 333 96.5 316.5 c 128,-1,24
 80 300 80 300 59 300 c 128,-1,25
467 300 m 128,-1,33
 446 300 446 300 429.5 316.5 c 128,-1,34
 413 333 413 333 413 354 c 128,-1,35
 413 375 413 375 429.5 391.5 c 128,-1,36
 446 408 446 408 467 408 c 128,-1,37
 488 408 488 408 504.5 391.5 c 128,-1,38
 521 375 521 375 521 354 c 128,-1,39
 521 333 521 333 504.5 316.5 c 128,-1,32
 488 300 488 300 467 300 c 128,-1,33
EndSplineSet
Validated: 1
EndChar

StartChar: uni2E31
Encoding: 11825 11825 9
Width: 538
GlyphClass: 2
Flags: W
LayerCount: 2
Fore
SplineSet
211 354 m 128,-1,1
 211 376 211 376 226.5 391.5 c 128,-1,2
 242 407 242 407 264 407 c 128,-1,3
 286 407 286 407 301.5 391.5 c 128,-1,4
 317 376 317 376 317 354 c 128,-1,5
 317 332 317 332 301.5 316.5 c 128,-1,6
 286 301 286 301 264 301 c 128,-1,7
 242 301 242 301 226.5 316.5 c 128,-1,0
 211 332 211 332 211 354 c 128,-1,1
EndSplineSet
Validated: 1
EndChar

StartChar: tinco
Encoding: 57344 57344 10
Width: 508
GlyphClass: 2
Flags: W
AnchorPoint: "Anchor-1" 250 750 basechar 0
AnchorPoint: "Anchor-0" 150 -100 basechar 0
LayerCount: 2
Fore
SplineSet
147 645 m 1,0,-1
 352 645 l 2,1,2
 433 646 433 646 472 647 c 1,3,4
 482 589 482 589 487 490 c 1,5,6
 473 484 473 484 458 486 c 1,7,8
 448 519 448 519 441.5 535 c 128,-1,9
 435 551 435 551 422.5 570.5 c 128,-1,10
 410 590 410 590 391.5 597.5 c 128,-1,11
 373 605 373 605 346 605 c 2,12,-1
 226 605 l 2,13,14
 190 605 190 605 190 571 c 2,15,-1
 190 122 l 2,16,17
 190 62 190 62 205.5 47.5 c 128,-1,18
 221 33 221 33 277 31 c 1,19,20
 282 26 282 26 282 14 c 128,-1,21
 282 2 282 2 277 -2 c 1,22,23
 197 0 197 0 148 0 c 0,24,25
 96 0 96 0 18 -2 c 1,26,27
 14 2 14 2 14 14 c 128,-1,28
 14 26 14 26 18 31 c 1,29,30
 74 33 74 33 89.5 47.5 c 128,-1,31
 105 62 105 62 105 122 c 2,32,-1
 105 523 l 2,33,34
 105 583 105 583 89.5 597.5 c 128,-1,35
 74 612 74 612 18 614 c 0,36,37
 14 618 14 618 14 630 c 128,-1,38
 14 642 14 642 18 647 c 1,39,-1
 147 645 l 1,0,-1
EndSplineSet
Validated: 1
EndChar

StartChar: parma
Encoding: 57345 57345 11
Width: 536
GlyphClass: 2
Flags: W
AnchorPoint: "Anchor-1" 250 750 basechar 0
AnchorPoint: "Anchor-0" 250 -100 basechar 0
LayerCount: 2
Fore
SplineSet
104 523 m 2,0,1
 104 583 104 583 88.5 597.5 c 128,-1,2
 73 612 73 612 17 614 c 0,3,4
 12 618 12 618 12 630 c 128,-1,5
 12 642 12 642 17 647 c 1,6,7
 97 645 97 645 146 645 c 0,8,9
 166 645 166 645 215 648.5 c 128,-1,10
 264 652 264 652 283 652 c 0,11,12
 348 652 348 652 395 635 c 128,-1,13
 442 618 442 618 465 590.5 c 128,-1,14
 488 563 488 563 497.5 537.5 c 128,-1,15
 507 512 507 512 507 486 c 0,16,17
 507 451 507 451 495 417.5 c 128,-1,18
 483 384 483 384 457.5 352.5 c 128,-1,19
 432 321 432 321 383.5 301.5 c 128,-1,20
 335 282 335 282 270 282 c 0,21,22
 220 282 220 282 189 292 c 1,23,-1
 189 122 l 2,24,25
 189 63 189 63 208 48.5 c 128,-1,26
 227 34 227 34 291 31 c 1,27,28
 296 26 296 26 296 14 c 128,-1,29
 296 2 296 2 291 -2 c 1,30,31
 191 0 191 0 147 0 c 0,32,33
 107 0 107 0 17 -2 c 1,34,35
 12 2 12 2 12 14 c 128,-1,36
 12 26 12 26 17 31 c 1,37,38
 73 33 73 33 88.5 47.5 c 128,-1,39
 104 62 104 62 104 122 c 2,40,-1
 104 523 l 2,0,1
189 554 m 2,41,-1
 189 321 l 1,42,43
 207 316 207 316 265 316 c 0,44,45
 339 316 339 316 376.5 352.5 c 128,-1,46
 414 389 414 389 414 468 c 0,47,48
 414 555 414 555 376 586.5 c 128,-1,49
 338 618 338 618 276 618 c 0,50,51
 189 618 189 618 189 554 c 2,41,-1
EndSplineSet
Validated: 1
EndChar

StartChar: calma
Encoding: 57346 57346 12
Width: 524
GlyphClass: 2
Flags: W
AnchorPoint: "Anchor-1" 250 750 basechar 0
AnchorPoint: "Anchor-0" 350 -100 basechar 0
LayerCount: 2
Fore
SplineSet
354 645 m 2,0,1
 433 646 433 646 482 647 c 1,2,3
 487 642 487 642 487 630 c 128,-1,4
 487 618 487 618 482 614 c 0,5,6
 453 613 453 613 439 610.5 c 128,-1,7
 425 608 425 608 413.5 598.5 c 128,-1,8
 402 589 402 589 399 572 c 128,-1,9
 396 555 396 555 396 523 c 2,10,-1
 396 122 l 2,11,12
 396 90 396 90 399 73 c 128,-1,13
 402 56 402 56 413.5 46.5 c 128,-1,14
 425 37 425 37 439 34.5 c 128,-1,15
 453 32 453 32 482 31 c 1,16,17
 487 26 487 26 487 14 c 128,-1,18
 487 2 487 2 482 -2 c 1,19,20
 404 0 404 0 352 0 c 0,21,22
 304 0 304 0 224 -2 c 1,23,24
 219 2 219 2 219 14 c 128,-1,25
 219 26 219 26 224 31 c 1,26,27
 253 32 253 32 267 34.5 c 128,-1,28
 281 37 281 37 292.5 46.5 c 128,-1,29
 304 56 304 56 307 73 c 128,-1,30
 310 90 310 90 310 122 c 2,31,-1
 310 571 l 2,32,33
 310 605 310 605 274 605 c 2,34,-1
 154 605 l 2,35,36
 133 605 133 605 116 598.5 c 128,-1,37
 99 592 99 592 89 583.5 c 128,-1,38
 79 575 79 575 69.5 557 c 128,-1,39
 60 539 60 539 55 525.5 c 128,-1,40
 50 512 50 512 42 486 c 1,41,42
 27 484 27 484 14 490 c 1,43,44
 18 589 18 589 28 647 c 1,45,-1
 148 645 l 1,46,-1
 354 645 l 2,0,1
EndSplineSet
Validated: 1
EndChar

StartChar: quesse
Encoding: 57347 57347 13
Width: 540
GlyphClass: 2
Flags: W
AnchorPoint: "Anchor-1" 250 750 basechar 0
AnchorPoint: "Anchor-0" 250 -100 basechar 0
LayerCount: 2
Fore
SplineSet
416 523 m 2,0,-1
 416 122 l 2,1,2
 416 90 416 90 419 73 c 128,-1,3
 422 56 422 56 433.5 46.5 c 128,-1,4
 445 37 445 37 459 34.5 c 128,-1,5
 473 32 473 32 502 31 c 1,6,7
 507 26 507 26 507 14 c 128,-1,8
 507 2 507 2 502 -2 c 1,9,10
 412 0 412 0 372 0 c 0,11,12
 328 0 328 0 228 -2 c 1,13,14
 224 2 224 2 224 14 c 128,-1,15
 224 26 224 26 228 31 c 1,16,17
 263 33 263 33 278.5 35.5 c 128,-1,18
 294 38 294 38 308 47 c 128,-1,19
 322 56 322 56 326 73.5 c 128,-1,20
 330 91 330 91 330 122 c 2,21,-1
 330 292 l 1,22,23
 299 282 299 282 250 282 c 0,24,25
 197 282 197 282 155 295 c 128,-1,26
 113 308 113 308 87 329 c 128,-1,27
 61 350 61 350 43.5 377.5 c 128,-1,28
 26 405 26 405 19 432 c 128,-1,29
 12 459 12 459 12 486 c 0,30,31
 12 506 12 506 17.5 526 c 128,-1,32
 23 546 23 546 38.5 569.5 c 128,-1,33
 54 593 54 593 77.5 610.5 c 128,-1,34
 101 628 101 628 142.5 640 c 128,-1,35
 184 652 184 652 236 652 c 0,36,37
 255 652 255 652 304 648.5 c 128,-1,38
 353 645 353 645 374 645 c 0,39,40
 422 645 422 645 502 647 c 1,41,42
 507 642 507 642 507 630 c 128,-1,43
 507 618 507 618 502 614 c 0,44,45
 473 613 473 613 459 610.5 c 128,-1,46
 445 608 445 608 433.5 598.5 c 128,-1,47
 422 589 422 589 419 572 c 128,-1,48
 416 555 416 555 416 523 c 2,0,-1
330 554 m 2,49,50
 330 618 330 618 244 618 c 0,51,52
 215 618 215 618 192.5 612 c 128,-1,53
 170 606 170 606 149 591 c 128,-1,54
 128 576 128 576 117 545 c 128,-1,55
 106 514 106 514 106 468 c 0,56,57
 106 389 106 389 143 352.5 c 128,-1,58
 180 316 180 316 254 316 c 0,59,60
 312 316 312 316 330 321 c 1,61,-1
 330 554 l 2,49,50
EndSplineSet
Validated: 1
EndChar

StartChar: ando
Encoding: 57348 57348 14
Width: 629
GlyphClass: 2
Flags: W
AnchorPoint: "Anchor-1" 290 750 basechar 0
AnchorPoint: "Anchor-0" 290 -100 basechar 0
LayerCount: 2
Fore
SplineSet
136 645 m 1,0,-1
 341 645 l 2,1,2
 422 646 422 646 461 647 c 1,3,4
 471 589 471 589 476 490 c 1,5,6
 462 484 462 484 447 486 c 1,7,8
 439 512 439 512 434.5 525.5 c 128,-1,9
 430 539 430 539 420.5 557 c 128,-1,10
 411 575 411 575 401 583.5 c 128,-1,11
 391 592 391 592 374 598.5 c 128,-1,12
 357 605 357 605 335 605 c 2,13,-1
 215 605 l 2,14,15
 179 605 179 605 179 571 c 2,16,-1
 179 122 l 2,17,18
 179 90 179 90 182 73 c 128,-1,19
 185 56 185 56 197 46.5 c 128,-1,20
 209 37 209 37 222.5 34.5 c 128,-1,21
 236 32 236 32 266 31 c 1,22,23
 271 26 271 26 271 14 c 128,-1,24
 271 2 271 2 266 -2 c 1,25,26
 186 0 186 0 137 0 c 0,27,28
 85 0 85 0 7 -2 c 1,29,30
 3 2 3 2 3 14 c 128,-1,31
 3 26 3 26 7 31 c 1,32,33
 37 32 37 32 51 34.5 c 128,-1,34
 65 37 65 37 76.5 46.5 c 128,-1,35
 88 56 88 56 91 73 c 128,-1,36
 94 90 94 90 94 122 c 2,37,-1
 94 523 l 2,38,39
 94 555 94 555 91 572 c 128,-1,40
 88 589 88 589 76.5 598.5 c 128,-1,41
 65 608 65 608 51 610.5 c 128,-1,42
 37 613 37 613 7 614 c 0,43,44
 3 618 3 618 3 630 c 128,-1,45
 3 642 3 642 7 647 c 1,46,-1
 136 645 l 1,0,-1
176 384 m 2,47,48
 176 387 176 387 200 382.5 c 128,-1,49
 224 378 224 378 256 363.5 c 128,-1,50
 288 349 288 349 306 330 c 0,51,52
 339 292 339 292 394 227 c 128,-1,53
 449 162 449 162 487 116 c 2,54,-1
 524 70 l 2,55,56
 539 53 539 53 555.5 43.5 c 128,-1,57
 572 34 572 34 582.5 32 c 128,-1,58
 593 30 593 30 612 28 c 1,59,60
 617 23 617 23 617 11 c 128,-1,61
 617 -1 617 -1 612 -5 c 1,62,63
 546 -3 546 -3 512 -3 c 0,64,65
 498 -3 498 -3 458 -5 c 0,66,67
 452 -5 452 -5 452 1 c 0,68,69
 449 27 449 27 416 70 c 2,70,-1
 260 268 l 2,71,72
 232 304 232 304 176 306 c 1,73,-1
 176 384 l 2,47,48
EndSplineSet
Validated: 5
EndChar

StartChar: umbar
Encoding: 57349 57349 15
Width: 602
GlyphClass: 2
Flags: W
AnchorPoint: "Anchor-1" 290 750 basechar 0
AnchorPoint: "Anchor-0" 290 -100 basechar 0
LayerCount: 2
Fore
SplineSet
189 122 m 2,0,1
 189 62 189 62 204.5 47.5 c 128,-1,2
 220 33 220 33 276 31 c 1,3,4
 280 26 280 26 280 14 c 128,-1,5
 280 2 280 2 276 -2 c 1,6,7
 188 0 188 0 147 0 c 0,8,9
 107 0 107 0 17 -2 c 1,10,11
 12 2 12 2 12 14 c 128,-1,12
 12 26 12 26 17 31 c 1,13,14
 73 33 73 33 88.5 47.5 c 128,-1,15
 104 62 104 62 104 122 c 2,16,-1
 104 523 l 2,17,18
 104 583 104 583 88.5 597.5 c 128,-1,19
 73 612 73 612 17 614 c 0,20,21
 12 618 12 618 12 630 c 128,-1,22
 12 642 12 642 17 647 c 1,23,24
 111 645 111 645 146 645 c 0,25,26
 163 645 163 645 204.5 648.5 c 128,-1,27
 246 652 246 652 271 652 c 0,28,29
 330 652 330 652 371 643 c 128,-1,30
 412 634 412 634 444 604 c 0,31,32
 497 554 497 554 497 479 c 0,33,34
 497 410 497 410 453.5 366.5 c 128,-1,35
 410 323 410 323 364 308 c 1,36,-1
 490 98 l 2,37,38
 513 60 513 60 534 40.5 c 128,-1,39
 555 21 555 21 586 21 c 1,40,41
 593 7 593 7 587 -3 c 1,42,43
 573 -10 573 -10 545 -10 c 0,44,45
 468 -10 468 -10 413 79 c 2,46,-1
 306 253 l 2,47,48
 294 273 294 273 270.5 282 c 128,-1,49
 247 291 247 291 189 291 c 1,50,-1
 189 122 l 2,0,1
272 618 m 0,51,52
 189 618 189 618 189 554 c 2,53,-1
 189 325 l 1,54,-1
 237 325 l 2,55,56
 318 325 318 325 361.5 358 c 128,-1,57
 405 391 405 391 405 478 c 0,58,59
 405 618 405 618 272 618 c 0,51,52
EndSplineSet
Validated: 1
EndChar

StartChar: anga
Encoding: 57350 57350 16
Width: 636
GlyphClass: 2
Flags: W
AnchorPoint: "Anchor-1" 354 750 basechar 0
AnchorPoint: "Anchor-0" 274 -100 basechar 0
LayerCount: 2
Fore
SplineSet
478 645 m 2,0,1
 557 646 557 646 606 647 c 1,2,3
 611 642 611 642 611 630 c 128,-1,4
 611 618 611 618 606 614 c 0,5,6
 577 613 577 613 563 610.5 c 128,-1,7
 549 608 549 608 537.5 598.5 c 128,-1,8
 526 589 526 589 523 572 c 128,-1,9
 520 555 520 555 520 523 c 2,10,-1
 520 122 l 2,11,12
 520 90 520 90 523 73 c 128,-1,13
 526 56 526 56 537.5 46.5 c 128,-1,14
 549 37 549 37 563 34.5 c 128,-1,15
 577 32 577 32 606 31 c 1,16,17
 611 26 611 26 611 14 c 128,-1,18
 611 2 611 2 606 -2 c 1,19,20
 528 0 528 0 476 0 c 0,21,22
 428 0 428 0 348 -2 c 1,23,24
 343 2 343 2 343 14 c 128,-1,25
 343 26 343 26 348 31 c 1,26,27
 377 32 377 32 391 34.5 c 128,-1,28
 405 37 405 37 416.5 46.5 c 128,-1,29
 428 56 428 56 431 73 c 128,-1,30
 434 90 434 90 434 122 c 2,31,-1
 434 571 l 2,32,33
 434 605 434 605 398 605 c 2,34,-1
 278 605 l 2,35,36
 257 605 257 605 240 598.5 c 128,-1,37
 223 592 223 592 213 583.5 c 128,-1,38
 203 575 203 575 193.5 557 c 128,-1,39
 184 539 184 539 179 525.5 c 128,-1,40
 174 512 174 512 166 486 c 1,41,42
 151 484 151 484 138 490 c 1,43,44
 142 589 142 589 152 647 c 1,45,-1
 272 645 l 1,46,-1
 478 645 l 2,0,1
437 384 m 2,47,-1
 437 306 l 1,48,49
 382 304 382 304 354 268 c 2,50,-1
 197 70 l 2,51,52
 165 27 165 27 161 1 c 0,53,54
 161 -5 161 -5 156 -5 c 0,55,56
 116 -3 116 -3 102 -3 c 0,57,58
 67 -3 67 -3 1 -5 c 1,59,60
 -3 -1 -3 -1 -3 11 c 128,-1,61
 -3 23 -3 23 1 28 c 1,62,63
 20 30 20 30 31 32 c 128,-1,64
 42 34 42 34 58.5 43.5 c 128,-1,65
 75 53 75 53 89 70 c 0,66,67
 233 245 233 245 308 330 c 0,68,69
 326 349 326 349 358 363.5 c 128,-1,70
 390 378 390 378 413.5 382.5 c 128,-1,71
 437 387 437 387 437 384 c 2,47,-1
EndSplineSet
Validated: 5
EndChar

StartChar: ungwe
Encoding: 57351 57351 17
Width: 628
GlyphClass: 2
Flags: W
AnchorPoint: "Anchor-1" 330 750 basechar 0
AnchorPoint: "Anchor-0" 270 -100 basechar 0
LayerCount: 2
Fore
SplineSet
413 122 m 2,0,-1
 413 291 l 1,1,2
 355 291 355 291 331.5 282 c 128,-1,3
 308 273 308 273 296 253 c 2,4,-1
 189 79 l 2,5,6
 134 -10 134 -10 57 -10 c 0,7,8
 29 -10 29 -10 15 -3 c 1,9,10
 9 7 9 7 16 21 c 1,11,12
 47 21 47 21 68 40.5 c 128,-1,13
 89 60 89 60 112 98 c 2,14,-1
 238 308 l 1,15,16
 219 314 219 314 198.5 326.5 c 128,-1,17
 178 339 178 339 156 359 c 128,-1,18
 134 379 134 379 119.5 410.5 c 128,-1,19
 105 442 105 442 105 479 c 0,20,21
 105 554 105 554 158 604 c 0,22,23
 190 634 190 634 231 643 c 128,-1,24
 272 652 272 652 331 652 c 0,25,26
 356 652 356 652 397.5 648.5 c 128,-1,27
 439 645 439 645 456 645 c 0,28,29
 491 645 491 645 585 647 c 1,30,31
 590 642 590 642 590 630 c 128,-1,32
 590 618 590 618 585 614 c 0,33,34
 555 613 555 613 541 610.5 c 128,-1,35
 527 608 527 608 515.5 598.5 c 128,-1,36
 504 589 504 589 501 572 c 128,-1,37
 498 555 498 555 498 523 c 2,38,-1
 498 122 l 2,39,40
 498 90 498 90 501 73 c 128,-1,41
 504 56 504 56 515.5 46.5 c 128,-1,42
 527 37 527 37 541 34.5 c 128,-1,43
 555 32 555 32 585 31 c 1,44,45
 590 26 590 26 590 14 c 128,-1,46
 590 2 590 2 585 -2 c 1,47,48
 495 0 495 0 455 0 c 0,49,50
 414 0 414 0 326 -2 c 1,51,52
 322 2 322 2 322 14 c 128,-1,53
 322 26 322 26 326 31 c 1,54,55
 356 32 356 32 370 34.5 c 128,-1,56
 384 37 384 37 395.5 46.5 c 128,-1,57
 407 56 407 56 410 73 c 128,-1,58
 413 90 413 90 413 122 c 2,0,-1
330 618 m 0,59,60
 197 618 197 618 197 478 c 0,61,62
 197 391 197 391 240.5 358 c 128,-1,63
 284 325 284 325 365 325 c 2,64,-1
 413 325 l 1,65,-1
 413 554 l 2,66,67
 413 618 413 618 330 618 c 0,59,60
EndSplineSet
Validated: 1
EndChar

StartChar: thuule
Encoding: 57352 57352 18
Width: 540
GlyphClass: 2
Flags: W
AnchorPoint: "Anchor-1" 150 750 basechar 0
AnchorPoint: "Anchor-0" 270 -100 basechar 0
LayerCount: 2
Fore
SplineSet
149 0 m 2,0,1
 97 0 97 0 19 -2 c 1,2,3
 14 2 14 2 14 14 c 128,-1,4
 14 26 14 26 19 31 c 1,5,6
 75 33 75 33 90.5 47.5 c 128,-1,7
 106 62 106 62 106 122 c 2,8,-1
 106 523 l 2,9,10
 106 583 106 583 90.5 597.5 c 128,-1,11
 75 612 75 612 19 614 c 0,12,13
 14 618 14 618 14 630 c 128,-1,14
 14 642 14 642 19 647 c 1,15,16
 111 645 111 645 148 645 c 0,17,18
 188 645 188 645 278 647 c 1,19,20
 282 642 282 642 282 630 c 128,-1,21
 282 618 282 618 278 614 c 0,22,23
 222 612 222 612 206.5 597.5 c 128,-1,24
 191 583 191 583 191 523 c 2,25,-1
 191 109 l 2,26,27
 191 71 191 71 204.5 55 c 128,-1,28
 218 39 218 39 248 39 c 2,29,-1
 311 39 l 2,30,31
 384 39 384 39 420.5 73.5 c 128,-1,32
 457 108 457 108 474 170 c 1,33,34
 491 173 491 173 507 165 c 1,35,36
 497 78 497 78 481 -2 c 1,37,38
 389 0 389 0 362 0 c 2,39,-1
 149 0 l 2,0,1
EndSplineSet
Validated: 33
EndChar

StartChar: formen
Encoding: 57353 57353 19
Width: 548
GlyphClass: 2
Flags: W
AnchorPoint: "Anchor-1" 270 750 basechar 0
AnchorPoint: "Anchor-0" 270 -100 basechar 0
LayerCount: 2
Fore
SplineSet
105 122 m 2,0,-1
 105 523 l 2,1,2
 105 583 105 583 89.5 597.5 c 128,-1,3
 74 612 74 612 18 614 c 0,4,5
 14 618 14 618 14 630 c 128,-1,6
 14 642 14 642 18 647 c 1,7,8
 98 645 98 645 147 645 c 0,9,10
 199 645 199 645 277 647 c 1,11,12
 282 642 282 642 282 630 c 128,-1,13
 282 618 282 618 277 614 c 0,14,15
 221 612 221 612 205.5 597.5 c 128,-1,16
 190 583 190 583 190 523 c 2,17,-1
 190 383 l 1,18,19
 230 387 230 387 272 387 c 0,20,21
 406 387 406 387 464.5 339 c 128,-1,22
 523 291 523 291 523 193 c 0,23,24
 523 98 523 98 458 48 c 128,-1,25
 393 -2 393 -2 265 -2 c 0,26,27
 246 -2 246 -2 204 -1 c 128,-1,28
 162 0 162 0 148 0 c 0,29,30
 96 0 96 0 18 -2 c 1,31,32
 14 2 14 2 14 14 c 128,-1,33
 14 26 14 26 18 31 c 1,34,35
 74 33 74 33 89.5 47.5 c 128,-1,36
 105 62 105 62 105 122 c 2,0,-1
267 31 m 0,37,38
 430 31 430 31 430 193 c 0,39,40
 430 272 430 272 387.5 309 c 128,-1,41
 345 346 345 346 250 346 c 0,42,43
 223 346 223 346 190 343 c 1,44,-1
 190 98 l 2,45,46
 190 67 190 67 205.5 49 c 128,-1,47
 221 31 221 31 267 31 c 0,37,38
EndSplineSet
Validated: 1
EndChar

StartChar: harma
Encoding: 57354 57354 20
Width: 540
GlyphClass: 2
Flags: W
AnchorPoint: "Anchor-1" 380 750 basechar 0
AnchorPoint: "Anchor-0" 250 -100 basechar 0
LayerCount: 2
Fore
SplineSet
372 0 m 2,0,-1
 160 0 l 2,1,2
 148 0 148 0 118 -0.5 c 128,-1,3
 88 -1 88 -1 64 -2 c 2,4,-1
 40 -2 l 1,5,6
 25 78 25 78 14 165 c 1,7,8
 30 173 30 173 48 170 c 1,9,10
 65 108 65 108 101 73.5 c 128,-1,11
 137 39 137 39 210 39 c 2,12,-1
 274 39 l 2,13,14
 303 39 303 39 316.5 55 c 128,-1,15
 330 71 330 71 330 109 c 2,16,-1
 330 523 l 2,17,18
 330 555 330 555 327 572 c 128,-1,19
 324 589 324 589 312.5 598.5 c 128,-1,20
 301 608 301 608 287 610.5 c 128,-1,21
 273 613 273 613 244 614 c 0,22,23
 239 618 239 618 239 630 c 128,-1,24
 239 642 239 642 244 647 c 1,25,26
 334 645 334 645 374 645 c 0,27,28
 410 645 410 645 502 647 c 1,29,30
 507 642 507 642 507 630 c 128,-1,31
 507 618 507 618 502 614 c 0,32,33
 473 613 473 613 459 610.5 c 128,-1,34
 445 608 445 608 433.5 598.5 c 128,-1,35
 422 589 422 589 419 572 c 128,-1,36
 416 555 416 555 416 523 c 2,37,-1
 416 122 l 2,38,39
 416 90 416 90 419 73 c 128,-1,40
 422 56 422 56 433.5 46.5 c 128,-1,41
 445 37 445 37 459 34.5 c 128,-1,42
 473 32 473 32 502 31 c 1,43,44
 507 26 507 26 507 14 c 128,-1,45
 507 2 507 2 502 -2 c 1,46,47
 424 0 424 0 372 0 c 2,0,-1
EndSplineSet
Validated: 33
EndChar

StartChar: hwesta
Encoding: 57355 57355 21
Width: 558
GlyphClass: 2
Flags: W
AnchorPoint: "Anchor-1" 270 750 basechar 0
AnchorPoint: "Anchor-0" 270 -100 basechar 0
LayerCount: 2
Fore
SplineSet
432 122 m 2,0,1
 432 90 432 90 435 73 c 128,-1,2
 438 56 438 56 449.5 46.5 c 128,-1,3
 461 37 461 37 475 34.5 c 128,-1,4
 489 32 489 32 518 31 c 1,5,6
 523 26 523 26 523 14 c 128,-1,7
 523 2 523 2 518 -2 c 1,8,9
 440 0 440 0 388 0 c 0,10,11
 375 0 375 0 332.5 -1 c 128,-1,12
 290 -2 290 -2 272 -2 c 0,13,14
 144 -2 144 -2 79 48 c 128,-1,15
 14 98 14 98 14 193 c 0,16,17
 14 291 14 291 72 339 c 128,-1,18
 130 387 130 387 264 387 c 0,19,20
 306 387 306 387 346 383 c 1,21,-1
 346 523 l 2,22,23
 346 555 346 555 343 572 c 128,-1,24
 340 589 340 589 328.5 598.5 c 128,-1,25
 317 608 317 608 303 610.5 c 128,-1,26
 289 613 289 613 260 614 c 0,27,28
 255 618 255 618 255 630 c 128,-1,29
 255 642 255 642 260 647 c 1,30,31
 338 645 338 645 390 645 c 0,32,33
 438 645 438 645 518 647 c 1,34,35
 523 642 523 642 523 630 c 128,-1,36
 523 618 523 618 518 614 c 0,37,38
 489 613 489 613 475 610.5 c 128,-1,39
 461 608 461 608 449.5 598.5 c 128,-1,40
 438 589 438 589 435 572 c 128,-1,41
 432 555 432 555 432 523 c 2,42,-1
 432 122 l 2,0,1
270 31 m 0,43,44
 316 31 316 31 331 49 c 128,-1,45
 346 67 346 67 346 98 c 2,46,-1
 346 343 l 1,47,48
 314 346 314 346 286 346 c 0,49,50
 191 346 191 346 148.5 309 c 128,-1,51
 106 272 106 272 106 193 c 0,52,53
 106 31 106 31 270 31 c 0,43,44
EndSplineSet
Validated: 1
EndChar

StartChar: anto
Encoding: 57356 57356 22
Width: 610
GlyphClass: 2
Flags: W
AnchorPoint: "Anchor-1" 320 750 basechar 0
AnchorPoint: "Anchor-0" 320 -100 basechar 0
LayerCount: 2
Fore
SplineSet
137 0 m 2,0,1
 85 0 85 0 7 -2 c 1,2,3
 2 2 2 2 2 14 c 128,-1,4
 2 26 2 26 7 31 c 1,5,6
 37 32 37 32 50.5 34.5 c 128,-1,7
 64 37 64 37 75.5 46.5 c 128,-1,8
 87 56 87 56 90.5 73 c 128,-1,9
 94 90 94 90 94 122 c 2,10,-1
 94 523 l 2,11,12
 94 555 94 555 90.5 572 c 128,-1,13
 87 589 87 589 75.5 598.5 c 128,-1,14
 64 608 64 608 50.5 610.5 c 128,-1,15
 37 613 37 613 7 614 c 0,16,17
 2 618 2 618 2 630 c 128,-1,18
 2 642 2 642 7 647 c 1,19,20
 99 645 99 645 136 645 c 0,21,22
 176 645 176 645 266 647 c 1,23,24
 270 642 270 642 270 630 c 128,-1,25
 270 618 270 618 266 614 c 0,26,27
 236 613 236 613 222 610.5 c 128,-1,28
 208 608 208 608 196.5 598.5 c 128,-1,29
 185 589 185 589 182 572 c 128,-1,30
 179 555 179 555 179 523 c 2,31,-1
 179 109 l 2,32,33
 179 71 179 71 192.5 55 c 128,-1,34
 206 39 206 39 236 39 c 2,35,-1
 299 39 l 2,36,37
 372 39 372 39 408 73.5 c 128,-1,38
 444 108 444 108 462 170 c 1,39,40
 479 173 479 173 495 165 c 1,41,42
 485 78 485 78 469 -2 c 1,43,44
 377 0 377 0 350 0 c 2,45,-1
 137 0 l 2,0,1
158 350 m 1,46,47
 215 371 215 371 238 389 c 1,48,-1
 402 565 l 2,49,50
 418 581 418 581 421.5 591.5 c 128,-1,51
 425 602 425 602 417 607 c 128,-1,52
 409 612 409 612 400.5 614 c 128,-1,53
 392 616 392 616 374 617 c 1,54,55
 370 622 370 622 370 634 c 128,-1,56
 370 646 370 646 374 650 c 1,57,58
 448 648 448 648 488 648 c 0,59,60
 520 648 520 648 582 650 c 1,61,62
 587 646 587 646 587 634 c 128,-1,63
 587 622 587 622 582 617 c 1,64,65
 557 615 557 615 541.5 612 c 128,-1,66
 526 609 526 609 502 596.5 c 128,-1,67
 478 584 478 584 456 561 c 2,68,-1
 310 410 l 2,69,70
 300 401 300 401 292 393 c 128,-1,71
 284 385 284 385 274.5 377.5 c 128,-1,72
 265 370 265 370 259 365.5 c 128,-1,73
 253 361 253 361 242.5 354.5 c 128,-1,74
 232 348 232 348 228 345.5 c 128,-1,75
 224 343 224 343 211.5 337 c 128,-1,76
 199 331 199 331 196 329.5 c 128,-1,77
 193 328 193 328 177.5 321 c 128,-1,78
 162 314 162 314 158 312 c 1,79,-1
 158 350 l 1,46,47
EndSplineSet
Validated: 37
EndChar

StartChar: ampa
Encoding: 57357 57357 23
Width: 608
GlyphClass: 2
Flags: W
AnchorPoint: "Anchor-1" 320 750 basechar 0
AnchorPoint: "Anchor-0" 320 -100 basechar 0
LayerCount: 2
Fore
SplineSet
189 520 m 2,0,-1
 189 351 l 1,1,2
 247 351 247 351 270.5 360 c 128,-1,3
 294 369 294 369 306 389 c 2,4,-1
 413 563 l 2,5,6
 468 652 468 652 545 652 c 0,7,8
 573 652 573 652 587 645 c 1,9,10
 593 635 593 635 586 621 c 1,11,12
 555 621 555 621 534 601.5 c 128,-1,13
 513 582 513 582 490 544 c 2,14,-1
 364 334 l 1,15,16
 410 319 410 319 453.5 275.5 c 128,-1,17
 497 232 497 232 497 163 c 0,18,19
 497 88 497 88 444 38 c 0,20,21
 412 8 412 8 371 -1 c 128,-1,22
 330 -10 330 -10 271 -10 c 0,23,24
 246 -10 246 -10 204.5 -6.5 c 128,-1,25
 163 -3 163 -3 146 -3 c 0,26,27
 111 -3 111 -3 17 -5 c 1,28,29
 12 0 12 0 12 12 c 128,-1,30
 12 24 12 24 17 28 c 0,31,32
 73 30 73 30 88.5 44.5 c 128,-1,33
 104 59 104 59 104 119 c 2,34,-1
 104 520 l 2,35,36
 104 580 104 580 88.5 594.5 c 128,-1,37
 73 609 73 609 17 611 c 1,38,39
 12 616 12 616 12 628 c 128,-1,40
 12 640 12 640 17 644 c 1,41,42
 107 642 107 642 147 642 c 0,43,44
 188 642 188 642 276 644 c 1,45,46
 280 640 280 640 280 628 c 128,-1,47
 280 616 280 616 276 611 c 1,48,49
 220 609 220 609 204.5 594.5 c 128,-1,50
 189 580 189 580 189 520 c 2,0,-1
272 24 m 0,51,52
 405 24 405 24 405 164 c 0,53,54
 405 251 405 251 361.5 284 c 128,-1,55
 318 317 318 317 237 317 c 2,56,-1
 189 317 l 1,57,-1
 189 88 l 2,58,59
 189 24 189 24 272 24 c 0,51,52
EndSplineSet
Validated: 1
EndChar

StartChar: anca
Encoding: 57358 57358 24
Width: 594
GlyphClass: 2
Flags: W
AnchorPoint: "Anchor-1" 310 750 basechar 0
AnchorPoint: "Anchor-0" 310 -100 basechar 0
LayerCount: 2
Fore
SplineSet
440 0 m 2,0,-1
 228 0 l 2,1,2
 216 0 216 0 186 -0.5 c 128,-1,3
 156 -1 156 -1 132 -2 c 2,4,-1
 108 -2 l 1,5,6
 93 78 93 78 82 165 c 1,7,8
 98 173 98 173 116 170 c 1,9,10
 133 108 133 108 169 73.5 c 128,-1,11
 205 39 205 39 278 39 c 2,12,-1
 342 39 l 2,13,14
 371 39 371 39 384.5 55 c 128,-1,15
 398 71 398 71 398 109 c 2,16,-1
 398 523 l 2,17,18
 398 555 398 555 395 572 c 128,-1,19
 392 589 392 589 380.5 598.5 c 128,-1,20
 369 608 369 608 355 610.5 c 128,-1,21
 341 613 341 613 312 614 c 0,22,23
 307 618 307 618 307 630 c 128,-1,24
 307 642 307 642 312 647 c 1,25,26
 402 645 402 645 442 645 c 0,27,28
 478 645 478 645 570 647 c 1,29,30
 575 642 575 642 575 630 c 128,-1,31
 575 618 575 618 570 614 c 0,32,33
 541 613 541 613 527 610.5 c 128,-1,34
 513 608 513 608 501.5 598.5 c 128,-1,35
 490 589 490 589 487 572 c 128,-1,36
 484 555 484 555 484 523 c 2,37,-1
 484 122 l 2,38,39
 484 90 484 90 487 73 c 128,-1,40
 490 56 490 56 501.5 46.5 c 128,-1,41
 513 37 513 37 527 34.5 c 128,-1,42
 541 32 541 32 570 31 c 1,43,44
 575 26 575 26 575 14 c 128,-1,45
 575 2 575 2 570 -2 c 1,46,47
 492 0 492 0 440 0 c 2,0,-1
452 281 m 1,48,49
 409 277 409 277 378.5 288.5 c 128,-1,50
 348 300 348 300 323 331 c 0,51,52
 290 370 290 370 235.5 430 c 128,-1,53
 181 490 181 490 142 530 c 2,54,-1
 104 571 l 2,55,56
 89 588 89 588 72.5 597.5 c 128,-1,57
 56 607 56 607 45.5 609 c 128,-1,58
 35 611 35 611 16 613 c 0,59,60
 11 617 11 617 11 629 c 128,-1,61
 11 641 11 641 16 646 c 1,62,63
 82 644 82 644 117 644 c 0,64,65
 131 644 131 644 171 646 c 0,66,67
 176 646 176 646 176 640 c 0,68,69
 179 613 179 613 212 571 c 2,70,-1
 369 373 l 2,71,72
 397 337 397 337 452 335 c 1,73,-1
 452 281 l 1,48,49
EndSplineSet
Validated: 37
EndChar

StartChar: unque
Encoding: 57359 57359 25
Width: 618
GlyphClass: 2
Flags: W
AnchorPoint: "Anchor-1" 320 750 basechar 0
AnchorPoint: "Anchor-0" 320 -100 basechar 0
LayerCount: 2
Fore
SplineSet
413 520 m 2,0,1
 413 552 413 552 410 569 c 128,-1,2
 407 586 407 586 395.5 595.5 c 128,-1,3
 384 605 384 605 370 607.5 c 128,-1,4
 356 610 356 610 326 611 c 1,5,6
 322 616 322 616 322 628 c 128,-1,7
 322 640 322 640 326 644 c 1,8,9
 414 642 414 642 455 642 c 0,10,11
 495 642 495 642 585 644 c 1,12,13
 590 640 590 640 590 628 c 128,-1,14
 590 616 590 616 585 611 c 1,15,16
 555 610 555 610 541 607.5 c 128,-1,17
 527 605 527 605 515.5 595.5 c 128,-1,18
 504 586 504 586 501 569 c 128,-1,19
 498 552 498 552 498 520 c 2,20,-1
 498 119 l 2,21,22
 498 87 498 87 501 70 c 128,-1,23
 504 53 504 53 515.5 43.5 c 128,-1,24
 527 34 527 34 541 31.5 c 128,-1,25
 555 29 555 29 585 28 c 0,26,27
 590 24 590 24 590 12 c 128,-1,28
 590 0 590 0 585 -5 c 1,29,30
 491 -3 491 -3 456 -3 c 0,31,32
 439 -3 439 -3 397.5 -6.5 c 128,-1,33
 356 -10 356 -10 331 -10 c 0,34,35
 272 -10 272 -10 231 -1 c 128,-1,36
 190 8 190 8 158 38 c 0,37,38
 105 88 105 88 105 163 c 0,39,40
 105 200 105 200 119.5 231.5 c 128,-1,41
 134 263 134 263 156 283 c 128,-1,42
 178 303 178 303 198.5 315.5 c 128,-1,43
 219 328 219 328 238 334 c 1,44,-1
 112 544 l 2,45,46
 89 582 89 582 68 601.5 c 128,-1,47
 47 621 47 621 16 621 c 1,48,49
 9 635 9 635 15 645 c 1,50,51
 29 652 29 652 57 652 c 0,52,53
 134 652 134 652 189 563 c 2,54,-1
 296 389 l 2,55,56
 308 369 308 369 331.5 360 c 128,-1,57
 355 351 355 351 413 351 c 1,58,-1
 413 520 l 2,0,1
330 24 m 0,59,60
 413 24 413 24 413 88 c 2,61,-1
 413 317 l 1,62,-1
 365 317 l 2,63,64
 284 317 284 317 240.5 284 c 128,-1,65
 197 251 197 251 197 164 c 0,66,67
 197 24 197 24 330 24 c 0,59,60
EndSplineSet
Validated: 1
EndChar

StartChar: nuumen
Encoding: 57360 57360 26
Width: 836
GlyphClass: 2
Flags: W
AnchorPoint: "Anchor-1" 420 750 basechar 0
AnchorPoint: "Anchor-0" 420 -100 basechar 0
LayerCount: 2
Fore
SplineSet
663 116 m 2,0,-1
 637 534 l 1,1,-1
 635 534 l 1,2,-1
 410 5 l 2,3,4
 402 -10 402 -10 396 -10 c 0,5,6
 387 -10 387 -10 381 5 c 2,7,-1
 174 524 l 1,8,-1
 172 524 l 1,9,-1
 134 123 l 2,10,11
 130 76 130 76 142 55 c 128,-1,12
 154 34 154 34 200 31 c 1,13,14
 204 26 204 26 204 14 c 128,-1,15
 204 2 204 2 200 -2 c 1,16,17
 140 0 140 0 106 0 c 0,18,19
 80 0 80 0 20 -2 c 1,20,21
 16 2 16 2 16 14 c 128,-1,22
 16 26 16 26 20 31 c 1,23,24
 61 35 61 35 75.5 54 c 128,-1,25
 90 73 90 73 95 121 c 2,26,-1
 135 533 l 2,27,28
 140 588 140 588 130 599.5 c 128,-1,29
 120 611 120 611 67 614 c 0,30,31
 62 618 62 618 62 630 c 128,-1,32
 62 642 62 642 67 647 c 1,33,-1
 212 645 l 1,34,-1
 417 137 l 2,35,36
 422 124 422 124 425 124 c 128,-1,37
 428 124 428 124 434 138 c 2,38,-1
 646 645 l 1,39,-1
 777 647 l 1,40,41
 782 642 782 642 782 630 c 128,-1,42
 782 618 782 618 777 614 c 0,43,44
 728 611 728 611 716.5 597.5 c 128,-1,45
 705 584 705 584 708 542 c 2,46,-1
 738 121 l 2,47,48
 743 59 743 59 753.5 46 c 128,-1,49
 764 33 764 33 815 31 c 1,50,51
 820 26 820 26 820 14 c 128,-1,52
 820 2 820 2 815 -2 c 1,53,54
 749 0 749 0 706 0 c 0,55,56
 673 0 673 0 599 -2 c 1,57,58
 594 2 594 2 594 14 c 128,-1,59
 594 26 594 26 599 31 c 1,60,61
 649 33 649 33 658 44.5 c 128,-1,62
 667 56 667 56 663 116 c 2,0,-1
EndSplineSet
Validated: 33
EndChar

StartChar: malta
Encoding: 57361 57361 27
Width: 1000
GlyphClass: 2
Flags: W
AnchorPoint: "Anchor-1" 490 750 basechar 0
AnchorPoint: "Anchor-0" 490 -100 basechar 0
LayerCount: 2
Fore
SplineSet
820 0 m 2,0,-1
 149 0 l 2,1,2
 97 0 97 0 19 -2 c 1,3,4
 14 2 14 2 14 14 c 128,-1,5
 14 26 14 26 19 31 c 1,6,7
 75 33 75 33 90.5 47.5 c 128,-1,8
 106 62 106 62 106 122 c 2,9,-1
 106 523 l 2,10,11
 106 583 106 583 90.5 597.5 c 128,-1,12
 75 612 75 612 19 614 c 0,13,14
 14 618 14 618 14 630 c 128,-1,15
 14 642 14 642 19 647 c 1,16,17
 99 645 99 645 148 645 c 0,18,19
 200 645 200 645 278 647 c 1,20,21
 282 642 282 642 282 630 c 128,-1,22
 282 618 282 618 278 614 c 0,23,24
 222 612 222 612 206.5 597.5 c 128,-1,25
 191 583 191 583 191 523 c 2,26,-1
 191 122 l 2,27,28
 191 65 191 65 203 51 c 128,-1,29
 215 37 215 37 250 37 c 2,30,-1
 389 37 l 2,31,32
 420 37 420 37 430 50.5 c 128,-1,33
 440 64 440 64 440 122 c 2,34,-1
 440 523 l 2,35,36
 440 583 440 583 424.5 597.5 c 128,-1,37
 409 612 409 612 353 614 c 0,38,39
 348 618 348 618 348 630 c 128,-1,40
 348 642 348 642 353 647 c 1,41,42
 433 645 433 645 482 645 c 0,43,44
 534 645 534 645 612 647 c 1,45,46
 616 642 616 642 616 630 c 128,-1,47
 616 618 616 618 612 614 c 0,48,49
 556 612 556 612 540.5 597.5 c 128,-1,50
 525 583 525 583 525 523 c 2,51,-1
 525 122 l 2,52,53
 525 65 525 65 536.5 51 c 128,-1,54
 548 37 548 37 580 37 c 2,55,-1
 709 37 l 2,56,57
 754 37 754 37 766 50 c 128,-1,58
 778 63 778 63 778 122 c 2,59,-1
 778 523 l 2,60,61
 778 583 778 583 762.5 597.5 c 128,-1,62
 747 612 747 612 691 614 c 0,63,64
 686 618 686 618 686 630 c 128,-1,65
 686 642 686 642 691 647 c 1,66,67
 769 645 769 645 821 645 c 0,68,69
 870 645 870 645 950 647 c 1,70,71
 954 642 954 642 954 630 c 128,-1,72
 954 618 954 618 950 614 c 0,73,74
 894 612 894 612 878.5 597.5 c 128,-1,75
 863 583 863 583 863 523 c 2,76,-1
 863 122 l 2,77,78
 863 62 863 62 878.5 47.5 c 128,-1,79
 894 33 894 33 950 31 c 1,80,81
 954 26 954 26 954 14 c 128,-1,82
 954 2 954 2 950 -2 c 1,83,84
 872 0 872 0 820 0 c 2,0,-1
EndSplineSet
Validated: 1
EndChar

StartChar: noldo
Encoding: 57362 57362 28
Width: 654
GlyphClass: 2
Flags: W
AnchorPoint: "Anchor-1" 330 750 basechar 0
AnchorPoint: "Anchor-0" 330 -100 basechar 0
LayerCount: 2
Fore
SplineSet
432 117 m 1,0,-1
 429 69 l 1,1,-1
 526 69 l 1,2,-1
 540 69 l 2,3,4
 563 68 563 68 573 70 c 128,-1,5
 583 72 583 72 591.5 83 c 128,-1,6
 600 94 600 94 602 119 c 1,7,8
 617 125 617 125 628 119 c 1,9,10
 628 60 628 60 621 0 c 1,11,-1
 413 0 l 2,12,13
 396 0 396 0 396 14 c 2,14,-1
 404 143 l 1,15,16
 473 183 473 183 504.5 239.5 c 128,-1,17
 536 296 536 296 536 377 c 0,18,19
 536 485 536 485 479 554.5 c 128,-1,20
 422 624 422 624 326 624 c 0,21,22
 227 624 227 624 172 552.5 c 128,-1,23
 117 481 117 481 117 378 c 0,24,25
 117 296 117 296 147 243.5 c 128,-1,26
 177 191 177 191 248 143 c 1,27,-1
 256 15 l 2,28,29
 256 0 256 0 239 0 c 2,30,-1
 26 0 l 1,31,32
 19 53 19 53 19 119 c 1,33,34
 32 125 32 125 44 119 c 1,35,36
 47 84 47 84 60.5 76.5 c 128,-1,37
 74 69 74 69 113 69 c 2,38,-1
 121 69 l 1,39,-1
 224 69 l 1,40,-1
 220 117 l 1,41,42
 135 146 135 146 80 215.5 c 128,-1,43
 25 285 25 285 25 377 c 0,44,45
 25 446 25 446 58 508.5 c 128,-1,46
 91 571 91 571 161.5 614.5 c 128,-1,47
 232 658 232 658 326 658 c 0,48,49
 468 658 468 658 547.5 576.5 c 128,-1,50
 627 495 627 495 627 377 c 0,51,52
 627 289 627 289 572 217 c 128,-1,53
 517 145 517 145 432 117 c 1,0,-1
EndSplineSet
Validated: 33
EndChar

StartChar: nwalme
Encoding: 57363 57363 29
Width: 654
GlyphClass: 2
Flags: W
AnchorPoint: "Anchor-1" 330 750 basechar 0
AnchorPoint: "Anchor-0" 330 -100 basechar 0
LayerCount: 2
Fore
SplineSet
432 117 m 1,0,-1
 429 69 l 1,1,-1
 526 69 l 1,2,-1
 540 69 l 2,3,4
 563 68 563 68 573 70 c 128,-1,5
 583 72 583 72 591.5 83 c 128,-1,6
 600 94 600 94 602 119 c 1,7,8
 617 125 617 125 628 119 c 1,9,10
 628 60 628 60 621 0 c 1,11,-1
 413 0 l 2,12,13
 396 0 396 0 396 14 c 2,14,-1
 404 143 l 1,15,16
 473 183 473 183 504.5 239.5 c 128,-1,17
 536 296 536 296 536 377 c 0,18,19
 536 485 536 485 479 554.5 c 128,-1,20
 422 624 422 624 326 624 c 0,21,22
 227 624 227 624 172 552.5 c 128,-1,23
 117 481 117 481 117 378 c 0,24,25
 117 296 117 296 147 243.5 c 128,-1,26
 177 191 177 191 248 143 c 1,27,-1
 256 15 l 2,28,29
 256 0 256 0 239 0 c 2,30,-1
 26 0 l 1,31,32
 19 53 19 53 19 119 c 1,33,34
 32 125 32 125 44 119 c 1,35,36
 47 84 47 84 60.5 76.5 c 128,-1,37
 74 69 74 69 113 69 c 2,38,-1
 121 69 l 1,39,-1
 224 69 l 1,40,-1
 220 117 l 1,41,42
 135 146 135 146 80 215.5 c 128,-1,43
 25 285 25 285 25 377 c 0,44,45
 25 446 25 446 58 508.5 c 128,-1,46
 91 571 91 571 161.5 614.5 c 128,-1,47
 232 658 232 658 326 658 c 0,48,49
 468 658 468 658 547.5 576.5 c 128,-1,50
 627 495 627 495 627 377 c 0,51,52
 627 289 627 289 572 217 c 128,-1,53
 517 145 517 145 432 117 c 1,0,-1
294 403 m 2,54,-1
 354 403 l 2,55,56
 396 403 396 403 415 409.5 c 128,-1,57
 434 416 434 416 438.5 426 c 128,-1,58
 443 436 443 436 444 461 c 1,59,60
 449 466 449 466 461 466 c 128,-1,61
 473 466 473 466 478 461 c 1,62,63
 476 401 476 401 476 377 c 0,64,65
 476 359 476 359 478 289 c 1,66,67
 473 285 473 285 461 285 c 128,-1,68
 449 285 449 285 444 289 c 1,69,70
 443 305 443 305 440.5 313 c 128,-1,71
 438 321 438 321 430 330.5 c 128,-1,72
 422 340 422 340 403 343.5 c 128,-1,73
 384 347 384 347 354 347 c 2,74,-1
 294 347 l 2,75,76
 251 347 251 347 232 341 c 128,-1,77
 213 335 213 335 208.5 324.5 c 128,-1,78
 204 314 204 314 202 289 c 0,79,80
 198 285 198 285 186 285 c 128,-1,81
 174 285 174 285 170 289 c 1,82,83
 172 349 172 349 172 373 c 0,84,85
 172 391 172 391 170 461 c 1,86,87
 174 466 174 466 186 466 c 128,-1,88
 198 466 198 466 202 461 c 0,89,90
 204 445 204 445 206.5 437.5 c 128,-1,91
 209 430 209 430 217 420.5 c 128,-1,92
 225 411 225 411 244 407 c 128,-1,93
 263 403 263 403 294 403 c 2,54,-1
EndSplineSet
Validated: 33
EndChar

StartChar: oore
Encoding: 57364 57364 30
Width: 706
GlyphClass: 2
Flags: W
AnchorPoint: "Anchor-1" 350 750 basechar 0
AnchorPoint: "Anchor-0" 350 -100 basechar 0
LayerCount: 2
Fore
SplineSet
556 512 m 2,0,1
 556 547 556 547 553 565.5 c 128,-1,2
 550 584 550 584 538 594.5 c 128,-1,3
 526 605 526 605 513 608 c 128,-1,4
 500 611 500 611 469 614 c 0,5,6
 464 618 464 618 464 630 c 128,-1,7
 464 642 464 642 469 647 c 1,8,9
 557 645 557 645 580 645 c 0,10,11
 610 645 610 645 692 647 c 1,12,13
 696 642 696 642 696 630 c 128,-1,14
 696 618 696 618 692 614 c 0,15,16
 636 608 636 608 620.5 592 c 128,-1,17
 605 576 605 576 605 512 c 2,18,-1
 605 21 l 2,19,20
 605 -10 605 -10 582 -10 c 0,21,22
 560 -10 560 -10 542 14 c 2,23,-1
 193 455 l 2,24,25
 168 488 168 488 159 488 c 0,26,27
 151 488 151 488 151 439 c 2,28,-1
 151 133 l 2,29,30
 151 98 151 98 154 79.5 c 128,-1,31
 157 61 157 61 169 50.5 c 128,-1,32
 181 40 181 40 194 37 c 128,-1,33
 207 34 207 34 238 31 c 1,34,35
 242 26 242 26 242 14 c 128,-1,36
 242 2 242 2 238 -2 c 1,37,38
 154 0 154 0 127 0 c 0,39,40
 101 0 101 0 15 -2 c 1,41,42
 10 2 10 2 10 14 c 128,-1,43
 10 26 10 26 15 31 c 1,44,45
 71 37 71 37 86.5 53 c 128,-1,46
 102 69 102 69 102 133 c 2,47,-1
 102 550 l 1,48,49
 97 572 97 572 75 592 c 128,-1,50
 53 612 53 612 23 614 c 0,51,52
 18 618 18 618 18 630 c 128,-1,53
 18 642 18 642 23 647 c 1,54,-1
 158 645 l 1,55,-1
 501 210 l 2,56,57
 544 155 544 155 549 155 c 0,58,59
 556 155 556 155 556 185 c 2,60,-1
 556 512 l 2,0,1
EndSplineSet
Validated: 1
EndChar

StartChar: vala
Encoding: 57365 57365 31
Width: 684
GlyphClass: 2
Flags: W
AnchorPoint: "Anchor-1" 340 750 basechar 0
AnchorPoint: "Anchor-0" 340 -100 basechar 0
LayerCount: 2
Fore
SplineSet
146 1 m 2,0,1
 117 1 117 1 17 -1 c 1,2,3
 12 4 12 4 12 16 c 128,-1,4
 12 28 12 28 17 32 c 0,5,6
 73 34 73 34 88.5 48.5 c 128,-1,7
 104 63 104 63 104 123 c 2,8,-1
 104 524 l 2,9,10
 104 584 104 584 88.5 598.5 c 128,-1,11
 73 613 73 613 17 615 c 1,12,13
 12 620 12 620 12 632 c 128,-1,14
 12 644 12 644 17 648 c 1,15,16
 93 646 93 646 147 646 c 0,17,18
 200 646 200 646 276 648 c 1,19,20
 280 644 280 644 280 632 c 128,-1,21
 280 620 280 620 276 615 c 1,22,23
 220 613 220 613 204.5 598.5 c 128,-1,24
 189 584 189 584 189 524 c 2,25,-1
 189 115 l 2,26,27
 189 41 189 41 235 41 c 2,28,-1
 432 41 l 2,29,30
 478 41 478 41 478 115 c 2,31,-1
 478 524 l 2,32,33
 478 584 478 584 462.5 598.5 c 128,-1,34
 447 613 447 613 391 615 c 1,35,36
 386 620 386 620 386 632 c 128,-1,37
 386 644 386 644 391 648 c 1,38,39
 471 646 471 646 520 646 c 0,40,41
 572 646 572 646 650 648 c 1,42,43
 654 644 654 644 654 632 c 128,-1,44
 654 620 654 620 650 615 c 1,45,46
 594 613 594 613 578.5 598.5 c 128,-1,47
 563 584 563 584 563 524 c 2,48,-1
 563 123 l 2,49,50
 563 63 563 63 578.5 48.5 c 128,-1,51
 594 34 594 34 650 32 c 0,52,53
 654 28 654 28 654 16 c 128,-1,54
 654 4 654 4 650 -1 c 1,55,56
 550 1 550 1 521 1 c 2,57,-1
 146 1 l 2,0,1
EndSplineSet
Validated: 1
EndChar

StartChar: anna
Encoding: 57366 57366 32
Width: 664
GlyphClass: 2
Flags: W
AnchorPoint: "Anchor-1" 350 750 basechar 0
AnchorPoint: "Anchor-0" 320 -100 basechar 0
LayerCount: 2
Fore
SplineSet
448 614 m 0,0,1
 444 618 444 618 444 630 c 128,-1,2
 444 642 444 642 448 647 c 1,3,4
 530 645 530 645 557 645 c 0,5,6
 585 645 585 645 645 647 c 1,7,8
 650 642 650 642 650 630 c 128,-1,9
 650 618 650 618 645 614 c 0,10,11
 615 611 615 611 595 596 c 128,-1,12
 575 581 575 581 567 566 c 128,-1,13
 559 551 559 551 547 521 c 2,14,-1
 340 11 l 2,15,16
 330 -12 330 -12 316 -12 c 128,-1,17
 302 -12 302 -12 293 11 c 2,18,-1
 96 523 l 2,19,20
 74 578 74 578 59.5 594 c 128,-1,21
 45 610 45 610 6 614 c 1,22,23
 1 619 1 619 1 630.5 c 128,-1,24
 1 642 1 642 5 647 c 1,25,26
 71 645 71 645 109 645 c 0,27,28
 150 645 150 645 230 647 c 1,29,30
 234 642 234 642 234 630 c 128,-1,31
 234 618 234 618 230 614 c 0,32,33
 180 609 180 609 170.5 594 c 128,-1,34
 161 579 161 579 179 534 c 2,35,-1
 339 127 l 1,36,-1
 343 127 l 1,37,-1
 501 528 l 2,38,39
 520 568 520 568 510 589 c 128,-1,40
 500 610 500 610 448 614 c 0,0,1
EndSplineSet
Validated: 33
EndChar

StartChar: wilya
Encoding: 57367 57367 33
Width: 710
GlyphClass: 2
Flags: W
AnchorPoint: "Anchor-1" 350 750 basechar 0
AnchorPoint: "Anchor-0" 320 -100 basechar 0
LayerCount: 2
Fore
SplineSet
537 577 m 2,0,1
 540 584 540 584 540.5 590.5 c 128,-1,2
 541 597 541 597 538.5 601.5 c 128,-1,3
 536 606 536 606 532.5 609.5 c 128,-1,4
 529 613 529 613 522.5 615.5 c 128,-1,5
 516 618 516 618 511 619.5 c 128,-1,6
 506 621 506 621 497 622 c 128,-1,7
 488 623 488 623 482.5 623.5 c 128,-1,8
 477 624 477 624 468 625 c 1,9,10
 464 630 464 630 464 642 c 128,-1,11
 464 654 464 654 468 658 c 1,12,13
 542 656 542 656 596 656 c 0,14,15
 633 656 633 656 685 658 c 1,16,17
 690 654 690 654 690 642 c 128,-1,18
 690 630 690 630 685 625 c 1,19,20
 659 623 659 623 644.5 619 c 128,-1,21
 630 615 630 615 613.5 599.5 c 128,-1,22
 597 584 597 584 585 554 c 2,23,-1
 358 18 l 1,24,25
 336 18 336 18 303 -2 c 1,26,-1
 97 570 l 2,27,28
 89 593 89 593 73.5 605 c 128,-1,29
 58 617 58 617 45 620 c 128,-1,30
 32 623 32 623 7 625 c 1,31,32
 2 630 2 630 2 642 c 128,-1,33
 2 654 2 654 7 658 c 1,34,35
 77 656 77 656 121 656 c 0,36,37
 178 656 178 656 252 658 c 1,38,39
 256 654 256 654 256 642 c 128,-1,40
 256 630 256 630 252 625 c 1,41,42
 241 624 241 624 234.5 623.5 c 128,-1,43
 228 623 228 623 218.5 622 c 128,-1,44
 209 621 209 621 204 620 c 128,-1,45
 199 619 199 619 192.5 616.5 c 128,-1,46
 186 614 186 614 183 611.5 c 128,-1,47
 180 609 180 609 177.5 605 c 128,-1,48
 175 601 175 601 175.5 595.5 c 128,-1,49
 176 590 176 590 178 584 c 2,50,-1
 236 415 l 1,51,-1
 447 415 l 2,52,53
 465 415 465 415 471.5 418.5 c 128,-1,54
 478 422 478 422 482 432 c 2,55,-1
 537 577 l 2,0,1
429 373 m 2,56,-1
 252 373 l 1,57,-1
 346 101 l 1,58,-1
 352 101 l 1,59,-1
 454 360 l 2,60,61
 457 367 457 367 451.5 370 c 128,-1,62
 446 373 446 373 429 373 c 2,56,-1
EndSplineSet
Validated: 1
EndChar

StartChar: tinco_ext
Encoding: 57368 57368 34
Width: 450
GlyphClass: 2
Flags: W
AnchorPoint: "Anchor-1" 220 750 basechar 0
AnchorPoint: "Anchor-0" 220 -100 basechar 0
LayerCount: 2
Fore
SplineSet
182 574 m 2,0,-1
 182 366 l 1,1,-1
 323 366 l 2,2,3
 348 366 348 366 358 376.5 c 128,-1,4
 368 387 368 387 373 410 c 2,5,-1
 380 440 l 2,6,7
 380 448 380 448 387 448 c 2,8,-1
 423 448 l 2,9,10
 427 448 427 448 427 444 c 0,11,12
 419 359 419 359 419 349 c 0,13,14
 419 317 419 317 427 253 c 1,15,-1
 424 250 l 1,16,-1
 387 250 l 2,17,18
 379 250 379 250 379 257 c 2,19,-1
 373 288 l 2,20,21
 365 332 365 332 323 332 c 2,22,-1
 182 332 l 1,23,-1
 182 72 l 2,24,25
 182 49 182 49 194.5 38.5 c 128,-1,26
 207 28 207 28 237 28 c 2,27,-1
 263 28 l 2,28,29
 271 28 271 28 271 20 c 2,30,-1
 271 1 l 1,31,-1
 270 -1 l 1,32,33
 183 1 183 1 144 1 c 2,34,-1
 15 -1 l 1,35,-1
 13 1 l 1,36,-1
 13 20 l 2,37,38
 13 28 13 28 21 28 c 2,39,-1
 47 28 l 2,40,41
 102 28 102 28 102 72 c 2,42,-1
 102 574 l 2,43,44
 102 618 102 618 47 618 c 2,45,-1
 21 618 l 2,46,47
 12 618 12 618 12 626 c 2,48,-1
 12 645 l 1,49,-1
 14 646 l 1,50,51
 101 645 101 645 140 645 c 2,52,-1
 269 646 l 1,53,-1
 271 645 l 1,54,-1
 271 626 l 2,55,56
 271 618 271 618 263 618 c 2,57,-1
 237 618 l 2,58,59
 182 618 182 618 182 574 c 2,0,-1
EndSplineSet
Validated: 1
EndChar

StartChar: parma_ext
Encoding: 57369 57369 35
Width: 514
GlyphClass: 2
Flags: W
AnchorPoint: "Anchor-1" 220 750 basechar 0
AnchorPoint: "Anchor-0" 220 -100 basechar 0
LayerCount: 2
Fore
SplineSet
183 122 m 2,0,1
 183 62 183 62 198.5 47.5 c 128,-1,2
 214 33 214 33 270 31 c 1,3,4
 274 26 274 26 274 14 c 128,-1,5
 274 2 274 2 270 -2 c 1,6,7
 170 0 170 0 141 0 c 0,8,9
 109 0 109 0 11 -2 c 1,10,11
 6 2 6 2 6 14 c 128,-1,12
 6 26 6 26 11 31 c 1,13,14
 67 33 67 33 82.5 47.5 c 128,-1,15
 98 62 98 62 98 122 c 2,16,-1
 98 523 l 2,17,18
 98 583 98 583 82.5 597.5 c 128,-1,19
 67 612 67 612 11 614 c 0,20,21
 6 618 6 618 6 630 c 128,-1,22
 6 642 6 642 11 647 c 1,23,24
 111 645 111 645 140 645 c 0,25,26
 172 645 172 645 270 647 c 1,27,28
 274 642 274 642 274 630 c 128,-1,29
 274 618 274 618 270 614 c 0,30,31
 214 612 214 612 198.5 597.5 c 128,-1,32
 183 583 183 583 183 523 c 2,33,-1
 183 519 l 1,34,35
 255 523 255 523 273 523 c 0,36,37
 339 523 339 523 385 505.5 c 128,-1,38
 431 488 431 488 453 459 c 128,-1,39
 475 430 475 430 484 402 c 128,-1,40
 493 374 493 374 493 343 c 128,-1,41
 493 312 493 312 481 280.5 c 128,-1,42
 469 249 469 249 443.5 218.5 c 128,-1,43
 418 188 418 188 370 169 c 128,-1,44
 322 150 322 150 259 150 c 0,45,46
 210 150 210 150 183 159 c 1,47,-1
 183 122 l 2,0,1
183 479 m 1,48,-1
 183 188 l 1,49,50
 198 183 198 183 254 183 c 0,51,52
 400 183 400 183 400 343 c 0,53,54
 400 425 400 425 363 457.5 c 128,-1,55
 326 490 326 490 272 490 c 0,56,57
 222 490 222 490 183 479 c 1,48,-1
EndSplineSet
Validated: 1
EndChar

StartChar: calma_ext
Encoding: 57370 57370 36
Width: 450
GlyphClass: 2
Flags: W
AnchorPoint: "Anchor-1" 220 750 basechar 0
AnchorPoint: "Anchor-0" 220 -100 basechar 0
LayerCount: 2
Fore
SplineSet
257 574 m 2,0,1
 257 618 257 618 202 618 c 2,2,-1
 176 618 l 2,3,4
 168 618 168 618 168 626 c 2,5,-1
 168 645 l 1,6,-1
 170 646 l 1,7,8
 263 645 263 645 299 645 c 2,9,-1
 425 646 l 1,10,-1
 427 645 l 1,11,-1
 427 626 l 2,12,13
 427 618 427 618 418 618 c 2,14,-1
 392 618 l 2,15,16
 337 618 337 618 337 574 c 2,17,-1
 337 72 l 2,18,19
 337 28 337 28 392 28 c 2,20,-1
 418 28 l 2,21,22
 426 28 426 28 426 20 c 2,23,-1
 426 1 l 1,24,-1
 424 -1 l 1,25,26
 331 1 331 1 295 1 c 0,27,28
 278 1 278 1 246.5 0.5 c 128,-1,29
 215 0 215 0 192 0 c 2,30,-1
 169 -1 l 1,31,-1
 168 1 l 1,32,-1
 168 20 l 2,33,34
 168 28 168 28 176 28 c 2,35,-1
 202 28 l 2,36,37
 232 28 232 28 244.5 38.5 c 128,-1,38
 257 49 257 49 257 72 c 2,39,-1
 257 332 l 1,40,-1
 116 332 l 2,41,42
 74 332 74 332 66 288 c 2,43,-1
 60 257 l 2,44,45
 60 250 60 250 52 250 c 2,46,-1
 15 250 l 1,47,-1
 12 253 l 1,48,49
 20 317 20 317 20 349 c 0,50,51
 20 359 20 359 12 444 c 0,52,53
 12 448 12 448 16 448 c 2,54,-1
 52 448 l 2,55,56
 59 448 59 448 59 440 c 2,57,-1
 66 410 l 2,58,59
 71 387 71 387 81 376.5 c 128,-1,60
 91 366 91 366 116 366 c 2,61,-1
 257 366 l 1,62,-1
 257 574 l 2,0,1
EndSplineSet
Validated: 1
EndChar

StartChar: quesse_ext
Encoding: 57371 57371 37
Width: 526
GlyphClass: 2
Flags: W
AnchorPoint: "Anchor-1" 270 750 basechar 0
AnchorPoint: "Anchor-0" 270 -100 basechar 0
LayerCount: 2
Fore
SplineSet
316 523 m 2,0,1
 316 555 316 555 313 572 c 128,-1,2
 310 589 310 589 298.5 598.5 c 128,-1,3
 287 608 287 608 273 610.5 c 128,-1,4
 259 613 259 613 230 614 c 0,5,6
 225 618 225 618 225 630 c 128,-1,7
 225 642 225 642 230 647 c 1,8,9
 330 645 330 645 358 645 c 0,10,11
 390 645 390 645 488 647 c 1,12,13
 493 642 493 642 493 630 c 128,-1,14
 493 618 493 618 488 614 c 0,15,16
 459 613 459 613 445 610.5 c 128,-1,17
 431 608 431 608 419.5 598.5 c 128,-1,18
 408 589 408 589 405 572 c 128,-1,19
 402 555 402 555 402 523 c 2,20,-1
 402 122 l 2,21,22
 402 90 402 90 405 73 c 128,-1,23
 408 56 408 56 419.5 46.5 c 128,-1,24
 431 37 431 37 445 34.5 c 128,-1,25
 459 32 459 32 488 31 c 1,26,27
 493 26 493 26 493 14 c 128,-1,28
 493 2 493 2 488 -2 c 1,29,30
 388 0 388 0 360 0 c 0,31,32
 328 0 328 0 230 -2 c 1,33,34
 225 2 225 2 225 14 c 128,-1,35
 225 26 225 26 230 31 c 1,36,37
 259 32 259 32 273 34.5 c 128,-1,38
 287 37 287 37 298.5 46.5 c 128,-1,39
 310 56 310 56 313 73 c 128,-1,40
 316 90 316 90 316 122 c 2,41,-1
 316 126 l 1,42,43
 244 122 244 122 226 122 c 0,44,45
 173 122 173 122 132.5 134 c 128,-1,46
 92 146 92 146 69 164.5 c 128,-1,47
 46 183 46 183 31 208 c 128,-1,48
 16 233 16 233 11 255.5 c 128,-1,49
 6 278 6 278 6 302 c 128,-1,50
 6 326 6 326 13 351 c 128,-1,51
 20 376 20 376 37.5 402.5 c 128,-1,52
 55 429 55 429 81 449 c 128,-1,53
 107 469 107 469 148 482 c 128,-1,54
 189 495 189 495 240 495 c 0,55,56
 290 495 290 495 316 486 c 1,57,-1
 316 523 l 2,0,1
316 166 m 1,58,-1
 316 457 l 1,59,60
 302 462 302 462 246 462 c 0,61,62
 216 462 216 462 192 455 c 128,-1,63
 168 448 168 448 146 431 c 128,-1,64
 124 414 124 414 112 381 c 128,-1,65
 100 348 100 348 100 302 c 0,66,67
 100 259 100 259 111 228.5 c 128,-1,68
 122 198 122 198 141.5 183 c 128,-1,69
 161 168 161 168 182 161.5 c 128,-1,70
 203 155 203 155 228 155 c 0,71,72
 278 155 278 155 316 166 c 1,58,-1
EndSplineSet
Validated: 1
EndChar

StartChar: ando_ext
Encoding: 57372 57372 38
Width: 650
GlyphClass: 2
Flags: W
AnchorPoint: "Anchor-1" 330 750 basechar 0
AnchorPoint: "Anchor-0" 330 -100 basechar 0
LayerCount: 2
Fore
SplineSet
191 122 m 2,0,1
 191 62 191 62 206.5 47.5 c 128,-1,2
 222 33 222 33 278 31 c 1,3,4
 282 26 282 26 282 14 c 128,-1,5
 282 2 282 2 278 -2 c 1,6,7
 188 0 188 0 149 0 c 0,8,9
 109 0 109 0 19 -2 c 1,10,11
 14 2 14 2 14 14 c 128,-1,12
 14 26 14 26 19 31 c 1,13,14
 75 33 75 33 90.5 47.5 c 128,-1,15
 106 62 106 62 106 122 c 2,16,-1
 106 523 l 2,17,18
 106 583 106 583 90.5 597.5 c 128,-1,19
 75 612 75 612 19 614 c 0,20,21
 14 618 14 618 14 630 c 128,-1,22
 14 642 14 642 19 647 c 1,23,24
 109 645 109 645 148 645 c 0,25,26
 186 645 186 645 278 647 c 1,27,28
 282 642 282 642 282 630 c 128,-1,29
 282 618 282 618 278 614 c 0,30,31
 222 612 222 612 206.5 597.5 c 128,-1,32
 191 583 191 583 191 523 c 2,33,-1
 191 347 l 1,34,35
 238 351 238 351 270 386 c 2,36,-1
 435 562 l 2,37,38
 450 578 450 578 454 588.5 c 128,-1,39
 458 599 458 599 450 604 c 128,-1,40
 442 609 442 609 433 611 c 128,-1,41
 424 613 424 613 407 614 c 0,42,43
 402 618 402 618 402 630 c 128,-1,44
 402 642 402 642 407 647 c 1,45,46
 481 645 481 645 520 645 c 0,47,48
 553 645 553 645 615 647 c 1,49,50
 620 642 620 642 620 630 c 128,-1,51
 620 618 620 618 615 614 c 0,52,53
 589 612 589 612 573.5 609 c 128,-1,54
 558 606 558 606 534.5 593.5 c 128,-1,55
 511 581 511 581 489 558 c 2,56,-1
 342 407 l 2,57,58
 307 371 307 371 307 358 c 0,59,60
 307 348 307 348 320 333 c 2,61,-1
 539 73 l 2,62,63
 553 56 553 56 570 46.5 c 128,-1,64
 587 37 587 37 597.5 35 c 128,-1,65
 608 33 608 33 627 31 c 1,66,67
 632 26 632 26 632 14 c 128,-1,68
 632 2 632 2 627 -2 c 1,69,70
 561 0 561 0 526 0 c 0,71,72
 512 0 512 0 472 -2 c 0,73,74
 467 -2 467 -2 467 4 c 0,75,76
 464 31 464 31 431 73 c 2,77,-1
 274 271 l 2,78,79
 246 307 246 307 191 309 c 1,80,-1
 191 122 l 2,0,1
EndSplineSet
Validated: 1
EndChar

StartChar: umbar_ext
Encoding: 57373 57373 39
Width: 512
GlyphClass: 2
Flags: W
AnchorPoint: "Anchor-1" 250 750 basechar 0
AnchorPoint: "Anchor-0" 250 -100 basechar 0
LayerCount: 2
Fore
SplineSet
183 523 m 2,0,-1
 183 486 l 1,1,2
 210 495 210 495 259 495 c 0,3,4
 322 495 322 495 370 476 c 128,-1,5
 418 457 418 457 443.5 426.5 c 128,-1,6
 469 396 469 396 481 364.5 c 128,-1,7
 493 333 493 333 493 302 c 128,-1,8
 493 271 493 271 484 243 c 128,-1,9
 475 215 475 215 453 186 c 128,-1,10
 431 157 431 157 385 139.5 c 128,-1,11
 339 122 339 122 273 122 c 0,12,13
 255 122 255 122 183 126 c 1,14,-1
 183 122 l 2,15,16
 183 62 183 62 198.5 47.5 c 128,-1,17
 214 33 214 33 270 31 c 1,18,19
 274 26 274 26 274 14 c 128,-1,20
 274 2 274 2 270 -2 c 1,21,22
 172 0 172 0 140 0 c 0,23,24
 111 0 111 0 11 -2 c 1,25,26
 6 2 6 2 6 14 c 128,-1,27
 6 26 6 26 11 31 c 1,28,29
 67 33 67 33 82.5 47.5 c 128,-1,30
 98 62 98 62 98 122 c 2,31,-1
 98 523 l 2,32,33
 98 583 98 583 82.5 597.5 c 128,-1,34
 67 612 67 612 11 614 c 0,35,36
 6 618 6 618 6 630 c 128,-1,37
 6 642 6 642 11 647 c 1,38,39
 109 645 109 645 141 645 c 0,40,41
 170 645 170 645 270 647 c 1,42,43
 274 642 274 642 274 630 c 128,-1,44
 274 618 274 618 270 614 c 0,45,46
 214 612 214 612 198.5 597.5 c 128,-1,47
 183 583 183 583 183 523 c 2,0,-1
183 166 m 1,48,49
 222 155 222 155 272 155 c 0,50,51
 326 155 326 155 363 187.5 c 128,-1,52
 400 220 400 220 400 302 c 0,53,54
 400 462 400 462 254 462 c 0,55,56
 198 462 198 462 183 457 c 1,57,-1
 183 166 l 1,48,49
163 287 m 1,58,-1
 163 329 l 1,59,-1
 425 329 l 1,60,-1
 425 287 l 1,61,-1
 163 287 l 1,58,-1
EndSplineSet
Validated: 5
EndChar

StartChar: anga_ext
Encoding: 57374 57374 40
Width: 670
GlyphClass: 2
Flags: W
AnchorPoint: "Anchor-1" 330 750 basechar 0
AnchorPoint: "Anchor-0" 330 -100 basechar 0
LayerCount: 2
Fore
SplineSet
455 523 m 2,0,1
 455 583 455 583 439.5 597.5 c 128,-1,2
 424 612 424 612 368 614 c 0,3,4
 364 618 364 618 364 630 c 128,-1,5
 364 642 364 642 368 647 c 1,6,7
 458 645 458 645 497 645 c 0,8,9
 537 645 537 645 627 647 c 1,10,11
 632 642 632 642 632 630 c 128,-1,12
 632 618 632 618 627 614 c 0,13,14
 571 612 571 612 555.5 597.5 c 128,-1,15
 540 583 540 583 540 523 c 2,16,-1
 540 122 l 2,17,18
 540 62 540 62 555.5 47.5 c 128,-1,19
 571 33 571 33 627 31 c 1,20,21
 632 26 632 26 632 14 c 128,-1,22
 632 2 632 2 627 -2 c 1,23,24
 537 0 537 0 498 0 c 0,25,26
 460 0 460 0 368 -2 c 1,27,28
 364 2 364 2 364 14 c 128,-1,29
 364 26 364 26 368 31 c 1,30,31
 424 33 424 33 439.5 47.5 c 128,-1,32
 455 62 455 62 455 122 c 2,33,-1
 455 298 l 1,34,35
 408 294 408 294 376 259 c 2,36,-1
 211 83 l 2,37,38
 196 67 196 67 192 56.5 c 128,-1,39
 188 46 188 46 196 41 c 128,-1,40
 204 36 204 36 213 34 c 128,-1,41
 222 32 222 32 239 31 c 1,42,43
 244 26 244 26 244 14 c 128,-1,44
 244 2 244 2 239 -2 c 1,45,46
 165 0 165 0 126 0 c 0,47,48
 93 0 93 0 31 -2 c 1,49,50
 26 2 26 2 26 14 c 128,-1,51
 26 26 26 26 31 31 c 1,52,53
 57 33 57 33 72.5 36 c 128,-1,54
 88 39 88 39 111.5 51.5 c 128,-1,55
 135 64 135 64 157 87 c 2,56,-1
 304 238 l 2,57,58
 339 274 339 274 339 287 c 0,59,60
 339 297 339 297 326 312 c 2,61,-1
 107 572 l 2,62,63
 93 589 93 589 76 598.5 c 128,-1,64
 59 608 59 608 48.5 610 c 128,-1,65
 38 612 38 612 19 614 c 0,66,67
 14 618 14 618 14 630 c 128,-1,68
 14 642 14 642 19 647 c 1,69,70
 85 645 85 645 120 645 c 0,71,72
 134 645 134 645 174 647 c 0,73,74
 179 647 179 647 179 641 c 0,75,76
 182 614 182 614 215 572 c 2,77,-1
 372 374 l 2,78,79
 400 338 400 338 455 336 c 1,80,-1
 455 523 l 2,0,1
EndSplineSet
Validated: 1
EndChar

StartChar: ungwe_ext
Encoding: 57375 57375 41
Width: 508
GlyphClass: 2
Flags: W
AnchorPoint: "Anchor-1" 280 750 basechar 0
AnchorPoint: "Anchor-0" 280 -100 basechar 0
LayerCount: 2
Fore
SplineSet
316 523 m 2,0,1
 316 555 316 555 313 572 c 128,-1,2
 310 589 310 589 298.5 598.5 c 128,-1,3
 287 608 287 608 273 610.5 c 128,-1,4
 259 613 259 613 230 614 c 0,5,6
 225 618 225 618 225 630 c 128,-1,7
 225 642 225 642 230 647 c 1,8,9
 330 645 330 645 358 645 c 0,10,11
 390 645 390 645 488 647 c 1,12,13
 493 642 493 642 493 630 c 128,-1,14
 493 618 493 618 488 614 c 0,15,16
 459 613 459 613 445 610.5 c 128,-1,17
 431 608 431 608 419.5 598.5 c 128,-1,18
 408 589 408 589 405 572 c 128,-1,19
 402 555 402 555 402 523 c 2,20,-1
 402 122 l 2,21,22
 402 90 402 90 405 73 c 128,-1,23
 408 56 408 56 419.5 46.5 c 128,-1,24
 431 37 431 37 445 34.5 c 128,-1,25
 459 32 459 32 488 31 c 1,26,27
 493 26 493 26 493 14 c 128,-1,28
 493 2 493 2 488 -2 c 1,29,30
 388 0 388 0 360 0 c 0,31,32
 328 0 328 0 230 -2 c 1,33,34
 225 2 225 2 225 14 c 128,-1,35
 225 26 225 26 230 31 c 1,36,37
 259 32 259 32 273 34.5 c 128,-1,38
 287 37 287 37 298.5 46.5 c 128,-1,39
 310 56 310 56 313 73 c 128,-1,40
 316 90 316 90 316 122 c 2,41,-1
 316 126 l 1,42,43
 244 122 244 122 226 122 c 0,44,45
 173 122 173 122 132.5 134 c 128,-1,46
 92 146 92 146 69 164.5 c 128,-1,47
 46 183 46 183 31 208 c 128,-1,48
 16 233 16 233 11 255.5 c 128,-1,49
 6 278 6 278 6 302 c 128,-1,50
 6 326 6 326 13 351 c 128,-1,51
 20 376 20 376 37.5 402.5 c 128,-1,52
 55 429 55 429 81 449 c 128,-1,53
 107 469 107 469 148 482 c 128,-1,54
 189 495 189 495 240 495 c 0,55,56
 290 495 290 495 316 486 c 1,57,-1
 316 523 l 2,0,1
316 166 m 1,58,-1
 316 457 l 1,59,60
 302 462 302 462 246 462 c 0,61,62
 216 462 216 462 192 455 c 128,-1,63
 168 448 168 448 146 431 c 128,-1,64
 124 414 124 414 112 381 c 128,-1,65
 100 348 100 348 100 302 c 0,66,67
 100 259 100 259 111 228.5 c 128,-1,68
 122 198 122 198 141.5 183 c 128,-1,69
 161 168 161 168 182 161.5 c 128,-1,70
 203 155 203 155 228 155 c 0,71,72
 278 155 278 155 316 166 c 1,58,-1
336 287 m 1,73,-1
 74 287 l 1,74,-1
 74 329 l 1,75,-1
 336 329 l 1,76,-1
 336 287 l 1,73,-1
EndSplineSet
Validated: 5
EndChar

StartChar: roomen
Encoding: 57376 57376 42
Width: 588
GlyphClass: 2
Flags: W
AnchorPoint: "Anchor-1" 300 750 basechar 0
AnchorPoint: "Anchor-0" 300 -100 basechar 0
LayerCount: 2
Fore
SplineSet
337 122 m 2,0,1
 337 62 337 62 354 47.5 c 128,-1,2
 371 33 371 33 434 31 c 1,3,4
 438 26 438 26 438 14 c 128,-1,5
 438 2 438 2 434 -2 c 1,6,7
 334 0 334 0 295 0 c 0,8,9
 253 0 253 0 155 -2 c 1,10,11
 150 2 150 2 150 14 c 128,-1,12
 150 26 150 26 155 31 c 1,13,14
 218 33 218 33 235 47.5 c 128,-1,15
 252 62 252 62 252 122 c 2,16,-1
 252 249 l 2,17,18
 252 277 252 277 248 290.5 c 128,-1,19
 244 304 244 304 231 326 c 2,20,-1
 100 547 l 2,21,22
 75 588 75 588 57.5 600 c 128,-1,23
 40 612 40 612 6 614 c 1,24,25
 1 619 1 619 1 630.5 c 128,-1,26
 1 642 1 642 5 647 c 1,27,28
 65 645 65 645 107 645 c 128,-1,29
 149 645 149 645 221 647 c 1,30,31
 226 642 226 642 226 630 c 128,-1,32
 226 618 226 618 221 614 c 0,33,34
 180 612 180 612 173 601 c 128,-1,35
 166 590 166 590 185 559 c 2,36,-1
 301 354 l 2,37,38
 306 346 306 346 309 343 c 128,-1,39
 312 340 312 340 315.5 342 c 128,-1,40
 319 344 319 344 323 352 c 2,41,-1
 434 561 l 2,42,43
 448 591 448 591 439 601.5 c 128,-1,44
 430 612 430 612 395 614 c 0,45,46
 390 618 390 618 390 630 c 128,-1,47
 390 642 390 642 395 647 c 1,48,49
 459 645 459 645 486 645 c 128,-1,50
 513 645 513 645 569 647 c 1,51,52
 574 642 574 642 574 630 c 128,-1,53
 574 618 574 618 569 614 c 0,54,55
 533 611 533 611 513.5 598.5 c 128,-1,56
 494 586 494 586 474 550 c 2,57,-1
 355 334 l 2,58,59
 337 302 337 302 337 258 c 2,60,-1
 337 122 l 2,0,1
EndSplineSet
Validated: 33
EndChar

StartChar: arda
Encoding: 57377 57377 43
Width: 656
GlyphClass: 2
Flags: W
AnchorPoint: "Anchor-1" 340 750 basechar 0
AnchorPoint: "Anchor-0" 340 -100 basechar 0
LayerCount: 2
Fore
SplineSet
538 102 m 2,0,1
 569 59 569 59 588 46 c 128,-1,2
 607 33 607 33 639 31 c 1,3,4
 644 26 644 26 644 14.5 c 128,-1,5
 644 3 644 3 640 -2 c 1,6,7
 580 0 580 0 538 0 c 0,8,9
 498 0 498 0 424 -2 c 1,10,11
 420 2 420 2 420 14 c 128,-1,12
 420 26 420 26 424 31 c 1,13,14
 464 33 464 33 467.5 44 c 128,-1,15
 471 55 471 55 448 85 c 2,16,-1
 324 261 l 2,17,18
 316 272 316 272 310 272 c 0,19,20
 306 272 306 272 295 258 c 2,21,-1
 163 73 l 2,22,23
 154 60 154 60 152.5 52.5 c 128,-1,24
 151 45 151 45 157.5 40.5 c 128,-1,25
 164 36 164 36 174 34 c 128,-1,26
 184 32 184 32 202 31 c 1,27,28
 206 26 206 26 206 14 c 128,-1,29
 206 2 206 2 202 -2 c 1,30,31
 122 0 122 0 97 0 c 0,32,33
 67 0 67 0 7 -2 c 1,34,35
 2 2 2 2 2 14 c 128,-1,36
 2 26 2 26 7 31 c 1,37,38
 43 34 43 34 68.5 47 c 128,-1,39
 94 60 94 60 118 93 c 2,40,-1
 266 291 l 2,41,42
 276 304 276 304 276 314 c 0,43,44
 276 323 276 323 262 344 c 2,45,-1
 120 547 l 2,46,47
 91 589 91 589 72 600.5 c 128,-1,48
 53 612 53 612 18 614 c 1,49,50
 13 619 13 619 13 630.5 c 128,-1,51
 13 642 13 642 17 647 c 1,52,53
 77 645 77 645 119 645 c 0,54,55
 159 645 159 645 233 647 c 1,56,57
 238 642 238 642 238 630 c 128,-1,58
 238 618 238 618 233 614 c 0,59,60
 193 612 193 612 189.5 601 c 128,-1,61
 186 590 186 590 210 560 c 2,62,-1
 320 396 l 2,63,64
 328 385 328 385 332 385 c 0,65,66
 339 385 339 385 348 397 c 2,67,-1
 471 572 l 2,68,69
 486 597 486 597 477 604.5 c 128,-1,70
 468 612 468 612 432 614 c 0,71,72
 428 618 428 618 428 630 c 128,-1,73
 428 642 428 642 432 647 c 1,74,75
 512 645 512 645 537 645 c 0,76,77
 567 645 567 645 627 647 c 1,78,79
 632 642 632 642 632 630 c 128,-1,80
 632 618 632 618 627 614 c 0,81,82
 591 611 591 611 566 597.5 c 128,-1,83
 541 584 541 584 516 552 c 2,84,-1
 379 375 l 2,85,86
 369 362 369 362 369 345 c 0,87,88
 369 333 369 333 385 312 c 2,89,-1
 538 102 l 2,0,1
EndSplineSet
Validated: 33
EndChar

StartChar: lambe
Encoding: 57378 57378 44
Width: 692
GlyphClass: 2
Flags: W
AnchorPoint: "Anchor-1" 314 750 basechar 0
AnchorPoint: "Anchor-0" 424 -100 basechar 0
LayerCount: 2
Fore
SplineSet
310 0 m 2,0,1
 258 0 258 0 180 -2 c 1,2,3
 175 2 175 2 175 14 c 128,-1,4
 175 26 175 26 180 31 c 1,5,6
 236 33 236 33 251.5 47.5 c 128,-1,7
 267 62 267 62 267 122 c 2,8,-1
 267 523 l 2,9,10
 267 583 267 583 251.5 597.5 c 128,-1,11
 236 612 236 612 180 614 c 0,12,13
 175 618 175 618 175 630 c 128,-1,14
 175 642 175 642 180 647 c 1,15,16
 272 645 272 645 309 645 c 0,17,18
 349 645 349 645 439 647 c 1,19,20
 443 642 443 642 443 630 c 128,-1,21
 443 618 443 618 439 614 c 0,22,23
 383 612 383 612 367.5 597.5 c 128,-1,24
 352 583 352 583 352 523 c 2,25,-1
 352 109 l 2,26,27
 352 71 352 71 365.5 55 c 128,-1,28
 379 39 379 39 409 39 c 2,29,-1
 472 39 l 2,30,31
 545 39 545 39 581.5 73.5 c 128,-1,32
 618 108 618 108 635 170 c 1,33,34
 652 173 652 173 668 165 c 1,35,36
 658 78 658 78 642 -2 c 1,37,38
 550 0 550 0 523 0 c 2,39,-1
 310 0 l 2,0,1
272 509 m 1,40,41
 272 608 272 608 221 608 c 2,42,-1
 172 608 l 2,43,44
 120 608 120 608 87 583.5 c 128,-1,45
 54 559 54 559 40 502 c 1,46,47
 18 502 18 502 6 507 c 1,48,49
 26 593 26 593 31 652 c 0,50,51
 31 655 31 655 35 655 c 0,52,53
 136 647 136 647 268 647 c 2,54,-1
 354 647 l 2,55,56
 487 647 487 647 578 655 c 0,57,58
 581 655 581 655 581 652 c 0,59,60
 582 585 582 585 594 510 c 1,61,62
 583 505 583 505 560 505 c 1,63,64
 547 561 547 561 513 584.5 c 128,-1,65
 479 608 479 608 421 608 c 2,66,-1
 399 608 l 2,67,68
 349 608 349 608 349 506 c 1,69,-1
 272 509 l 1,40,41
EndSplineSet
Validated: 37
EndChar

StartChar: alda
Encoding: 57379 57379 45
Width: 634
GlyphClass: 2
Flags: W
AnchorPoint: "Anchor-1" 314 750 basechar 0
AnchorPoint: "Anchor-0" 314 -100 basechar 0
LayerCount: 2
Fore
SplineSet
567 631 m 1,0,-1
 404 624 l 2,1,2
 360 624 360 624 327 589.5 c 128,-1,3
 294 555 294 555 294 512 c 0,4,5
 294 488 294 488 305.5 466.5 c 128,-1,6
 317 445 317 445 332 431.5 c 128,-1,7
 347 418 347 418 372.5 404 c 128,-1,8
 398 390 398 390 413.5 383.5 c 128,-1,9
 429 377 429 377 454 368 c 0,10,11
 528 340 528 340 572 298 c 128,-1,12
 616 256 616 256 616 184 c 0,13,14
 616 136 616 136 591 93 c 128,-1,15
 566 50 566 50 522 23 c 0,16,17
 470 -10 470 -10 399 -10 c 0,18,19
 351 -10 351 -10 299 1.5 c 128,-1,20
 247 13 247 13 219 13 c 1,21,22
 204 76 204 76 199 165 c 1,23,24
 215 173 215 173 232 168 c 1,25,26
 264 26 264 26 407 26 c 0,27,28
 467 26 467 26 499.5 57.5 c 128,-1,29
 532 89 532 89 532 149 c 0,30,31
 532 184 532 184 521 209.5 c 128,-1,32
 510 235 510 235 486 252.5 c 128,-1,33
 462 270 462 270 445.5 278 c 128,-1,34
 429 286 429 286 398 298 c 0,35,36
 317 329 317 329 270 371.5 c 128,-1,37
 223 414 223 414 223 485 c 0,38,39
 223 562 223 562 278.5 610 c 128,-1,40
 334 658 334 658 413 658 c 0,41,42
 470 658 470 658 511.5 645.5 c 128,-1,43
 553 633 553 633 567 631 c 1,0,-1
215 623 m 1,44,-1
 166 623 l 2,45,46
 114 623 114 623 81 598.5 c 128,-1,47
 48 574 48 574 34 517 c 1,48,49
 13 517 13 517 0 522 c 1,50,51
 20 608 20 608 25 667 c 0,52,53
 25 670 25 670 29 670 c 0,54,55
 130 662 130 662 262 662 c 2,56,-1
 348 662 l 2,57,58
 481 662 481 662 572 670 c 0,59,60
 575 670 575 670 575 667 c 0,61,62
 577 601 577 601 588 525 c 1,63,64
 577 520 577 520 554 520 c 1,65,66
 542 576 542 576 508 599.5 c 128,-1,67
 474 623 474 623 415 623 c 2,68,-1
 393 623 l 1,69,-1
 215 623 l 1,44,-1
EndSplineSet
Validated: 37
EndChar

StartChar: silme
Encoding: 57380 57380 46
Width: 446
GlyphClass: 2
Flags: W
AnchorPoint: "Anchor-1" 220 750 basechar 0
AnchorPoint: "Anchor-0" 220 -100 basechar 0
LayerCount: 2
Fore
SplineSet
56 631 m 1,0,1
 70 633 70 633 111.5 645.5 c 128,-1,2
 153 658 153 658 210 658 c 0,3,4
 289 658 289 658 344.5 610 c 128,-1,5
 400 562 400 562 400 485 c 0,6,7
 400 414 400 414 353 371.5 c 128,-1,8
 306 329 306 329 225 298 c 0,9,10
 194 286 194 286 177.5 278 c 128,-1,11
 161 270 161 270 137 252.5 c 128,-1,12
 113 235 113 235 102 209.5 c 128,-1,13
 91 184 91 184 91 149 c 0,14,15
 91 89 91 89 123.5 57.5 c 128,-1,16
 156 26 156 26 216 26 c 0,17,18
 359 26 359 26 391 168 c 1,19,20
 408 173 408 173 424 165 c 1,21,22
 419 76 419 76 404 13 c 1,23,24
 376 13 376 13 324 1.5 c 128,-1,25
 272 -10 272 -10 224 -10 c 0,26,27
 154 -10 154 -10 101 23 c 0,28,29
 57 50 57 50 32 93 c 128,-1,30
 7 136 7 136 7 184 c 0,31,32
 7 256 7 256 51 298 c 128,-1,33
 95 340 95 340 169 368 c 0,34,35
 194 377 194 377 209.5 383.5 c 128,-1,36
 225 390 225 390 250.5 404 c 128,-1,37
 276 418 276 418 291 431.5 c 128,-1,38
 306 445 306 445 317.5 466.5 c 128,-1,39
 329 488 329 488 329 512 c 0,40,41
 329 555 329 555 296 589.5 c 128,-1,42
 263 624 263 624 219 624 c 0,43,44
 153 624 153 624 121 590 c 128,-1,45
 89 556 89 556 71 496 c 1,46,47
 51 492 51 492 38 502 c 1,48,49
 43 562 43 562 56 631 c 1,0,1
EndSplineSet
Validated: 33
EndChar

StartChar: silme_nuquerna
Encoding: 57381 57381 47
Width: 576
GlyphClass: 2
Flags: W
AnchorPoint: "Anchor-1" 296 750 basechar 0
AnchorPoint: "Anchor-0" 296 -100 basechar 0
LayerCount: 2
Fore
SplineSet
527 -2 m 1,0,1
 427 0 427 0 400 0 c 2,2,-1
 36 0 l 2,3,4
 17 0 17 0 17 15 c 0,5,6
 17 27 17 27 25 38 c 0,7,8
 105 157 105 157 224.5 323.5 c 128,-1,9
 344 490 344 490 414 579 c 0,10,11
 422 590 422 590 422 597 c 0,12,13
 422 606 422 606 412 606 c 2,14,-1
 201 602 l 2,15,16
 146 601 146 601 114.5 575 c 128,-1,17
 83 549 83 549 67 496 c 1,18,19
 54 496 54 496 37 501 c 1,20,21
 54 590 54 590 59 653 c 1,22,23
 158 645 158 645 240 645 c 2,24,-1
 461 645 l 2,25,26
 478 645 478 645 504 646 c 128,-1,27
 530 647 530 647 534 647 c 0,28,29
 547 647 547 647 547 636 c 0,30,31
 547 622 547 622 523 591 c 0,32,33
 367 390 367 390 148 72 c 0,34,35
 140 58 140 58 140 52 c 0,36,37
 140 38 140 38 165 38 c 2,38,-1
 358 42 l 2,39,40
 397 43 397 43 424.5 52 c 128,-1,41
 452 61 452 61 470.5 81.5 c 128,-1,42
 489 102 489 102 498.5 119 c 128,-1,43
 508 136 508 136 523 170 c 1,44,45
 536 170 536 170 554 165 c 1,46,47
 534 80 534 80 527 -2 c 1,0,1
EndSplineSet
Validated: 1
EndChar

StartChar: esse
Encoding: 57382 57382 48
Width: 554
GlyphClass: 2
Flags: W
AnchorPoint: "Anchor-1" 280 750 basechar 0
AnchorPoint: "Anchor-0" 280 -100 basechar 0
LayerCount: 2
Fore
SplineSet
372 603 m 2,0,-1
 146 603 l 1,1,-1
 364 328 l 1,2,-1
 363 323 l 1,3,-1
 103 43 l 1,4,-1
 380 43 l 2,5,6
 433 43 433 43 459.5 75 c 128,-1,7
 486 107 486 107 503 170 c 1,8,9
 521 173 521 173 536 165 c 1,10,11
 527 60 527 60 510 0 c 1,12,-1
 92 0 l 1,13,-1
 21 -2 l 1,14,15
 13 12 13 12 21 31 c 1,16,17
 36 35 36 35 50 52 c 2,18,-1
 271 309 l 1,19,-1
 273 310 l 1,20,-1
 78 576 l 2,21,22
 54 609 54 609 22 614 c 1,23,24
 20 619 20 619 19.5 630 c 128,-1,25
 19 641 19 641 22 646 c 1,26,-1
 123 645 l 1,27,-1
 496 645 l 1,28,29
 509 586 509 586 517 490 c 1,30,31
 502 482 502 482 484 485 c 1,32,33
 473 519 473 519 467 534 c 128,-1,34
 461 549 461 549 448.5 568.5 c 128,-1,35
 436 588 436 588 417.5 595.5 c 128,-1,36
 399 603 399 603 372 603 c 2,0,-1
EndSplineSet
Validated: 33
EndChar

StartChar: esse_nuquerna
Encoding: 57383 57383 49
Width: 606
GlyphClass: 2
Flags: W
AnchorPoint: "Anchor-1" 324 750 basechar 0
AnchorPoint: "Anchor-0" 324 -100 basechar 0
LayerCount: 2
Fore
SplineSet
518 0 m 2,0,-1
 94 0 l 2,1,2
 68 0 68 0 45 -4 c 0,3,4
 41 -4 41 -4 41 -1 c 0,5,6
 39 7 39 7 34 61 c 128,-1,7
 29 115 29 115 29 144 c 1,8,9
 44 152 44 152 62 149 c 1,10,11
 80 93 80 93 96 78 c 128,-1,12
 112 63 112 63 165 63 c 2,13,-1
 447 63 l 2,14,15
 500 63 500 63 516 78 c 128,-1,16
 532 93 532 93 550 149 c 1,17,18
 568 152 568 152 583 144 c 1,19,20
 583 117 583 117 578 62 c 128,-1,21
 573 7 573 7 571 -1 c 0,22,23
 571 -4 571 -4 567 -4 c 0,24,25
 544 0 544 0 518 0 c 2,0,-1
94 645 m 2,26,-1
 518 645 l 2,27,28
 544 645 544 645 567 649 c 0,29,30
 571 649 571 649 571 646 c 0,31,32
 573 638 573 638 578 584 c 128,-1,33
 583 530 583 530 583 501 c 1,34,35
 568 493 568 493 550 496 c 1,36,37
 532 552 532 552 516 567 c 128,-1,38
 500 582 500 582 447 582 c 2,39,-1
 165 582 l 2,40,41
 112 582 112 582 96 567 c 128,-1,42
 80 552 80 552 62 496 c 1,43,44
 44 493 44 493 29 501 c 1,45,46
 29 528 29 528 34 583 c 128,-1,47
 39 638 39 638 41 646 c 0,48,49
 41 649 41 649 45 649 c 0,50,51
 68 645 68 645 94 645 c 2,26,-1
250 348 m 2,52,-1
 362 348 l 2,53,54
 422 348 422 348 436.5 359 c 128,-1,55
 451 370 451 370 453 406 c 1,56,57
 458 410 458 410 470 410 c 128,-1,58
 482 410 482 410 486 406 c 1,59,60
 484 346 484 346 484 322 c 0,61,62
 484 304 484 304 486 234 c 1,63,64
 482 230 482 230 470 230 c 128,-1,65
 458 230 458 230 453 234 c 1,66,67
 451 255 451 255 447 265 c 128,-1,68
 443 275 443 275 422.5 283.5 c 128,-1,69
 402 292 402 292 362 292 c 2,70,-1
 250 292 l 2,71,72
 190 292 190 292 175.5 281 c 128,-1,73
 161 270 161 270 159 234 c 1,74,75
 154 230 154 230 142 230 c 128,-1,76
 130 230 130 230 126 234 c 1,77,78
 128 294 128 294 128 318 c 0,79,80
 128 336 128 336 126 406 c 1,81,82
 130 410 130 410 142 410 c 128,-1,83
 154 410 154 410 159 406 c 1,84,85
 161 385 161 385 165 375 c 128,-1,86
 169 365 169 365 189.5 356.5 c 128,-1,87
 210 348 210 348 250 348 c 2,52,-1
EndSplineSet
Validated: 33
EndChar

StartChar: hyarmen
Encoding: 57384 57384 50
Width: 594
GlyphClass: 2
Flags: W
AnchorPoint: "Anchor-1" 310 750 basechar 0
AnchorPoint: "Anchor-0" 310 -100 basechar 0
LayerCount: 2
Fore
SplineSet
237 523 m 2,0,1
 237 555 237 555 234 572 c 128,-1,2
 231 589 231 589 218.5 598.5 c 128,-1,3
 206 608 206 608 190 610.5 c 128,-1,4
 174 613 174 613 140 614 c 0,5,6
 136 618 136 618 136 630 c 128,-1,7
 136 642 136 642 140 647 c 1,8,9
 240 645 240 645 279 645 c 0,10,11
 321 645 321 645 419 647 c 1,12,13
 424 642 424 642 424 630 c 128,-1,14
 424 618 424 618 419 614 c 0,15,16
 385 613 385 613 369.5 610.5 c 128,-1,17
 354 608 354 608 341.5 598.5 c 128,-1,18
 329 589 329 589 325.5 572 c 128,-1,19
 322 555 322 555 322 523 c 2,20,-1
 322 396 l 2,21,22
 322 368 322 368 326 354.5 c 128,-1,23
 330 341 330 341 343 319 c 2,24,-1
 474 98 l 2,25,26
 499 57 499 57 517 45 c 128,-1,27
 535 33 535 33 568 31 c 1,28,29
 573 26 573 26 573.5 14.5 c 128,-1,30
 574 3 574 3 569 -2 c 1,31,32
 509 0 509 0 467 0 c 128,-1,33
 425 0 425 0 353 -2 c 1,34,35
 349 2 349 2 349 14 c 128,-1,36
 349 26 349 26 353 31 c 1,37,38
 395 33 395 33 401.5 44 c 128,-1,39
 408 55 408 55 389 86 c 2,40,-1
 273 291 l 2,41,42
 267 303 267 303 262.5 303.5 c 128,-1,43
 258 304 258 304 251 293 c 2,44,-1
 140 84 l 2,45,46
 127 54 127 54 136 43.5 c 128,-1,47
 145 33 145 33 179 31 c 1,48,49
 184 26 184 26 184 14 c 128,-1,50
 184 2 184 2 179 -2 c 1,51,52
 115 0 115 0 88 0 c 128,-1,53
 61 0 61 0 5 -2 c 1,54,55
 1 2 1 2 1 14 c 128,-1,56
 1 26 1 26 5 31 c 1,57,58
 41 34 41 34 60.5 46.5 c 128,-1,59
 80 59 80 59 100 95 c 2,60,-1
 219 311 l 2,61,62
 231 332 231 332 234 347 c 128,-1,63
 237 362 237 362 237 387 c 2,64,-1
 237 523 l 2,0,1
EndSplineSet
Validated: 33
EndChar

StartChar: hwesta_sindarinwa
Encoding: 57385 57385 51
Width: 558
GlyphClass: 2
Flags: W
AnchorPoint: "Anchor-1" 270 750 basechar 0
AnchorPoint: "Anchor-0" 270 -100 basechar 0
LayerCount: 2
Fore
SplineSet
432 122 m 2,0,1
 432 90 432 90 435 73 c 128,-1,2
 438 56 438 56 449.5 46.5 c 128,-1,3
 461 37 461 37 475 34.5 c 128,-1,4
 489 32 489 32 518 31 c 1,5,6
 523 26 523 26 523 14 c 128,-1,7
 523 2 523 2 518 -2 c 1,8,9
 440 0 440 0 388 0 c 0,10,11
 375 0 375 0 332.5 -1 c 128,-1,12
 290 -2 290 -2 272 -2 c 0,13,14
 144 -2 144 -2 79 48 c 128,-1,15
 14 98 14 98 14 193 c 0,16,17
 14 291 14 291 72 339 c 128,-1,18
 130 387 130 387 264 387 c 0,19,20
 306 387 306 387 346 383 c 1,21,-1
 346 523 l 2,22,23
 346 555 346 555 343 572 c 128,-1,24
 340 589 340 589 328.5 598.5 c 128,-1,25
 317 608 317 608 303 610.5 c 128,-1,26
 289 613 289 613 260 614 c 0,27,28
 255 618 255 618 255 630 c 128,-1,29
 255 642 255 642 260 647 c 1,30,31
 338 645 338 645 390 645 c 0,32,33
 438 645 438 645 518 647 c 1,34,35
 523 642 523 642 523 630 c 128,-1,36
 523 618 523 618 518 614 c 0,37,38
 489 613 489 613 475 610.5 c 128,-1,39
 461 608 461 608 449.5 598.5 c 128,-1,40
 438 589 438 589 435 572 c 128,-1,41
 432 555 432 555 432 523 c 2,42,-1
 432 122 l 2,0,1
270 31 m 0,43,44
 316 31 316 31 331 49 c 128,-1,45
 346 67 346 67 346 98 c 2,46,-1
 346 343 l 1,47,48
 314 346 314 346 286 346 c 0,49,50
 191 346 191 346 148.5 309 c 128,-1,51
 106 272 106 272 106 193 c 0,52,53
 106 31 106 31 270 31 c 0,43,44
EndSplineSet
Validated: 1
EndChar

StartChar: yanta
Encoding: 57386 57386 52
Width: 664
GlyphClass: 2
Flags: W
AnchorPoint: "Anchor-1" 340 750 basechar 0
AnchorPoint: "Anchor-0" 340 -100 basechar 0
LayerCount: 2
Fore
SplineSet
205 31 m 1,0,1
 210 26 210 26 210 14 c 128,-1,2
 210 2 210 2 205 -2 c 1,3,4
 123 0 123 0 96 0 c 0,5,6
 68 0 68 0 8 -2 c 1,7,8
 4 2 4 2 4 14 c 128,-1,9
 4 26 4 26 8 31 c 1,10,11
 38 34 38 34 58 49 c 128,-1,12
 78 64 78 64 86 79 c 128,-1,13
 94 94 94 94 106 124 c 2,14,-1
 313 634 l 2,15,16
 323 657 323 657 337 657 c 128,-1,17
 351 657 351 657 360 634 c 2,18,-1
 558 122 l 2,19,20
 579 67 579 67 593.5 51 c 128,-1,21
 608 35 608 35 647 31 c 1,22,23
 652 26 652 26 652 14.5 c 128,-1,24
 652 3 652 3 648 -2 c 1,25,26
 582 0 582 0 544 0 c 0,27,28
 503 0 503 0 423 -2 c 1,29,30
 418 2 418 2 418 14 c 128,-1,31
 418 26 418 26 423 31 c 1,32,33
 473 36 473 36 482.5 51.5 c 128,-1,34
 492 67 492 67 474 111 c 2,35,-1
 315 518 l 1,36,-1
 310 518 l 1,37,-1
 152 117 l 2,38,39
 133 77 133 77 143 56 c 128,-1,40
 153 35 153 35 205 31 c 1,0,1
EndSplineSet
Validated: 33
EndChar

StartChar: uure
Encoding: 57387 57387 53
Width: 656
GlyphClass: 2
Flags: W
AnchorPoint: "Anchor-1" 324 750 basechar 0
AnchorPoint: "Anchor-0" 324 -100 basechar 0
LayerCount: 2
Fore
SplineSet
640 329 m 0,0,1
 640 204 640 204 578 116 c 0,2,3
 489 -10 489 -10 324 -10 c 0,4,5
 192 -10 192 -10 101.5 78 c 128,-1,6
 11 166 11 166 11 310 c 0,7,8
 11 460 11 460 93.5 559 c 128,-1,9
 176 658 176 658 318 658 c 0,10,11
 457 658 457 658 548.5 569 c 128,-1,12
 640 480 640 480 640 329 c 0,0,1
305 622 m 0,13,14
 223 622 223 622 165 548 c 128,-1,15
 107 474 107 474 107 327 c 0,16,17
 107 189 107 189 177 107.5 c 128,-1,18
 247 26 247 26 344 26 c 0,19,20
 432 26 432 26 488 102.5 c 128,-1,21
 544 179 544 179 544 310 c 0,22,23
 544 456 544 456 476 539 c 128,-1,24
 408 622 408 622 305 622 c 0,13,14
EndSplineSet
Validated: 1
EndChar

StartChar: aara
Encoding: 57388 57388 54
Width: 376
GlyphClass: 2
Flags: W
AnchorPoint: "Anchor-1" 204 750 basechar 0
AnchorPoint: "Anchor-0" 204 -200 basechar 0
LayerCount: 2
Fore
SplineSet
236 523 m 2,0,-1
 236 103 l 2,1,2
 236 52 236 52 227 12.5 c 128,-1,3
 218 -27 218 -27 200.5 -54 c 128,-1,4
 183 -81 183 -81 169.5 -96 c 128,-1,5
 156 -111 156 -111 134 -129 c 0,6,7
 84 -172 84 -172 17 -172 c 0,8,9
 -5 -172 -5 -172 -31.5 -157 c 128,-1,10
 -58 -142 -58 -142 -58 -118 c 0,11,12
 -58 -103 -58 -103 -42 -89 c 128,-1,13
 -26 -75 -26 -75 -14 -75 c 0,14,15
 14 -75 14 -75 26 -100 c 0,16,17
 39 -127 39 -127 66 -127 c 0,18,19
 86 -127 86 -127 103 -114 c 128,-1,20
 120 -101 120 -101 135.5 -51.5 c 128,-1,21
 151 -2 151 -2 151 81 c 2,22,-1
 151 523 l 2,23,24
 151 583 151 583 134 597.5 c 128,-1,25
 117 612 117 612 54 614 c 0,26,27
 50 618 50 618 50 630 c 128,-1,28
 50 642 50 642 54 647 c 1,29,30
 154 645 154 645 193 645 c 0,31,32
 237 645 237 645 313 647 c 1,33,34
 318 642 318 642 318 630 c 128,-1,35
 318 618 318 618 313 614 c 0,36,37
 265 612 265 612 250.5 597 c 128,-1,38
 236 582 236 582 236 523 c 2,0,-1
EndSplineSet
Validated: 1
EndChar

StartChar: halla
Encoding: 57389 57389 55
Width: 286
GlyphClass: 2
Flags: W
AnchorPoint: "Anchor-1" 138 750 basechar 0
AnchorPoint: "Anchor-0" 138 -150 basechar 0
LayerCount: 2
Fore
SplineSet
48 23 m 0,0,1
 48 63 48 63 47 116 c 128,-1,2
 46 169 46 169 46 209 c 2,3,-1
 46 340 l 2,4,5
 46 698 46 698 210 698 c 0,6,7
 232 698 232 698 247.5 685.5 c 128,-1,8
 263 673 263 673 263 655 c 0,9,10
 263 639 263 639 250 627.5 c 128,-1,11
 237 616 237 616 219 616 c 0,12,13
 202 616 202 616 187 632.5 c 128,-1,14
 172 649 172 649 161 649 c 0,15,16
 120 649 120 649 120 479 c 0,17,18
 120 456 120 456 122 391.5 c 128,-1,19
 124 327 124 327 124 294 c 2,20,-1
 124 175 l 2,21,22
 124 27 124 27 103 -62.5 c 128,-1,23
 82 -152 82 -152 48 -186.5 c 128,-1,24
 14 -221 14 -221 -38 -221 c 0,25,26
 -62 -221 -62 -221 -77 -209 c 128,-1,27
 -92 -197 -92 -197 -92 -178 c 0,28,29
 -92 -163 -92 -163 -80 -152 c 128,-1,30
 -68 -141 -68 -141 -53 -141 c 128,-1,31
 -38 -141 -38 -141 -20 -156.5 c 128,-1,32
 -2 -172 -2 -172 5 -172 c 0,33,34
 24 -172 24 -172 36 -108 c 128,-1,35
 48 -44 48 -44 48 23 c 0,0,1
EndSplineSet
Validated: 1
EndChar

StartChar: telco
Encoding: 57390 57390 56
Width: 410
GlyphClass: 2
Flags: W
AnchorPoint: "Anchor-1" 216 750 basechar 0
AnchorPoint: "Anchor-0" 216 -100 basechar 0
LayerCount: 2
Fore
SplineSet
257 122 m 2,0,1
 257 62 257 62 272.5 47.5 c 128,-1,2
 288 33 288 33 344 31 c 1,3,4
 348 26 348 26 348 14 c 128,-1,5
 348 2 348 2 344 -2 c 1,6,7
 254 0 254 0 215 0 c 0,8,9
 175 0 175 0 85 -2 c 1,10,11
 80 2 80 2 80 14 c 128,-1,12
 80 26 80 26 85 31 c 1,13,14
 141 33 141 33 156.5 47.5 c 128,-1,15
 172 62 172 62 172 122 c 2,16,-1
 172 523 l 2,17,18
 172 583 172 583 156.5 597.5 c 128,-1,19
 141 612 141 612 85 614 c 0,20,21
 80 618 80 618 80 630 c 128,-1,22
 80 642 80 642 85 647 c 1,23,24
 179 645 179 645 214 645 c 0,25,26
 256 645 256 645 344 647 c 1,27,28
 348 642 348 642 348 630 c 128,-1,29
 348 618 348 618 344 614 c 0,30,31
 288 612 288 612 272.5 597.5 c 128,-1,32
 257 583 257 583 257 523 c 2,33,-1
 257 122 l 2,0,1
EndSplineSet
Validated: 1
EndChar

StartChar: stemless_tinco
Encoding: 57392 57392 57
Width: 606
GlyphClass: 2
Flags: W
AnchorPoint: "Anchor-1" 274 750 basechar 0
AnchorPoint: "Anchor-0" 274 -100 basechar 0
LayerCount: 2
Fore
SplineSet
263 658 m 0,0,1
 417 658 417 658 500 567 c 128,-1,2
 583 476 583 476 583 338 c 0,3,4
 583 260 583 260 555 190.5 c 128,-1,5
 527 121 527 121 477 75 c 0,6,7
 384 -10 384 -10 262 -10 c 0,8,9
 190 -10 190 -10 121.5 12 c 128,-1,10
 53 34 53 34 43 35 c 1,11,12
 28 118 28 118 21 190 c 1,13,14
 39 200 39 200 54 195 c 1,15,16
 105 27 105 27 273 27 c 0,17,18
 360 27 360 27 433 116 c 0,19,20
 492 190 492 190 492 319 c 0,21,22
 492 434 492 434 426.5 525.5 c 128,-1,23
 361 617 361 617 264 617 c 0,24,25
 194 617 194 617 139.5 591.5 c 128,-1,26
 85 566 85 566 32 508 c 1,27,28
 17 508 17 508 9 523 c 1,29,30
 112 658 112 658 263 658 c 0,0,1
EndSplineSet
Validated: 33
EndChar

StartChar: stemless_parma
Encoding: 57393 57393 58
Width: 778
GlyphClass: 2
Flags: W
AnchorPoint: "Anchor-1" 300 750 basechar 0
AnchorPoint: "Anchor-0" 300 -100 basechar 0
LayerCount: 2
Fore
SplineSet
261 658 m 0,0,1
 415 658 415 658 498 567 c 128,-1,2
 581 476 581 476 581 338 c 0,3,4
 581 260 581 260 553 190.5 c 128,-1,5
 525 121 525 121 475 75 c 0,6,7
 386 -6 386 -6 260 -6 c 0,8,9
 205 -6 205 -6 164 -2 c 128,-1,10
 123 2 123 2 89 8 c 128,-1,11
 55 14 55 14 41 15 c 1,12,13
 26 98 26 98 19 170 c 1,14,15
 37 180 37 180 52 175 c 1,16,17
 73 105 73 105 123 68 c 128,-1,18
 173 31 173 31 271 31 c 0,19,20
 361 31 361 31 431 116 c 0,21,22
 490 190 490 190 490 319 c 0,23,24
 490 434 490 434 424.5 525.5 c 128,-1,25
 359 617 359 617 262 617 c 0,26,27
 192 617 192 617 137.5 591.5 c 128,-1,28
 83 566 83 566 30 508 c 1,29,30
 15 508 15 508 7 523 c 1,31,32
 110 658 110 658 261 658 c 0,0,1
399 -2 m 2,33,34
 347 -2 347 -2 269 -4 c 1,35,36
 265 0 265 0 265 12 c 128,-1,37
 265 24 265 24 269 29 c 1,38,-1
 498 37 l 1,39,-1
 561 37 l 2,40,41
 635 37 635 37 671 71.5 c 128,-1,42
 707 106 707 106 724 168 c 1,43,44
 742 171 742 171 757 163 c 1,45,46
 747 75 747 75 731 -4 c 1,47,48
 639 -2 639 -2 612 -2 c 2,49,-1
 399 -2 l 2,33,34
EndSplineSet
Validated: 37
EndChar

StartChar: osse
Encoding: 57394 57394 59
Width: 609
GlyphClass: 2
Flags: W
AnchorPoint: "Anchor-1" 316 750 basechar 0
AnchorPoint: "Anchor-0" 316 -100 basechar 0
LayerCount: 2
Fore
SplineSet
333 -10 m 0,0,1
 179 -10 179 -10 96 81 c 128,-1,2
 13 172 13 172 13 310 c 0,3,4
 13 388 13 388 41 457.5 c 128,-1,5
 69 527 69 527 119 573 c 0,6,7
 212 658 212 658 334 658 c 0,8,9
 406 658 406 658 474.5 636 c 128,-1,10
 543 614 543 614 553 613 c 1,11,12
 568 530 568 530 575 458 c 1,13,14
 557 448 557 448 542 453 c 1,15,16
 491 621 491 621 323 621 c 0,17,18
 236 621 236 621 163 532 c 0,19,20
 104 458 104 458 104 329 c 0,21,22
 104 214 104 214 169.5 122.5 c 128,-1,23
 235 31 235 31 332 31 c 0,24,25
 402 31 402 31 456.5 56.5 c 128,-1,26
 511 82 511 82 564 140 c 1,27,28
 579 140 579 140 587 125 c 1,29,30
 484 -10 484 -10 333 -10 c 0,0,1
EndSplineSet
Validated: 33
EndChar

StartChar: stemless_quesse
Encoding: 57395 57395 60
Width: 612
GlyphClass: 2
Flags: W
AnchorPoint: "Anchor-1" 300 750 basechar 0
AnchorPoint: "Anchor-0" 300 -100 basechar 0
LayerCount: 2
Fore
SplineSet
350 122 m 2,0,1
 350 62 350 62 367 47.5 c 128,-1,2
 384 33 384 33 447 31 c 1,3,4
 452 26 452 26 452 14 c 128,-1,5
 452 2 452 2 447 -2 c 1,6,7
 347 0 347 0 308 0 c 0,8,9
 266 0 266 0 168 -2 c 1,10,11
 164 2 164 2 164 14 c 128,-1,12
 164 26 164 26 168 31 c 1,13,14
 231 33 231 33 248 47.5 c 128,-1,15
 265 62 265 62 265 122 c 2,16,-1
 265 507 l 2,17,18
 265 556 265 556 254.5 581 c 128,-1,19
 244 606 244 606 218 606 c 2,20,-1
 169 606 l 2,21,22
 117 606 117 606 84 582 c 128,-1,23
 51 558 51 558 37 500 c 1,24,25
 16 500 16 500 3 505 c 1,26,27
 23 591 23 591 28 650 c 0,28,29
 28 653 28 653 32 653 c 0,30,31
 133 645 133 645 265 645 c 2,32,-1
 351 645 l 2,33,34
 484 645 484 645 575 653 c 0,35,36
 578 653 578 653 578 650 c 0,37,38
 579 584 579 584 591 508 c 1,39,40
 580 503 580 503 557 503 c 1,41,42
 545 559 545 559 511 582.5 c 128,-1,43
 477 606 477 606 418 606 c 2,44,-1
 396 606 l 2,45,46
 370 606 370 606 360 580.5 c 128,-1,47
 350 555 350 555 350 504 c 2,48,-1
 350 122 l 2,0,1
EndSplineSet
Validated: 1
EndChar

StartChar: telco_ligating
Encoding: 57396 57396 61
Width: 410
GlyphClass: 2
Flags: W
AnchorPoint: "Anchor-1" 216 750 basechar 0
AnchorPoint: "Anchor-0" 216 -100 basechar 0
LayerCount: 2
Fore
SplineSet
257 122 m 2,0,1
 257 62 257 62 272.5 47.5 c 128,-1,2
 288 33 288 33 344 31 c 1,3,4
 348 26 348 26 348 14 c 128,-1,5
 348 2 348 2 344 -2 c 1,6,7
 254 0 254 0 215 0 c 0,8,9
 175 0 175 0 85 -2 c 1,10,11
 80 2 80 2 80 14 c 128,-1,12
 80 26 80 26 85 31 c 1,13,14
 141 33 141 33 156.5 47.5 c 128,-1,15
 172 62 172 62 172 122 c 2,16,-1
 172 523 l 2,17,18
 172 583 172 583 156.5 597.5 c 128,-1,19
 141 612 141 612 85 614 c 0,20,21
 80 618 80 618 80 630 c 128,-1,22
 80 642 80 642 85 647 c 1,23,24
 179 645 179 645 214 645 c 0,25,26
 256 645 256 645 344 647 c 1,27,28
 348 642 348 642 348 630 c 128,-1,29
 348 618 348 618 344 614 c 0,30,31
 288 612 288 612 272.5 597.5 c 128,-1,32
 257 583 257 583 257 523 c 2,33,-1
 257 122 l 2,0,1
EndSplineSet
Validated: 1
EndChar

StartChar: anna_sindarinwa
Encoding: 57397 57397 62
Width: 664
GlyphClass: 2
Flags: W
AnchorPoint: "Anchor-1" 350 750 basechar 0
AnchorPoint: "Anchor-0" 320 -100 basechar 0
LayerCount: 2
Fore
SplineSet
448 614 m 0,0,1
 444 618 444 618 444 630 c 128,-1,2
 444 642 444 642 448 647 c 1,3,4
 530 645 530 645 557 645 c 0,5,6
 585 645 585 645 645 647 c 1,7,8
 650 642 650 642 650 630 c 128,-1,9
 650 618 650 618 645 614 c 0,10,11
 615 611 615 611 595 596 c 128,-1,12
 575 581 575 581 567 566 c 128,-1,13
 559 551 559 551 547 521 c 2,14,-1
 340 11 l 2,15,16
 330 -12 330 -12 316 -12 c 128,-1,17
 302 -12 302 -12 293 11 c 2,18,-1
 96 523 l 2,19,20
 74 578 74 578 59.5 594 c 128,-1,21
 45 610 45 610 6 614 c 1,22,23
 1 619 1 619 1 630.5 c 128,-1,24
 1 642 1 642 5 647 c 1,25,26
 71 645 71 645 109 645 c 0,27,28
 150 645 150 645 230 647 c 1,29,30
 234 642 234 642 234 630 c 128,-1,31
 234 618 234 618 230 614 c 0,32,33
 180 609 180 609 170.5 594 c 128,-1,34
 161 579 161 579 179 534 c 2,35,-1
 339 127 l 1,36,-1
 343 127 l 1,37,-1
 501 528 l 2,38,39
 520 568 520 568 510 589 c 128,-1,40
 500 610 500 610 448 614 c 0,0,1
EndSplineSet
Validated: 33
EndChar

StartChar: anna_open
Encoding: 57398 57398 63
Width: 674
GlyphClass: 2
Flags: W
AnchorPoint: "Anchor-1" 330 750 basechar 0
AnchorPoint: "Anchor-0" 330 -100 basechar 0
LayerCount: 2
Fore
SplineSet
172 523 m 2,0,-1
 172 266 l 2,1,2
 172 224 172 224 174 197 c 128,-1,3
 176 170 176 170 188 135 c 128,-1,4
 200 100 200 100 223 78 c 0,5,6
 272 31 272 31 342 31 c 0,7,8
 391 31 391 31 426 46.5 c 128,-1,9
 461 62 461 62 480 84.5 c 128,-1,10
 499 107 499 107 510 142.5 c 128,-1,11
 521 178 521 178 523.5 207.5 c 128,-1,12
 526 237 526 237 526 277 c 2,13,-1
 526 523 l 2,14,15
 526 554 526 554 523 570.5 c 128,-1,16
 520 587 520 587 507.5 596.5 c 128,-1,17
 495 606 495 606 481 608.5 c 128,-1,18
 467 611 467 611 434 614 c 0,19,20
 430 618 430 618 430 630 c 128,-1,21
 430 642 430 642 434 647 c 1,22,23
 526 645 526 645 550 645 c 0,24,25
 576 645 576 645 652 647 c 1,26,27
 656 642 656 642 656 630 c 128,-1,28
 656 618 656 618 652 614 c 0,29,30
 603 608 603 608 589 594 c 128,-1,31
 575 580 575 580 575 523 c 2,32,-1
 575 295 l 2,33,34
 575 224 575 224 564 171.5 c 128,-1,35
 553 119 553 119 525.5 76.5 c 128,-1,36
 498 34 498 34 447 12 c 128,-1,37
 396 -10 396 -10 321 -10 c 0,38,39
 278 -10 278 -10 240.5 0 c 128,-1,40
 203 10 203 10 166.5 34.5 c 128,-1,41
 130 59 130 59 108.5 109.5 c 128,-1,42
 87 160 87 160 87 233 c 2,43,-1
 87 523 l 2,44,45
 87 582 87 582 72.5 597 c 128,-1,46
 58 612 58 612 10 614 c 0,47,48
 6 618 6 618 6 630 c 128,-1,49
 6 642 6 642 10 647 c 1,50,51
 88 645 88 645 129 645 c 128,-1,52
 170 645 170 645 264 647 c 1,53,54
 268 642 268 642 268 630 c 128,-1,55
 268 618 268 618 264 614 c 0,56,57
 204 612 204 612 188 597.5 c 128,-1,58
 172 583 172 583 172 523 c 2,0,-1
EndSplineSet
Validated: 1
EndChar

StartChar: christopher_qu
Encoding: 57399 57399 64
Width: 540
GlyphClass: 2
Flags: W
AnchorPoint: "Anchor-1" 250 750 basechar 0
AnchorPoint: "Anchor-0" 250 -100 basechar 0
LayerCount: 2
Fore
SplineSet
416 523 m 2,0,-1
 416 122 l 2,1,2
 416 90 416 90 419 73 c 128,-1,3
 422 56 422 56 433.5 46.5 c 128,-1,4
 445 37 445 37 459 34.5 c 128,-1,5
 473 32 473 32 502 31 c 1,6,7
 507 26 507 26 507 14 c 128,-1,8
 507 2 507 2 502 -2 c 1,9,10
 412 0 412 0 372 0 c 0,11,12
 328 0 328 0 228 -2 c 1,13,14
 224 2 224 2 224 14 c 128,-1,15
 224 26 224 26 228 31 c 1,16,17
 263 33 263 33 278.5 35.5 c 128,-1,18
 294 38 294 38 308 47 c 128,-1,19
 322 56 322 56 326 73.5 c 128,-1,20
 330 91 330 91 330 122 c 2,21,-1
 330 292 l 1,22,23
 299 282 299 282 250 282 c 0,24,25
 197 282 197 282 155 295 c 128,-1,26
 113 308 113 308 87 329 c 128,-1,27
 61 350 61 350 43.5 377.5 c 128,-1,28
 26 405 26 405 19 432 c 128,-1,29
 12 459 12 459 12 486 c 0,30,31
 12 506 12 506 17.5 526 c 128,-1,32
 23 546 23 546 38.5 569.5 c 128,-1,33
 54 593 54 593 77.5 610.5 c 128,-1,34
 101 628 101 628 142.5 640 c 128,-1,35
 184 652 184 652 236 652 c 0,36,37
 255 652 255 652 304 648.5 c 128,-1,38
 353 645 353 645 374 645 c 0,39,40
 422 645 422 645 502 647 c 1,41,42
 507 642 507 642 507 630 c 128,-1,43
 507 618 507 618 502 614 c 0,44,45
 473 613 473 613 459 610.5 c 128,-1,46
 445 608 445 608 433.5 598.5 c 128,-1,47
 422 589 422 589 419 572 c 128,-1,48
 416 555 416 555 416 523 c 2,0,-1
330 554 m 2,49,50
 330 618 330 618 244 618 c 0,51,52
 215 618 215 618 192.5 612 c 128,-1,53
 170 606 170 606 149 591 c 128,-1,54
 128 576 128 576 117 545 c 128,-1,55
 106 514 106 514 106 468 c 0,56,57
 106 389 106 389 143 352.5 c 128,-1,58
 180 316 180 316 254 316 c 0,59,60
 312 316 312 316 330 321 c 1,61,-1
 330 554 l 2,49,50
EndSplineSet
Validated: 1
EndChar

StartChar: formen_reversed
Encoding: 57400 57400 65
Width: 558
GlyphClass: 2
Flags: W
AnchorPoint: "Anchor-1" 270 750 basechar 0
AnchorPoint: "Anchor-0" 270 -100 basechar 0
LayerCount: 2
Fore
SplineSet
432 122 m 2,0,1
 432 90 432 90 435 73 c 128,-1,2
 438 56 438 56 449.5 46.5 c 128,-1,3
 461 37 461 37 475 34.5 c 128,-1,4
 489 32 489 32 518 31 c 1,5,6
 523 26 523 26 523 14 c 128,-1,7
 523 2 523 2 518 -2 c 1,8,9
 440 0 440 0 388 0 c 0,10,11
 375 0 375 0 332.5 -1 c 128,-1,12
 290 -2 290 -2 272 -2 c 0,13,14
 144 -2 144 -2 79 48 c 128,-1,15
 14 98 14 98 14 193 c 0,16,17
 14 291 14 291 72 339 c 128,-1,18
 130 387 130 387 264 387 c 0,19,20
 306 387 306 387 346 383 c 1,21,-1
 346 523 l 2,22,23
 346 555 346 555 343 572 c 128,-1,24
 340 589 340 589 328.5 598.5 c 128,-1,25
 317 608 317 608 303 610.5 c 128,-1,26
 289 613 289 613 260 614 c 0,27,28
 255 618 255 618 255 630 c 128,-1,29
 255 642 255 642 260 647 c 1,30,31
 338 645 338 645 390 645 c 0,32,33
 438 645 438 645 518 647 c 1,34,35
 523 642 523 642 523 630 c 128,-1,36
 523 618 523 618 518 614 c 0,37,38
 489 613 489 613 475 610.5 c 128,-1,39
 461 608 461 608 449.5 598.5 c 128,-1,40
 438 589 438 589 435 572 c 128,-1,41
 432 555 432 555 432 523 c 2,42,-1
 432 122 l 2,0,1
270 31 m 0,43,44
 316 31 316 31 331 49 c 128,-1,45
 346 67 346 67 346 98 c 2,46,-1
 346 343 l 1,47,48
 314 346 314 346 286 346 c 0,49,50
 191 346 191 346 148.5 309 c 128,-1,51
 106 272 106 272 106 193 c 0,52,53
 106 31 106 31 270 31 c 0,43,44
EndSplineSet
Validated: 1
EndChar

StartChar: bombadil_hw
Encoding: 57401 57401 66
Width: 594
GlyphClass: 2
Flags: W
AnchorPoint: "Anchor-1" 310 750 basechar 0
AnchorPoint: "Anchor-0" 310 -100 basechar 0
LayerCount: 2
Fore
SplineSet
237 523 m 2,0,1
 237 555 237 555 234 572 c 128,-1,2
 231 589 231 589 218.5 598.5 c 128,-1,3
 206 608 206 608 190 610.5 c 128,-1,4
 174 613 174 613 140 614 c 0,5,6
 136 618 136 618 136 630 c 128,-1,7
 136 642 136 642 140 647 c 1,8,9
 240 645 240 645 279 645 c 0,10,11
 321 645 321 645 419 647 c 1,12,13
 424 642 424 642 424 630 c 128,-1,14
 424 618 424 618 419 614 c 0,15,16
 385 613 385 613 369.5 610.5 c 128,-1,17
 354 608 354 608 341.5 598.5 c 128,-1,18
 329 589 329 589 325.5 572 c 128,-1,19
 322 555 322 555 322 523 c 2,20,-1
 322 396 l 2,21,22
 322 368 322 368 326 354.5 c 128,-1,23
 330 341 330 341 343 319 c 2,24,-1
 474 98 l 2,25,26
 499 57 499 57 517 45 c 128,-1,27
 535 33 535 33 568 31 c 1,28,29
 573 26 573 26 573.5 14.5 c 128,-1,30
 574 3 574 3 569 -2 c 1,31,32
 509 0 509 0 467 0 c 128,-1,33
 425 0 425 0 353 -2 c 1,34,35
 349 2 349 2 349 14 c 128,-1,36
 349 26 349 26 353 31 c 1,37,38
 395 33 395 33 401.5 44 c 128,-1,39
 408 55 408 55 389 86 c 2,40,-1
 273 291 l 2,41,42
 267 303 267 303 262.5 303.5 c 128,-1,43
 258 304 258 304 251 293 c 2,44,-1
 140 84 l 2,45,46
 127 54 127 54 136 43.5 c 128,-1,47
 145 33 145 33 179 31 c 1,48,49
 184 26 184 26 184 14 c 128,-1,50
 184 2 184 2 179 -2 c 1,51,52
 115 0 115 0 88 0 c 128,-1,53
 61 0 61 0 5 -2 c 1,54,55
 1 2 1 2 1 14 c 128,-1,56
 1 26 1 26 5 31 c 1,57,58
 41 34 41 34 60.5 46.5 c 128,-1,59
 80 59 80 59 100 95 c 2,60,-1
 219 311 l 2,61,62
 231 332 231 332 234 347 c 128,-1,63
 237 362 237 362 237 387 c 2,64,-1
 237 523 l 2,0,1
EndSplineSet
Validated: 33
EndChar

StartChar: tengwa_mh
Encoding: 57402 57402 67
Width: 966
GlyphClass: 2
Flags: W
AnchorPoint: "Anchor-1" 480 750 basechar 0
AnchorPoint: "Anchor-0" 480 -100 basechar 0
LayerCount: 2
Fore
SplineSet
863 523 m 2,0,-1
 863 122 l 2,1,2
 863 83 863 83 871 62.5 c 128,-1,3
 879 42 879 42 887 37.5 c 128,-1,4
 895 33 895 33 911 31 c 0,5,6
 939 28 939 28 941 11 c 0,7,8
 947 -61 947 -61 947 -141 c 1,9,10
 930 -154 930 -154 914 -142 c 1,11,12
 902 -83 902 -83 865.5 -41.5 c 128,-1,13
 829 0 829 0 775 0 c 2,14,-1
 149 0 l 2,15,16
 97 0 97 0 19 -2 c 1,17,18
 14 2 14 2 14 14 c 128,-1,19
 14 26 14 26 19 31 c 1,20,21
 75 33 75 33 90.5 47.5 c 128,-1,22
 106 62 106 62 106 122 c 2,23,-1
 106 523 l 2,24,25
 106 583 106 583 90.5 597.5 c 128,-1,26
 75 612 75 612 19 614 c 0,27,28
 14 618 14 618 14 630 c 128,-1,29
 14 642 14 642 19 647 c 1,30,31
 99 645 99 645 148 645 c 0,32,33
 200 645 200 645 278 647 c 1,34,35
 282 642 282 642 282 630 c 128,-1,36
 282 618 282 618 278 614 c 0,37,38
 222 612 222 612 206.5 597.5 c 128,-1,39
 191 583 191 583 191 523 c 2,40,-1
 191 122 l 2,41,42
 191 65 191 65 203 51 c 128,-1,43
 215 37 215 37 250 37 c 2,44,-1
 389 37 l 2,45,46
 420 37 420 37 430 50.5 c 128,-1,47
 440 64 440 64 440 122 c 2,48,-1
 440 523 l 2,49,50
 440 583 440 583 424.5 597.5 c 128,-1,51
 409 612 409 612 353 614 c 0,52,53
 348 618 348 618 348 630 c 128,-1,54
 348 642 348 642 353 647 c 1,55,56
 433 645 433 645 482 645 c 0,57,58
 534 645 534 645 612 647 c 1,59,60
 616 642 616 642 616 630 c 128,-1,61
 616 618 616 618 612 614 c 0,62,63
 556 612 556 612 540.5 597.5 c 128,-1,64
 525 583 525 583 525 523 c 2,65,-1
 525 122 l 2,66,67
 525 65 525 65 536.5 51 c 128,-1,68
 548 37 548 37 580 37 c 2,69,-1
 709 37 l 2,70,71
 754 37 754 37 766 50 c 128,-1,72
 778 63 778 63 778 122 c 2,73,-1
 778 523 l 2,74,75
 778 583 778 583 762.5 597.5 c 128,-1,76
 747 612 747 612 691 614 c 0,77,78
 686 618 686 618 686 630 c 128,-1,79
 686 642 686 642 691 647 c 1,80,81
 769 645 769 645 821 645 c 0,82,83
 870 645 870 645 950 647 c 1,84,85
 954 642 954 642 954 630 c 128,-1,86
 954 618 954 618 950 614 c 0,87,88
 894 612 894 612 878.5 597.5 c 128,-1,89
 863 583 863 583 863 523 c 2,0,-1
EndSplineSet
Validated: 33
EndChar

StartChar: tengwa_mh_beleriand
Encoding: 57403 57403 68
Width: 666
GlyphClass: 2
Flags: W
AnchorPoint: "Anchor-1" 330 750 basechar 0
AnchorPoint: "Anchor-0" 330 -100 basechar 0
LayerCount: 2
Fore
SplineSet
558 523 m 2,0,-1
 558 122 l 2,1,2
 558 83 558 83 566 62.5 c 128,-1,3
 574 42 574 42 582 37.5 c 128,-1,4
 590 33 590 33 606 31 c 0,5,6
 634 28 634 28 636 11 c 0,7,8
 642 -61 642 -61 642 -141 c 1,9,10
 625 -154 625 -154 609 -142 c 1,11,12
 597 -83 597 -83 560.5 -41.5 c 128,-1,13
 524 0 524 0 470 0 c 2,14,-1
 144 0 l 2,15,16
 112 0 112 0 14 -2 c 1,17,18
 10 2 10 2 10 14 c 128,-1,19
 10 26 10 26 14 31 c 1,20,21
 70 33 70 33 85.5 47.5 c 128,-1,22
 101 62 101 62 101 122 c 2,23,-1
 101 523 l 2,24,25
 101 583 101 583 85.5 597.5 c 128,-1,26
 70 612 70 612 14 614 c 0,27,28
 10 618 10 618 10 630 c 128,-1,29
 10 642 10 642 14 647 c 1,30,31
 94 645 94 645 143 645 c 0,32,33
 195 645 195 645 273 647 c 1,34,35
 278 642 278 642 278 630 c 128,-1,36
 278 618 278 618 273 614 c 0,37,38
 217 612 217 612 201.5 597.5 c 128,-1,39
 186 583 186 583 186 523 c 2,40,-1
 186 89 l 2,41,42
 186 66 186 66 198.5 52.5 c 128,-1,43
 211 39 211 39 233 39 c 2,44,-1
 436 39 l 2,45,46
 461 39 461 39 467 52 c 128,-1,47
 473 65 473 65 473 122 c 2,48,-1
 473 523 l 2,49,50
 473 583 473 583 457.5 597.5 c 128,-1,51
 442 612 442 612 386 614 c 0,52,53
 382 618 382 618 382 630 c 128,-1,54
 382 642 382 642 386 647 c 1,55,56
 466 645 466 645 515 645 c 0,57,58
 567 645 567 645 645 647 c 1,59,60
 650 642 650 642 650 630 c 128,-1,61
 650 618 650 618 645 614 c 0,62,63
 589 612 589 612 573.5 597.5 c 128,-1,64
 558 583 558 583 558 523 c 2,0,-1
EndSplineSet
Validated: 33
EndChar

StartChar: lowdham_hw
Encoding: 57404 57404 69
Width: 588
GlyphClass: 2
Flags: W
AnchorPoint: "Anchor-1" 300 750 basechar 0
AnchorPoint: "Anchor-0" 300 -100 basechar 0
LayerCount: 2
Fore
SplineSet
337 122 m 2,0,1
 337 62 337 62 354 47.5 c 128,-1,2
 371 33 371 33 434 31 c 1,3,4
 438 26 438 26 438 14 c 128,-1,5
 438 2 438 2 434 -2 c 1,6,7
 334 0 334 0 295 0 c 0,8,9
 253 0 253 0 155 -2 c 1,10,11
 150 2 150 2 150 14 c 128,-1,12
 150 26 150 26 155 31 c 1,13,14
 218 33 218 33 235 47.5 c 128,-1,15
 252 62 252 62 252 122 c 2,16,-1
 252 249 l 2,17,18
 252 277 252 277 248 290.5 c 128,-1,19
 244 304 244 304 231 326 c 2,20,-1
 100 547 l 2,21,22
 75 588 75 588 57.5 600 c 128,-1,23
 40 612 40 612 6 614 c 1,24,25
 1 619 1 619 1 630.5 c 128,-1,26
 1 642 1 642 5 647 c 1,27,28
 65 645 65 645 107 645 c 128,-1,29
 149 645 149 645 221 647 c 1,30,31
 226 642 226 642 226 630 c 128,-1,32
 226 618 226 618 221 614 c 0,33,34
 180 612 180 612 173 601 c 128,-1,35
 166 590 166 590 185 559 c 2,36,-1
 301 354 l 2,37,38
 306 346 306 346 309 343 c 128,-1,39
 312 340 312 340 315.5 342 c 128,-1,40
 319 344 319 344 323 352 c 2,41,-1
 434 561 l 2,42,43
 448 591 448 591 439 601.5 c 128,-1,44
 430 612 430 612 395 614 c 0,45,46
 390 618 390 618 390 630 c 128,-1,47
 390 642 390 642 395 647 c 1,48,49
 459 645 459 645 486 645 c 128,-1,50
 513 645 513 645 569 647 c 1,51,52
 574 642 574 642 574 630 c 128,-1,53
 574 618 574 618 569 614 c 0,54,55
 533 611 533 611 513.5 598.5 c 128,-1,56
 494 586 494 586 474 550 c 2,57,-1
 355 334 l 2,58,59
 337 302 337 302 337 258 c 2,60,-1
 337 122 l 2,0,1
EndSplineSet
Validated: 33
EndChar

StartChar: vaiya
Encoding: 57405 57405 70
Width: 674
GlyphClass: 2
Flags: W
AnchorPoint: "Anchor-1" 308 750 basechar 0
AnchorPoint: "Anchor-0" 308 -200 basechar 0
LayerCount: 2
Fore
SplineSet
644 329 m 0,0,1
 644 204 644 204 582 116 c 0,2,3
 513 16 513 16 387 -5 c 1,4,5
 322 -23 322 -23 256 -71 c 1,6,7
 263 -70 263 -70 276 -70 c 0,8,9
 337 -70 337 -70 431 -114 c 0,10,11
 511 -152 511 -152 555 -152 c 0,12,13
 612 -152 612 -152 642 -115 c 1,14,-1
 659 -127 l 1,15,16
 602 -209 602 -209 515 -209 c 0,17,18
 441 -209 441 -209 347 -155 c 0,19,20
 274 -114 274 -114 229 -114 c 0,21,22
 212 -114 212 -114 194 -127 c 1,23,24
 171 -152 171 -152 156 -173 c 1,25,-1
 117 -153 l 1,26,27
 125 -140 125 -140 135 -130 c 0,28,29
 200 -52 200 -52 287 -8 c 1,30,31
 170 7 170 7 92.5 92.5 c 128,-1,32
 15 178 15 178 15 310 c 0,33,34
 15 460 15 460 97.5 559 c 128,-1,35
 180 658 180 658 322 658 c 0,36,37
 461 658 461 658 552.5 569 c 128,-1,38
 644 480 644 480 644 329 c 0,0,1
309 622 m 0,39,40
 227 622 227 622 169 548 c 128,-1,41
 111 474 111 474 111 327 c 0,42,43
 111 189 111 189 181 107.5 c 128,-1,44
 251 26 251 26 348 26 c 0,45,46
 436 26 436 26 492 102.5 c 128,-1,47
 548 179 548 179 548 310 c 0,48,49
 548 456 548 456 480 539 c 128,-1,50
 412 622 412 622 309 622 c 0,39,40
EndSplineSet
Validated: 1
EndChar

StartChar: tripledot_above
Encoding: 57408 57408 71
AltUni2: 00e831.00fe00.0
Width: 0
GlyphClass: 4
Flags: W
AnchorPoint: "Anchor-3" 157 950 basemark 0
AnchorPoint: "Anchor-3" 157 700 mark 0
AnchorPoint: "Anchor-1" 157 700 mark 0
LayerCount: 2
Fore
SplineSet
25 725 m 0,0,1
 25 745 25 745 39 759 c 128,-1,2
 53 773 53 773 72 773 c 128,-1,3
 91 773 91 773 105 759 c 128,-1,4
 119 745 119 745 119 725 c 0,5,6
 119 706 119 706 105 692 c 128,-1,7
 91 678 91 678 72 678 c 128,-1,8
 53 678 53 678 39 692 c 128,-1,9
 25 706 25 706 25 725 c 0,0,1
194 725 m 0,10,11
 194 745 194 745 208 759 c 128,-1,12
 222 773 222 773 241 773 c 128,-1,13
 260 773 260 773 274 759 c 128,-1,14
 288 745 288 745 288 725 c 0,15,16
 288 706 288 706 274.5 692 c 128,-1,17
 261 678 261 678 241 678 c 128,-1,18
 221 678 221 678 207.5 692 c 128,-1,19
 194 706 194 706 194 725 c 0,10,11
110 856 m 256,20,21
 110 876 110 876 124 890 c 128,-1,22
 138 904 138 904 157 904 c 128,-1,23
 176 904 176 904 190 890 c 128,-1,24
 204 876 204 876 204 856 c 256,25,26
 204 836 204 836 190 822 c 128,-1,27
 176 808 176 808 157 808 c 128,-1,28
 138 808 138 808 124 822 c 128,-1,29
 110 836 110 836 110 856 c 256,20,21
EndSplineSet
Validated: 1048577
EndChar

StartChar: tripledot_below
Encoding: 57409 57409 72
Width: 0
GlyphClass: 4
Flags: W
AnchorPoint: "Anchor-2" 158 -350 basemark 0
AnchorPoint: "Anchor-2" 158 -100 mark 0
AnchorPoint: "Anchor-0" 158 -100 mark 0
LayerCount: 2
Fore
SplineSet
25 -96 m 0,0,1
 25 -77 25 -77 39 -63 c 128,-1,2
 53 -49 53 -49 72 -49 c 128,-1,3
 91 -49 91 -49 105 -63 c 128,-1,4
 119 -77 119 -77 119 -96 c 0,5,6
 119 -116 119 -116 105 -130 c 128,-1,7
 91 -144 91 -144 72 -144 c 128,-1,8
 53 -144 53 -144 39 -130 c 128,-1,9
 25 -116 25 -116 25 -96 c 0,0,1
194 -96 m 0,10,11
 194 -77 194 -77 207.5 -63 c 128,-1,12
 221 -49 221 -49 241 -49 c 128,-1,13
 261 -49 261 -49 274.5 -63 c 128,-1,14
 288 -77 288 -77 288 -96 c 0,15,16
 288 -116 288 -116 274 -130 c 128,-1,17
 260 -144 260 -144 241 -144 c 128,-1,18
 222 -144 222 -144 208 -130 c 128,-1,19
 194 -116 194 -116 194 -96 c 0,10,11
110 -227 m 0,20,21
 110 -208 110 -208 124 -194 c 128,-1,22
 138 -180 138 -180 157 -180 c 128,-1,23
 176 -180 176 -180 190 -194 c 128,-1,24
 204 -208 204 -208 204 -227 c 0,25,26
 204 -247 204 -247 190 -261 c 128,-1,27
 176 -275 176 -275 157 -275 c 128,-1,28
 138 -275 138 -275 124 -261 c 128,-1,29
 110 -247 110 -247 110 -227 c 0,20,21
EndSplineSet
Validated: 1048577
EndChar

StartChar: doubledot_above
Encoding: 57410 57410 73
Width: 0
GlyphClass: 4
Flags: W
AnchorPoint: "Anchor-3" 177 850 basemark 0
AnchorPoint: "Anchor-3" 177 700 mark 0
AnchorPoint: "Anchor-1" 177 700 mark 0
LayerCount: 2
Fore
SplineSet
50 725 m 0,0,1
 50 745 50 745 64 759 c 128,-1,2
 78 773 78 773 97 773 c 128,-1,3
 116 773 116 773 130 759 c 128,-1,4
 144 745 144 745 144 725 c 0,5,6
 144 706 144 706 130 692 c 128,-1,7
 116 678 116 678 97 678 c 128,-1,8
 78 678 78 678 64 692 c 128,-1,9
 50 706 50 706 50 725 c 0,0,1
219 725 m 0,10,11
 219 745 219 745 233 759 c 128,-1,12
 247 773 247 773 266 773 c 128,-1,13
 285 773 285 773 299 759 c 128,-1,14
 313 745 313 745 313 725 c 0,15,16
 313 706 313 706 299.5 692 c 128,-1,17
 286 678 286 678 266 678 c 128,-1,18
 246 678 246 678 232.5 692 c 128,-1,19
 219 706 219 706 219 725 c 0,10,11
EndSplineSet
Validated: 1048577
Ligature2: "'liga' Standard Ligatures lookup 0 subtable" amatixe amatixe
EndChar

StartChar: doubledot_below
Encoding: 57411 57411 74
Width: 0
GlyphClass: 4
Flags: W
AnchorPoint: "Anchor-2" 182 -200 basemark 0
AnchorPoint: "Anchor-2" 182 -100 mark 0
AnchorPoint: "Anchor-0" 182 -100 mark 0
LayerCount: 2
Fore
SplineSet
50 -95 m 0,0,1
 50 -75 50 -75 64 -61 c 128,-1,2
 78 -47 78 -47 97 -47 c 128,-1,3
 116 -47 116 -47 130 -61 c 128,-1,4
 144 -75 144 -75 144 -95 c 0,5,6
 144 -114 144 -114 130 -128 c 128,-1,7
 116 -142 116 -142 97 -142 c 128,-1,8
 78 -142 78 -142 64 -128 c 128,-1,9
 50 -114 50 -114 50 -95 c 0,0,1
219 -95 m 0,10,11
 219 -75 219 -75 233 -61 c 128,-1,12
 247 -47 247 -47 266 -47 c 128,-1,13
 285 -47 285 -47 299 -61 c 128,-1,14
 313 -75 313 -75 313 -95 c 0,15,16
 313 -114 313 -114 299.5 -128 c 128,-1,17
 286 -142 286 -142 266 -142 c 128,-1,18
 246 -142 246 -142 232.5 -128 c 128,-1,19
 219 -114 219 -114 219 -95 c 0,10,11
EndSplineSet
Validated: 1048577
Ligature2: "'liga' Standard Ligatures lookup 0 subtable" unutixe unutixe
EndChar

StartChar: amatixe
Encoding: 57412 57412 75
Width: 0
GlyphClass: 4
Flags: W
AnchorPoint: "Anchor-3" 97 850 basemark 0
AnchorPoint: "Anchor-3" 97 700 mark 0
AnchorPoint: "Anchor-1" 97 700 mark 0
LayerCount: 2
Fore
SplineSet
50 725 m 0,0,1
 50 745 50 745 64 759 c 128,-1,2
 78 773 78 773 97 773 c 128,-1,3
 116 773 116 773 130 759 c 128,-1,4
 144 745 144 745 144 725 c 0,5,6
 144 706 144 706 130 692 c 128,-1,7
 116 678 116 678 97 678 c 128,-1,8
 78 678 78 678 64 692 c 128,-1,9
 50 706 50 706 50 725 c 0,0,1
EndSplineSet
Validated: 1048577
EndChar

StartChar: unutixe
Encoding: 57413 57413 76
Width: 0
GlyphClass: 4
Flags: W
AnchorPoint: "Anchor-2" 98 -200 basemark 0
AnchorPoint: "Anchor-2" 98 -100 mark 0
AnchorPoint: "Anchor-0" 98 -100 mark 0
LayerCount: 2
Fore
SplineSet
50 -95 m 0,0,1
 50 -75 50 -75 64 -61 c 128,-1,2
 78 -47 78 -47 97 -47 c 128,-1,3
 116 -47 116 -47 130 -61 c 128,-1,4
 144 -75 144 -75 144 -95 c 0,5,6
 144 -114 144 -114 130 -128 c 128,-1,7
 116 -142 116 -142 97 -142 c 128,-1,8
 78 -142 78 -142 64 -128 c 128,-1,9
 50 -114 50 -114 50 -95 c 0,0,1
EndSplineSet
Validated: 1048577
EndChar

StartChar: tecco_above
Encoding: 57414 57414 77
Width: 0
GlyphClass: 4
Flags: W
AnchorPoint: "Anchor-3" 100 900 basemark 0
AnchorPoint: "Anchor-3" 100 700 mark 0
AnchorPoint: "Anchor-1" 100 700 mark 0
LayerCount: 2
Fore
SplineSet
168 848 m 2,0,1
 174 850 174 850 182 850 c 0,2,3
 213 850 213 850 237 827 c 1,4,-1
 240 816 l 1,5,-1
 125 707 l 2,6,7
 106 688 106 688 95 688 c 0,8,9
 90 688 90 688 85.5 692 c 128,-1,10
 81 696 81 696 81 701 c 0,11,12
 81 711 81 711 92 729 c 2,13,-1
 168 848 l 2,0,1
EndSplineSet
Validated: 1048577
EndChar

StartChar: tecco_below
Encoding: 57415 57415 78
Width: 0
GlyphClass: 4
Flags: W
AnchorPoint: "Anchor-2" 158 -300 basemark 0
AnchorPoint: "Anchor-2" 158 -100 mark 0
AnchorPoint: "Anchor-0" 158 -100 mark 0
LayerCount: 2
Fore
SplineSet
93 -240 m 2,0,1
 87 -242 87 -242 79 -242 c 0,2,3
 48 -242 48 -242 24 -219 c 1,4,-1
 21 -208 l 1,5,-1
 136 -99 l 2,6,7
 155 -80 155 -80 166 -80 c 0,8,9
 171 -80 171 -80 175.5 -84 c 128,-1,10
 180 -88 180 -88 180 -93 c 0,11,12
 180 -103 180 -103 169 -121 c 2,13,-1
 93 -240 l 2,0,1
EndSplineSet
Validated: 1048577
EndChar

StartChar: tecco_above_double
Encoding: 57416 57416 79
Width: 0
GlyphClass: 4
Flags: W
AnchorPoint: "Anchor-3" 100 900 basemark 0
AnchorPoint: "Anchor-3" 100 700 mark 0
AnchorPoint: "Anchor-1" 100 700 mark 0
LayerCount: 2
Fore
SplineSet
311 831 m 0,0,1
 311 819 311 819 304 812 c 2,2,-1
 190 702 l 2,3,4
 188 700 188 700 184 700 c 128,-1,5
 180 700 180 700 175 704 c 128,-1,6
 170 708 170 708 170 713 c 0,7,8
 170 716 170 716 171 717 c 2,9,-1
 249 856 l 2,10,11
 256 868 256 868 273 868 c 0,12,13
 288 868 288 868 299.5 857 c 128,-1,14
 311 846 311 846 311 831 c 0,0,1
179 837 m 0,15,16
 179 827 179 827 174 821 c 2,17,-1
 72 700 l 2,18,19
 69 697 69 697 64 697 c 0,20,21
 50 697 50 697 50 710 c 0,22,23
 50 712 50 712 51 713 c 2,24,-1
 115 859 l 2,25,26
 121 873 121 873 141 873 c 0,27,28
 157 873 157 873 168 863 c 128,-1,29
 179 853 179 853 179 837 c 0,15,16
EndSplineSet
Validated: 1048577
Ligature2: "'liga' Standard Ligatures lookup 0 subtable" tecco_above tecco_above
EndChar

StartChar: tecco_below_double
Encoding: 57417 57417 80
Width: 0
GlyphClass: 4
Flags: W
AnchorPoint: "Anchor-2" 238 -300 basemark 0
AnchorPoint: "Anchor-2" 238 -100 mark 0
AnchorPoint: "Anchor-0" 238 -100 mark 0
LayerCount: 2
Fore
SplineSet
50 -221 m 0,0,1
 50 -209 50 -209 57 -202 c 2,2,-1
 171 -92 l 2,3,4
 173 -90 173 -90 177 -90 c 128,-1,5
 181 -90 181 -90 186 -94 c 128,-1,6
 191 -98 191 -98 191 -103 c 0,7,8
 191 -106 191 -106 190 -107 c 2,9,-1
 112 -246 l 2,10,11
 105 -258 105 -258 88 -258 c 0,12,13
 73 -258 73 -258 61.5 -247 c 128,-1,14
 50 -236 50 -236 50 -221 c 0,0,1
182 -227 m 0,15,16
 182 -217 182 -217 187 -211 c 2,17,-1
 289 -90 l 2,18,19
 292 -87 292 -87 297 -87 c 0,20,21
 311 -87 311 -87 311 -100 c 0,22,23
 311 -102 311 -102 310 -103 c 2,24,-1
 246 -249 l 2,25,26
 240 -263 240 -263 220 -263 c 0,27,28
 204 -263 204 -263 193 -253 c 128,-1,29
 182 -243 182 -243 182 -227 c 0,15,16
EndSplineSet
Validated: 1048577
Ligature2: "'liga' Standard Ligatures lookup 0 subtable" tecco_below tecco_below
EndChar

StartChar: rightcurl_above
Encoding: 57418 57418 81
Width: 0
GlyphClass: 4
Flags: W
AnchorPoint: "Anchor-3" 111 1000 basemark 0
AnchorPoint: "Anchor-3" 111 700 mark 0
AnchorPoint: "Anchor-1" 111 700 mark 0
LayerCount: 2
Fore
SplineSet
170 892 m 0,0,1
 211 892 211 892 245 865.5 c 128,-1,2
 279 839 279 839 279 807 c 0,3,4
 279 797 279 797 271.5 789 c 128,-1,5
 264 781 264 781 253 781 c 128,-1,6
 242 781 242 781 232 790 c 128,-1,7
 222 799 222 799 222 812 c 0,8,9
 222 828 222 828 209 842 c 128,-1,10
 196 856 196 856 178 856 c 0,11,12
 131 856 131 856 131 748 c 2,13,-1
 131 643 l 1,14,-1
 92 643 l 1,15,-1
 92 773 l 2,16,17
 92 892 92 892 170 892 c 0,0,1
EndSplineSet
Validated: 1048577
EndChar

StartChar: rightcurl_below
Encoding: 57419 57419 82
Width: 0
GlyphClass: 4
Flags: W
AnchorPoint: "Anchor-2" 132 -400 basemark 0
AnchorPoint: "Anchor-2" 132 -100 mark 0
AnchorPoint: "Anchor-0" 132 -100 mark 0
LayerCount: 2
Fore
SplineSet
190 -347 m 0,0,1
 112 -347 112 -347 112 -228 c 2,2,-1
 112 -98 l 1,3,-1
 151 -98 l 1,4,-1
 151 -203 l 2,5,6
 151 -311 151 -311 198 -311 c 0,7,8
 216 -311 216 -311 229 -297 c 128,-1,9
 242 -283 242 -283 242 -267 c 0,10,11
 242 -254 242 -254 252 -245 c 128,-1,12
 262 -236 262 -236 273 -236 c 128,-1,13
 284 -236 284 -236 291.5 -244 c 128,-1,14
 299 -252 299 -252 299 -262 c 0,15,16
 299 -294 299 -294 265 -320.5 c 128,-1,17
 231 -347 231 -347 190 -347 c 0,0,1
EndSplineSet
Validated: 1048577
EndChar

StartChar: leftcurl_above
Encoding: 57420 57420 83
Width: 0
GlyphClass: 4
Flags: W
AnchorPoint: "Anchor-3" 211 1000 basemark 0
AnchorPoint: "Anchor-3" 211 700 mark 0
AnchorPoint: "Anchor-1" 211 700 mark 0
LayerCount: 2
Fore
SplineSet
148 868 m 0,0,1
 130 868 130 868 117 854 c 128,-1,2
 104 840 104 840 104 824 c 0,3,4
 104 811 104 811 94 802 c 128,-1,5
 84 793 84 793 73 793 c 128,-1,6
 62 793 62 793 54.5 801 c 128,-1,7
 47 809 47 809 47 819 c 0,8,9
 47 850 47 850 80.5 877 c 128,-1,10
 114 904 114 904 156 904 c 0,11,12
 234 904 234 904 234 785 c 2,13,-1
 234 653 l 1,14,-1
 195 653 l 1,15,-1
 195 760 l 2,16,17
 195 868 195 868 148 868 c 0,0,1
EndSplineSet
Validated: 1048577
EndChar

StartChar: leftcurl_below
Encoding: 57421 57421 84
Width: 0
GlyphClass: 4
Flags: W
AnchorPoint: "Anchor-2" 175 -400 basemark 0
AnchorPoint: "Anchor-2" 175 -100 mark 0
AnchorPoint: "Anchor-0" 175 -100 mark 0
LayerCount: 2
Fore
SplineSet
108 -311 m 0,0,1
 155 -311 155 -311 155 -203 c 2,2,-1
 155 -96 l 1,3,-1
 194 -96 l 1,4,-1
 194 -228 l 2,5,6
 194 -347 194 -347 116 -347 c 0,7,8
 74 -347 74 -347 40.5 -320 c 128,-1,9
 7 -293 7 -293 7 -262 c 0,10,11
 7 -252 7 -252 14.5 -244 c 128,-1,12
 22 -236 22 -236 33 -236 c 128,-1,13
 44 -236 44 -236 54 -245 c 128,-1,14
 64 -254 64 -254 64 -267 c 0,15,16
 64 -283 64 -283 77 -297 c 128,-1,17
 90 -311 90 -311 108 -311 c 0,0,1
EndSplineSet
Validated: 1048577
EndChar

StartChar: bar_above
Encoding: 57424 57424 85
Width: 603
GlyphClass: 4
Flags: W
AnchorPoint: "Anchor-3" 307 850 basemark 0
AnchorPoint: "Anchor-3" 307 700 mark 0
AnchorPoint: "Anchor-1" 307 700 mark 0
LayerCount: 2
Fore
SplineSet
518 670 m 2,0,-1
 94 670 l 2,1,2
 68 670 68 670 45 666 c 0,3,4
 41 666 41 666 41 669 c 0,5,6
 39 677 39 677 34 731 c 128,-1,7
 29 785 29 785 29 814 c 1,8,9
 44 822 44 822 62 819 c 1,10,11
 80 763 80 763 96 748 c 128,-1,12
 112 733 112 733 165 733 c 2,13,-1
 447 733 l 2,14,15
 500 733 500 733 516 748 c 128,-1,16
 532 763 532 763 550 819 c 1,17,18
 568 822 568 822 583 814 c 1,19,20
 583 787 583 787 578 732 c 128,-1,21
 573 677 573 677 571 669 c 0,22,23
 571 666 571 666 567 666 c 0,24,25
 544 670 544 670 518 670 c 2,0,-1
EndSplineSet
Validated: 1048609
EndChar

StartChar: bar_below
Encoding: 57425 57425 86
Width: 606
GlyphClass: 4
Flags: W
AnchorPoint: "Anchor-2" 308 -300 basemark 0
AnchorPoint: "Anchor-2" 308 -100 mark 0
AnchorPoint: "Anchor-0" 308 -100 mark 0
LayerCount: 2
Fore
SplineSet
94 -65 m 2,0,-1
 518 -65 l 2,1,2
 544 -65 544 -65 567 -61 c 0,3,4
 571 -61 571 -61 571 -64 c 0,5,6
 573 -72 573 -72 578 -126 c 128,-1,7
 583 -180 583 -180 583 -209 c 1,8,9
 568 -217 568 -217 550 -214 c 1,10,11
 532 -158 532 -158 516 -143 c 128,-1,12
 500 -128 500 -128 447 -128 c 2,13,-1
 165 -128 l 2,14,15
 112 -128 112 -128 96 -143 c 128,-1,16
 80 -158 80 -158 62 -214 c 1,17,18
 44 -217 44 -217 29 -209 c 1,19,20
 29 -182 29 -182 34 -127 c 128,-1,21
 39 -72 39 -72 41 -64 c 0,22,23
 41 -61 41 -61 45 -61 c 0,24,25
 68 -65 68 -65 94 -65 c 2,0,-1
EndSplineSet
Validated: 1048609
EndChar

StartChar: tengwa_tilde
Encoding: 57426 57426 87
Width: 0
GlyphClass: 4
Flags: W
AnchorPoint: "Anchor-3" 157 850 basemark 0
AnchorPoint: "Anchor-3" 157 700 mark 0
AnchorPoint: "Anchor-1" 157 700 mark 0
LayerCount: 2
Fore
SplineSet
209 697 m 4,0,1
 226 697 226 697 236 686.5 c 132,-1,2
 246 676 246 676 256 645 c 5,3,4
 272 644 272 644 283 651 c 5,5,6
 263 750 263 750 196 750 c 4,7,8
 190 750 190 750 183.5 748.5 c 132,-1,9
 177 747 177 747 169.5 743 c 132,-1,10
 162 739 162 739 157.5 736 c 132,-1,11
 153 733 153 733 144.5 726.5 c 132,-1,12
 136 720 136 720 132 718 c 4,13,14
 101 699 101 699 78 699 c 4,15,16
 59 699 59 699 49.5 710 c 132,-1,17
 40 721 40 721 32 747 c 5,18,19
 13 750 13 750 5 742 c 5,20,21
 28 644 28 644 85 644 c 4,22,23
 94 644 94 644 101.5 646 c 132,-1,24
 109 648 109 648 118 652.5 c 132,-1,25
 127 657 127 657 131 659.5 c 132,-1,26
 135 662 135 662 145 669.5 c 132,-1,27
 155 677 155 677 157 678 c 4,28,29
 182 697 182 697 209 697 c 4,0,1
EndSplineSet
Validated: 1048585
EndChar

StartChar: tehta_breve
Encoding: 57427 57427 88
Width: 0
GlyphClass: 4
Flags: W
AnchorPoint: "Anchor-3" 140 850 basemark 0
AnchorPoint: "Anchor-3" 140 700 mark 0
AnchorPoint: "Anchor-1" 140 700 mark 0
LayerCount: 2
Fore
SplineSet
33 776 m 1,0,1
 41 736 41 736 71 711 c 128,-1,2
 101 686 101 686 141 686 c 128,-1,3
 181 686 181 686 211.5 710 c 128,-1,4
 242 734 242 734 249 776 c 1,5,-1
 276 764 l 1,6,7
 267 702 267 702 227.5 665.5 c 128,-1,8
 188 629 188 629 141 629 c 0,9,10
 88 629 88 629 52 664.5 c 128,-1,11
 16 700 16 700 6 764 c 1,12,-1
 33 776 l 1,0,1
EndSplineSet
Validated: 1048577
EndChar

StartChar: tehta_grave
Encoding: 57428 57428 89
Width: 0
GlyphClass: 4
Flags: W
AnchorPoint: "Anchor-3" 160 900 basemark 0
AnchorPoint: "Anchor-3" 160 700 mark 0
AnchorPoint: "Anchor-1" 160 700 mark 0
LayerCount: 2
Fore
SplineSet
104 848 m 1,0,-1
 174 722 l 2,1,2
 180 710 180 710 180 698 c 0,3,4
 180 694 180 694 175.5 690.5 c 128,-1,5
 171 687 171 687 165 687 c 0,6,7
 157 687 157 687 136 707 c 2,8,-1
 22 816 l 1,9,-1
 24 827 l 1,10,11
 55 850 55 850 89 850 c 0,12,13
 96 850 96 850 104 848 c 1,0,-1
EndSplineSet
Validated: 1048577
EndChar

StartChar: yanta_above
Encoding: 57429 57429 90
Width: 3
GlyphClass: 4
Flags: W
AnchorPoint: "Anchor-3" 130 850 basemark 0
AnchorPoint: "Anchor-3" 130 700 mark 0
AnchorPoint: "Anchor-1" 130 700 mark 0
LayerCount: 2
Fore
SplineSet
144 811 m 1,0,1
 181 751 181 751 253 671 c 1,2,3
 243 657 243 657 230 654 c 1,4,5
 172 691 172 691 127 737 c 1,6,7
 71 681 71 681 23 654 c 1,8,9
 10 657 10 657 1 671 c 1,10,11
 77 755 77 755 112 811 c 1,12,13
 131 814 131 814 144 811 c 1,0,1
EndSplineSet
Validated: 1048609
EndChar

StartChar: tripledot_above_inverted
Encoding: 57430 57430 91
Width: 0
GlyphClass: 4
Flags: W
AnchorPoint: "Anchor-3" 157 950 basemark 0
AnchorPoint: "Anchor-3" 157 700 mark 0
AnchorPoint: "Anchor-1" 157 700 mark 0
LayerCount: 2
Fore
SplineSet
25 826 m 256,0,1
 25 846 25 846 39 860 c 128,-1,2
 53 874 53 874 72 874 c 128,-1,3
 91 874 91 874 105 860 c 128,-1,4
 119 846 119 846 119 826 c 256,5,6
 119 806 119 806 105 792 c 128,-1,7
 91 778 91 778 72 778 c 128,-1,8
 53 778 53 778 39 792 c 128,-1,9
 25 806 25 806 25 826 c 256,0,1
194 826 m 256,10,11
 194 846 194 846 207.5 860 c 128,-1,12
 221 874 221 874 241 874 c 128,-1,13
 261 874 261 874 274.5 860 c 128,-1,14
 288 846 288 846 288 826 c 256,15,16
 288 806 288 806 274 792 c 128,-1,17
 260 778 260 778 241 778 c 128,-1,18
 222 778 222 778 208 792 c 128,-1,19
 194 806 194 806 194 826 c 256,10,11
110 696 m 0,20,21
 110 715 110 715 124 729 c 128,-1,22
 138 743 138 743 157 743 c 128,-1,23
 176 743 176 743 190 729 c 128,-1,24
 204 715 204 715 204 696 c 0,25,26
 204 676 204 676 190 662 c 128,-1,27
 176 648 176 648 157 648 c 128,-1,28
 138 648 138 648 124 662 c 128,-1,29
 110 676 110 676 110 696 c 0,20,21
EndSplineSet
Validated: 1048577
EndChar

StartChar: thinnas
Encoding: 57431 57431 92
Width: 376
GlyphClass: 2
Flags: W
AnchorPoint: "Anchor-1" 204 750 basechar 0
AnchorPoint: "Anchor-0" 204 -200 basechar 0
LayerCount: 2
Fore
SplineSet
236 523 m 2,0,-1
 236 103 l 2,1,2
 236 52 236 52 227 12.5 c 128,-1,3
 218 -27 218 -27 200.5 -54 c 128,-1,4
 183 -81 183 -81 169.5 -96 c 128,-1,5
 156 -111 156 -111 134 -129 c 0,6,7
 84 -172 84 -172 17 -172 c 0,8,9
 -5 -172 -5 -172 -31.5 -157 c 128,-1,10
 -58 -142 -58 -142 -58 -118 c 0,11,12
 -58 -103 -58 -103 -42 -89 c 128,-1,13
 -26 -75 -26 -75 -14 -75 c 0,14,15
 14 -75 14 -75 26 -100 c 0,16,17
 39 -127 39 -127 66 -127 c 0,18,19
 86 -127 86 -127 103 -114 c 128,-1,20
 120 -101 120 -101 135.5 -51.5 c 128,-1,21
 151 -2 151 -2 151 81 c 2,22,-1
 151 523 l 2,23,24
 151 583 151 583 134 597.5 c 128,-1,25
 117 612 117 612 54 614 c 0,26,27
 50 618 50 618 50 630 c 128,-1,28
 50 642 50 642 54 647 c 1,29,30
 154 645 154 645 193 645 c 0,31,32
 237 645 237 645 313 647 c 1,33,34
 318 642 318 642 318 630 c 128,-1,35
 318 618 318 618 313 614 c 0,36,37
 265 612 265 612 250.5 597 c 128,-1,38
 236 582 236 582 236 523 c 2,0,-1
EndSplineSet
Validated: 1
EndChar

StartChar: sarince_end
Encoding: 57432 57432 93
Width: 446
GlyphClass: 2
Flags: W
AnchorPoint: "Anchor-1" 220 750 basechar 0
AnchorPoint: "Anchor-0" 220 -100 basechar 0
LayerCount: 2
Fore
SplineSet
56 631 m 1,0,1
 70 633 70 633 111.5 645.5 c 128,-1,2
 153 658 153 658 210 658 c 0,3,4
 289 658 289 658 344.5 610 c 128,-1,5
 400 562 400 562 400 485 c 0,6,7
 400 414 400 414 353 371.5 c 128,-1,8
 306 329 306 329 225 298 c 0,9,10
 194 286 194 286 177.5 278 c 128,-1,11
 161 270 161 270 137 252.5 c 128,-1,12
 113 235 113 235 102 209.5 c 128,-1,13
 91 184 91 184 91 149 c 0,14,15
 91 89 91 89 123.5 57.5 c 128,-1,16
 156 26 156 26 216 26 c 0,17,18
 359 26 359 26 391 168 c 1,19,20
 408 173 408 173 424 165 c 1,21,22
 419 76 419 76 404 13 c 1,23,24
 376 13 376 13 324 1.5 c 128,-1,25
 272 -10 272 -10 224 -10 c 0,26,27
 154 -10 154 -10 101 23 c 0,28,29
 57 50 57 50 32 93 c 128,-1,30
 7 136 7 136 7 184 c 0,31,32
 7 256 7 256 51 298 c 128,-1,33
 95 340 95 340 169 368 c 0,34,35
 194 377 194 377 209.5 383.5 c 128,-1,36
 225 390 225 390 250.5 404 c 128,-1,37
 276 418 276 418 291 431.5 c 128,-1,38
 306 445 306 445 317.5 466.5 c 128,-1,39
 329 488 329 488 329 512 c 0,40,41
 329 555 329 555 296 589.5 c 128,-1,42
 263 624 263 624 219 624 c 0,43,44
 153 624 153 624 121 590 c 128,-1,45
 89 556 89 556 71 496 c 1,46,47
 51 492 51 492 38 502 c 1,48,49
 43 562 43 562 56 631 c 1,0,1
EndSplineSet
Validated: 33
EndChar

StartChar: sarince_combine
Encoding: 57433 57433 94
Width: 576
GlyphClass: 2
Flags: W
AnchorPoint: "Anchor-1" 296 750 basechar 0
AnchorPoint: "Anchor-0" 296 -100 basechar 0
LayerCount: 2
Fore
SplineSet
527 -2 m 1,0,1
 427 0 427 0 400 0 c 2,2,-1
 36 0 l 2,3,4
 17 0 17 0 17 15 c 0,5,6
 17 27 17 27 25 38 c 0,7,8
 105 157 105 157 224.5 323.5 c 128,-1,9
 344 490 344 490 414 579 c 0,10,11
 422 590 422 590 422 597 c 0,12,13
 422 606 422 606 412 606 c 2,14,-1
 201 602 l 2,15,16
 146 601 146 601 114.5 575 c 128,-1,17
 83 549 83 549 67 496 c 1,18,19
 54 496 54 496 37 501 c 1,20,21
 54 590 54 590 59 653 c 1,22,23
 158 645 158 645 240 645 c 2,24,-1
 461 645 l 2,25,26
 478 645 478 645 504 646 c 128,-1,27
 530 647 530 647 534 647 c 0,28,29
 547 647 547 647 547 636 c 0,30,31
 547 622 547 622 523 591 c 0,32,33
 367 390 367 390 148 72 c 0,34,35
 140 58 140 58 140 52 c 0,36,37
 140 38 140 38 165 38 c 2,38,-1
 358 42 l 2,39,40
 397 43 397 43 424.5 52 c 128,-1,41
 452 61 452 61 470.5 81.5 c 128,-1,42
 489 102 489 102 498.5 119 c 128,-1,43
 508 136 508 136 523 170 c 1,44,45
 536 170 536 170 554 165 c 1,46,47
 534 80 534 80 527 -2 c 1,0,1
EndSplineSet
Validated: 1
EndChar

StartChar: tehta_circumflex
Encoding: 57435 57435 95
Width: 3
GlyphClass: 4
Flags: W
AnchorPoint: "Anchor-3" 130 850 basemark 0
AnchorPoint: "Anchor-3" 130 700 mark 0
AnchorPoint: "Anchor-1" 130 700 mark 0
LayerCount: 2
Fore
SplineSet
144 811 m 1,0,1
 181 751 181 751 253 671 c 1,2,3
 243 657 243 657 230 654 c 1,4,5
 172 691 172 691 127 737 c 1,6,7
 71 681 71 681 23 654 c 1,8,9
 10 657 10 657 1 671 c 1,10,11
 77 755 77 755 112 811 c 1,12,13
 131 814 131 814 144 811 c 1,0,1
EndSplineSet
Validated: 1048609
EndChar

StartChar: tehta_caron
Encoding: 57436 57436 96
Width: 0
GlyphClass: 4
Flags: W
AnchorPoint: "Anchor-3" 120 850 basemark 0
AnchorPoint: "Anchor-3" 120 700 mark 0
AnchorPoint: "Anchor-1" 120 700 mark 0
LayerCount: 2
Fore
SplineSet
95 683 m 1,0,1
 57 745 57 745 -6 813 c 1,2,-1
 14 826 l 1,3,4
 85 774 85 774 120 736 c 1,5,6
 158 775 158 775 228 826 c 1,7,-1
 247 813 l 1,8,9
 180 738 180 738 145 683 c 1,10,-1
 95 683 l 1,0,1
EndSplineSet
Validated: 1048577
EndChar

StartChar: pusta
Encoding: 57440 57440 97
Width: 538
GlyphClass: 2
Flags: W
LayerCount: 2
Fore
SplineSet
211 354 m 128,-1,1
 211 376 211 376 226.5 391.5 c 128,-1,2
 242 407 242 407 264 407 c 128,-1,3
 286 407 286 407 301.5 391.5 c 128,-1,4
 317 376 317 376 317 354 c 128,-1,5
 317 332 317 332 301.5 316.5 c 128,-1,6
 286 301 286 301 264 301 c 128,-1,7
 242 301 242 301 226.5 316.5 c 128,-1,0
 211 332 211 332 211 354 c 128,-1,1
EndSplineSet
Validated: 1
EndChar

StartChar: pusta_double
Encoding: 57441 57441 98
Width: 224
GlyphClass: 2
Flags: W
LayerCount: 2
Fore
SplineSet
51 619 m 128,-1,1
 51 641 51 641 66.5 656.5 c 128,-1,2
 82 672 82 672 104 672 c 128,-1,3
 126 672 126 672 141.5 656.5 c 128,-1,4
 157 641 157 641 157 619 c 128,-1,5
 157 597 157 597 141.5 581.5 c 128,-1,6
 126 566 126 566 104 566 c 128,-1,7
 82 566 82 566 66.5 581.5 c 128,-1,0
 51 597 51 597 51 619 c 128,-1,1
51 90 m 128,-1,9
 51 112 51 112 66.5 127.5 c 128,-1,10
 82 143 82 143 104 143 c 128,-1,11
 126 143 126 143 141.5 127.5 c 128,-1,12
 157 112 157 112 157 90 c 128,-1,13
 157 68 157 68 141.5 52.5 c 128,-1,14
 126 37 126 37 104 37 c 128,-1,15
 82 37 82 37 66.5 52.5 c 128,-1,8
 51 68 51 68 51 90 c 128,-1,9
EndSplineSet
Validated: 1
EndChar

StartChar: pusta_triple
Encoding: 57442 57442 99
Width: 224
GlyphClass: 2
Flags: W
LayerCount: 2
Fore
SplineSet
51 619 m 128,-1,1
 51 641 51 641 66.5 656.5 c 128,-1,2
 82 672 82 672 104 672 c 128,-1,3
 126 672 126 672 141.5 656.5 c 128,-1,4
 157 641 157 641 157 619 c 128,-1,5
 157 597 157 597 141.5 581.5 c 128,-1,6
 126 566 126 566 104 566 c 128,-1,7
 82 566 82 566 66.5 581.5 c 128,-1,0
 51 597 51 597 51 619 c 128,-1,1
51 90 m 128,-1,9
 51 112 51 112 66.5 127.5 c 128,-1,10
 82 143 82 143 104 143 c 128,-1,11
 126 143 126 143 141.5 127.5 c 128,-1,12
 157 112 157 112 157 90 c 128,-1,13
 157 68 157 68 141.5 52.5 c 128,-1,14
 126 37 126 37 104 37 c 128,-1,15
 82 37 82 37 66.5 52.5 c 128,-1,8
 51 68 51 68 51 90 c 128,-1,9
51 354 m 128,-1,17
 51 376 51 376 66.5 391.5 c 128,-1,18
 82 407 82 407 104 407 c 128,-1,19
 126 407 126 407 141.5 391.5 c 128,-1,20
 157 376 157 376 157 354 c 128,-1,21
 157 332 157 332 141.5 316.5 c 128,-1,22
 126 301 126 301 104 301 c 128,-1,23
 82 301 82 301 66.5 316.5 c 128,-1,16
 51 332 51 332 51 354 c 128,-1,17
EndSplineSet
Validated: 1
EndChar

StartChar: pusta_quadruple
Encoding: 57443 57443 100
Width: 538
GlyphClass: 2
Flags: W
LayerCount: 2
Fore
SplineSet
211 619 m 128,-1,1
 211 641 211 641 226.5 656.5 c 128,-1,2
 242 672 242 672 264 672 c 128,-1,3
 286 672 286 672 301.5 656.5 c 128,-1,4
 317 641 317 641 317 619 c 128,-1,5
 317 597 317 597 301.5 581.5 c 128,-1,6
 286 566 286 566 264 566 c 128,-1,7
 242 566 242 566 226.5 581.5 c 128,-1,0
 211 597 211 597 211 619 c 128,-1,1
211 90 m 128,-1,9
 211 112 211 112 226.5 127.5 c 128,-1,10
 242 143 242 143 264 143 c 128,-1,11
 286 143 286 143 301.5 127.5 c 128,-1,12
 317 112 317 112 317 90 c 128,-1,13
 317 68 317 68 301.5 52.5 c 128,-1,14
 286 37 286 37 264 37 c 128,-1,15
 242 37 242 37 226.5 52.5 c 128,-1,8
 211 68 211 68 211 90 c 128,-1,9
59 300 m 128,-1,17
 38 300 38 300 21.5 316.5 c 128,-1,18
 5 333 5 333 5 354 c 128,-1,19
 5 375 5 375 21.5 391.5 c 128,-1,20
 38 408 38 408 59 408 c 128,-1,21
 80 408 80 408 96.5 391.5 c 128,-1,22
 113 375 113 375 113 354 c 128,-1,23
 113 333 113 333 96.5 316.5 c 128,-1,16
 80 300 80 300 59 300 c 128,-1,17
467 300 m 128,-1,25
 446 300 446 300 429.5 316.5 c 128,-1,26
 413 333 413 333 413 354 c 128,-1,27
 413 375 413 375 429.5 391.5 c 128,-1,28
 446 408 446 408 467 408 c 128,-1,29
 488 408 488 408 504.5 391.5 c 128,-1,30
 521 375 521 375 521 354 c 128,-1,31
 521 333 521 333 504.5 316.5 c 128,-1,24
 488 300 488 300 467 300 c 128,-1,25
EndSplineSet
Validated: 1
EndChar

StartChar: pusta_quintuple
Encoding: 57444 57444 101
Width: 538
GlyphClass: 2
Flags: W
LayerCount: 2
Fore
SplineSet
211 619 m 128,-1,1
 211 641 211 641 226.5 656.5 c 128,-1,2
 242 672 242 672 264 672 c 128,-1,3
 286 672 286 672 301.5 656.5 c 128,-1,4
 317 641 317 641 317 619 c 128,-1,5
 317 597 317 597 301.5 581.5 c 128,-1,6
 286 566 286 566 264 566 c 128,-1,7
 242 566 242 566 226.5 581.5 c 128,-1,0
 211 597 211 597 211 619 c 128,-1,1
211 90 m 128,-1,9
 211 112 211 112 226.5 127.5 c 128,-1,10
 242 143 242 143 264 143 c 128,-1,11
 286 143 286 143 301.5 127.5 c 128,-1,12
 317 112 317 112 317 90 c 128,-1,13
 317 68 317 68 301.5 52.5 c 128,-1,14
 286 37 286 37 264 37 c 128,-1,15
 242 37 242 37 226.5 52.5 c 128,-1,8
 211 68 211 68 211 90 c 128,-1,9
211 354 m 128,-1,17
 211 376 211 376 226.5 391.5 c 128,-1,18
 242 407 242 407 264 407 c 128,-1,19
 286 407 286 407 301.5 391.5 c 128,-1,20
 317 376 317 376 317 354 c 128,-1,21
 317 332 317 332 301.5 316.5 c 128,-1,22
 286 301 286 301 264 301 c 128,-1,23
 242 301 242 301 226.5 316.5 c 128,-1,16
 211 332 211 332 211 354 c 128,-1,17
59 300 m 128,-1,25
 38 300 38 300 21.5 316.5 c 128,-1,26
 5 333 5 333 5 354 c 128,-1,27
 5 375 5 375 21.5 391.5 c 128,-1,28
 38 408 38 408 59 408 c 128,-1,29
 80 408 80 408 96.5 391.5 c 128,-1,30
 113 375 113 375 113 354 c 128,-1,31
 113 333 113 333 96.5 316.5 c 128,-1,24
 80 300 80 300 59 300 c 128,-1,25
467 300 m 128,-1,33
 446 300 446 300 429.5 316.5 c 128,-1,34
 413 333 413 333 413 354 c 128,-1,35
 413 375 413 375 429.5 391.5 c 128,-1,36
 446 408 446 408 467 408 c 128,-1,37
 488 408 488 408 504.5 391.5 c 128,-1,38
 521 375 521 375 521 354 c 128,-1,39
 521 333 521 333 504.5 316.5 c 128,-1,32
 488 300 488 300 467 300 c 128,-1,33
EndSplineSet
Validated: 1
EndChar

StartChar: tengwa_exclamation
Encoding: 57445 57445 102
Width: 280
GlyphClass: 2
Flags: W
LayerCount: 2
Fore
SplineSet
114 -7 m 1,0,-1
 114 572 l 1,1,-1
 171 572 l 1,2,-1
 171 -7 l 1,3,-1
 114 -7 l 1,0,-1
EndSplineSet
Validated: 1
EndChar

StartChar: tengwa_question
Encoding: 57446 57446 103
Width: 518
GlyphClass: 2
Flags: W
LayerCount: 2
Fore
SplineSet
92 122 m 2,0,-1
 92 386 l 2,1,2
 92 398 92 398 80 398 c 2,3,-1
 29 398 l 1,4,5
 24 403 24 403 29.5 417 c 128,-1,6
 35 431 35 431 44 431 c 0,7,8
 73 431 73 431 82.5 439.5 c 128,-1,9
 92 448 92 448 92 477 c 0,10,11
 92 536 92 536 112.5 581 c 128,-1,12
 133 626 133 626 165 650 c 128,-1,13
 197 674 197 674 230.5 686 c 128,-1,14
 264 698 264 698 296 698 c 0,15,16
 368 698 368 698 408 663 c 128,-1,17
 448 628 448 628 448 587 c 0,18,19
 448 551 448 551 428.5 517.5 c 128,-1,20
 409 484 409 484 386.5 464 c 128,-1,21
 364 444 364 444 320 411 c 1,22,-1
 320 409 l 1,23,24
 360 383 360 383 383 365 c 128,-1,25
 406 347 406 347 437.5 316.5 c 128,-1,26
 469 286 469 286 484.5 250 c 128,-1,27
 500 214 500 214 500 173 c 0,28,29
 500 94 500 94 456.5 42 c 128,-1,30
 413 -10 413 -10 344 -10 c 0,31,32
 287 -10 287 -10 263.5 18 c 128,-1,33
 240 46 240 46 240 86 c 0,34,35
 240 98 240 98 249.5 109.5 c 128,-1,36
 259 121 259 121 271 121 c 0,37,38
 299 121 299 121 299 91 c 0,39,40
 299 82 299 82 295 70 c 128,-1,41
 291 58 291 58 291 53 c 0,42,43
 291 39 291 39 300.5 32 c 128,-1,44
 310 25 310 25 319 24 c 128,-1,45
 328 23 328 23 344 23 c 0,46,47
 370 23 370 23 392.5 58 c 128,-1,48
 415 93 415 93 415 156 c 0,49,50
 415 278 415 278 260 396 c 1,51,-1
 260 409 l 1,52,53
 316 452 316 452 340.5 487.5 c 128,-1,54
 365 523 365 523 365 574 c 0,55,56
 365 616 365 616 345.5 640.5 c 128,-1,57
 326 665 326 665 287 665 c 0,58,59
 250 665 250 665 225.5 646.5 c 128,-1,60
 201 628 201 628 190 593 c 128,-1,61
 179 558 179 558 175 523.5 c 128,-1,62
 171 489 171 489 171 442 c 2,63,-1
 171 122 l 2,64,65
 171 64 171 64 180 49.5 c 128,-1,66
 189 35 189 35 219 31 c 1,67,68
 224 26 224 26 224 14 c 128,-1,69
 224 2 224 2 219 -2 c 1,70,71
 173 0 173 0 132 0 c 0,72,73
 83 0 83 0 23 -2 c 1,74,75
 18 2 18 2 18 14 c 128,-1,76
 18 26 18 26 23 31 c 1,77,78
 68 33 68 33 80 47.5 c 128,-1,79
 92 62 92 62 92 122 c 2,0,-1
EndSplineSet
Validated: 1
EndChar

StartChar: tengwa_parenthesis
Encoding: 57447 57447 104
Width: 265
GlyphClass: 2
Flags: W
LayerCount: 2
Fore
SplineSet
154 -7 m 1,0,-1
 154 572 l 1,1,-1
 211 572 l 1,2,-1
 211 -7 l 1,3,-1
 154 -7 l 1,0,-1
64 -7 m 1,4,-1
 64 572 l 1,5,-1
 121 572 l 1,6,-1
 121 -7 l 1,7,-1
 64 -7 l 1,4,-1
EndSplineSet
Validated: 1
EndChar

StartChar: tengwa_section
Encoding: 57448 57448 105
Width: 434
GlyphClass: 2
Flags: W
LayerCount: 2
Fore
SplineSet
154 348 m 2,0,-1
 266 348 l 2,1,2
 326 348 326 348 340.5 359 c 128,-1,3
 355 370 355 370 357 406 c 1,4,5
 362 410 362 410 374 410 c 128,-1,6
 386 410 386 410 390 406 c 1,7,8
 388 346 388 346 388 322 c 0,9,10
 388 304 388 304 390 234 c 1,11,12
 386 230 386 230 374 230 c 128,-1,13
 362 230 362 230 357 234 c 1,14,15
 355 255 355 255 351 265 c 128,-1,16
 347 275 347 275 326.5 283.5 c 128,-1,17
 306 292 306 292 266 292 c 2,18,-1
 154 292 l 2,19,20
 94 292 94 292 79.5 281 c 128,-1,21
 65 270 65 270 63 234 c 1,22,23
 58 230 58 230 46 230 c 128,-1,24
 34 230 34 230 30 234 c 1,25,26
 32 294 32 294 32 318 c 0,27,28
 32 336 32 336 30 406 c 1,29,30
 34 410 34 410 46 410 c 128,-1,31
 58 410 58 410 63 406 c 1,32,33
 65 385 65 385 69 375 c 128,-1,34
 73 365 73 365 93.5 356.5 c 128,-1,35
 114 348 114 348 154 348 c 2,0,-1
EndSplineSet
Validated: 1
EndChar

StartChar: tengwa_section_double
Encoding: 57449 57449 106
Width: 434
GlyphClass: 2
Flags: W
LayerCount: 2
Fore
SplineSet
154 268 m 2,0,-1
 266 268 l 2,1,2
 326 268 326 268 340.5 279 c 128,-1,3
 355 290 355 290 357 326 c 1,4,5
 362 330 362 330 374 330 c 128,-1,6
 386 330 386 330 390 326 c 1,7,8
 388 266 388 266 388 242 c 0,9,10
 388 224 388 224 390 154 c 1,11,12
 386 150 386 150 374 150 c 128,-1,13
 362 150 362 150 357 154 c 1,14,15
 355 175 355 175 351 185 c 128,-1,16
 347 195 347 195 326.5 203.5 c 128,-1,17
 306 212 306 212 266 212 c 2,18,-1
 154 212 l 2,19,20
 94 212 94 212 79.5 201 c 128,-1,21
 65 190 65 190 63 154 c 1,22,23
 58 150 58 150 46 150 c 128,-1,24
 34 150 34 150 30 154 c 1,25,26
 32 214 32 214 32 238 c 0,27,28
 32 256 32 256 30 326 c 1,29,30
 34 330 34 330 46 330 c 128,-1,31
 58 330 58 330 63 326 c 1,32,33
 65 305 65 305 69 295 c 128,-1,34
 73 285 73 285 93.5 276.5 c 128,-1,35
 114 268 114 268 154 268 c 2,0,-1
154 418 m 2,36,-1
 266 418 l 2,37,38
 326 418 326 418 340.5 429 c 128,-1,39
 355 440 355 440 357 476 c 1,40,41
 362 480 362 480 374 480 c 128,-1,42
 386 480 386 480 390 476 c 1,43,44
 388 416 388 416 388 392 c 0,45,46
 388 374 388 374 390 304 c 1,47,48
 386 300 386 300 374 300 c 128,-1,49
 362 300 362 300 357 304 c 1,50,51
 355 325 355 325 351 335 c 128,-1,52
 347 345 347 345 326.5 353.5 c 128,-1,53
 306 362 306 362 266 362 c 2,54,-1
 154 362 l 2,55,56
 94 362 94 362 79.5 351 c 128,-1,57
 65 340 65 340 63 304 c 1,58,59
 58 300 58 300 46 300 c 128,-1,60
 34 300 34 300 30 304 c 1,61,62
 32 364 32 364 32 388 c 0,63,64
 32 406 32 406 30 476 c 1,65,66
 34 480 34 480 46 480 c 128,-1,67
 58 480 58 480 63 476 c 1,68,69
 65 455 65 455 69 445 c 128,-1,70
 73 435 73 435 93.5 426.5 c 128,-1,71
 114 418 114 418 154 418 c 2,36,-1
EndSplineSet
Validated: 5
EndChar

StartChar: tengwa_quotation_up
Encoding: 57450 57450 107
Width: 378
GlyphClass: 2
Flags: W
LayerCount: 2
Fore
SplineSet
114 508 m 0,0,1
 84 508 84 508 66 535 c 128,-1,2
 48 562 48 562 48 607 c 0,3,4
 48 657 48 657 83 692 c 128,-1,5
 118 727 118 727 166 736 c 1,6,7
 175 727 175 727 175 712 c 1,8,9
 139 703 139 703 113 676.5 c 128,-1,10
 87 650 87 650 87 632 c 0,11,12
 87 605 87 605 123 601 c 0,13,14
 167 594 167 594 167 557 c 0,15,16
 167 536 167 536 152 522 c 128,-1,17
 137 508 137 508 114 508 c 0,0,1
271 508 m 0,18,19
 241 508 241 508 223 535 c 128,-1,20
 205 562 205 562 205 607 c 0,21,22
 205 657 205 657 240 692 c 128,-1,23
 275 727 275 727 323 736 c 1,24,25
 332 727 332 727 332 712 c 1,26,27
 296 703 296 703 270 676.5 c 128,-1,28
 244 650 244 650 244 632 c 0,29,30
 244 605 244 605 280 601 c 0,31,32
 324 594 324 594 324 557 c 0,33,34
 324 536 324 536 309 522 c 128,-1,35
 294 508 294 508 271 508 c 0,18,19
EndSplineSet
Validated: 1
EndChar

StartChar: tengwa_quotation_down
Encoding: 57451 57451 108
Width: 384
GlyphClass: 2
Flags: W
LayerCount: 2
Fore
SplineSet
105 94 m 0,0,1
 135 94 135 94 153 67 c 128,-1,2
 171 40 171 40 171 -5 c 0,3,4
 171 -55 171 -55 136 -90 c 128,-1,5
 101 -125 101 -125 53 -134 c 1,6,7
 44 -125 44 -125 44 -110 c 1,8,9
 80 -101 80 -101 106 -74.5 c 128,-1,10
 132 -48 132 -48 132 -30 c 0,11,12
 132 -3 132 -3 96 1 c 0,13,14
 52 8 52 8 52 45 c 0,15,16
 52 66 52 66 67 80 c 128,-1,17
 82 94 82 94 105 94 c 0,0,1
262 94 m 0,18,19
 292 94 292 94 310 67 c 128,-1,20
 328 40 328 40 328 -5 c 0,21,22
 328 -55 328 -55 293 -90 c 128,-1,23
 258 -125 258 -125 210 -134 c 1,24,25
 201 -125 201 -125 201 -110 c 1,26,27
 237 -101 237 -101 263 -74.5 c 128,-1,28
 289 -48 289 -48 289 -30 c 0,29,30
 289 -3 289 -3 253 1 c 0,31,32
 209 8 209 8 209 45 c 0,33,34
 209 66 209 66 224 80 c 128,-1,35
 239 94 239 94 262 94 c 0,18,19
EndSplineSet
Validated: 1
EndChar

StartChar: digit_zero
Encoding: 57456 57456 109
Width: 566
GlyphClass: 2
Flags: W
AnchorPoint: "Anchor-1" 300 750 basechar 0
AnchorPoint: "Anchor-0" 240 -100 basechar 0
LayerCount: 2
Fore
SplineSet
257 610 m 0,0,1
 382 610 382 610 464 528 c 0,2,3
 548 442 548 442 548 316 c 0,4,5
 548 173 548 173 466.5 81.5 c 128,-1,6
 385 -10 385 -10 264 -10 c 0,7,8
 203 -10 203 -10 162 -2 c 128,-1,9
 121 6 121 6 96.5 16.5 c 128,-1,10
 72 27 72 27 67 28 c 1,11,12
 53 85 53 85 47 178 c 1,13,14
 58 185 58 185 76 182 c 1,15,16
 120 24 120 24 262 24 c 0,17,18
 294 24 294 24 326.5 38.5 c 128,-1,19
 359 53 359 53 389.5 83 c 128,-1,20
 420 113 420 113 439 170 c 128,-1,21
 458 227 458 227 458 302 c 0,22,23
 458 409 458 409 399.5 488 c 128,-1,24
 341 567 341 567 250 567 c 0,25,26
 186 567 186 567 147.5 545.5 c 128,-1,27
 109 524 109 524 59 462 c 1,28,29
 40 465 40 465 34 477 c 1,30,31
 80 545 80 545 133 577.5 c 128,-1,32
 186 610 186 610 257 610 c 0,0,1
EndSplineSet
Validated: 1
EndChar

StartChar: digit_one
Encoding: 57457 57457 110
Width: 306
GlyphClass: 2
Flags: W
AnchorPoint: "Anchor-1" 150 750 basechar 0
AnchorPoint: "Anchor-0" 150 -100 basechar 0
LayerCount: 2
Fore
SplineSet
186 78 m 2,0,1
 186 55 186 55 199 45.5 c 128,-1,2
 212 36 212 36 243 31 c 2,3,-1
 256 29 l 2,4,5
 264 27 264 27 264 20 c 2,6,-1
 264 0 l 1,7,-1
 263 -2 l 1,8,9
 189 0 189 0 148 0 c 0,10,11
 131 0 131 0 102.5 -0.5 c 128,-1,12
 74 -1 74 -1 54 -2 c 2,13,-1
 33 -2 l 1,14,-1
 31 0 l 1,15,-1
 31 20 l 2,16,17
 31 27 31 27 39 29 c 2,18,-1
 52 31 l 2,19,20
 85 36 85 36 97.5 46 c 128,-1,21
 110 56 110 56 110 78 c 2,22,-1
 110 523 l 2,23,24
 110 546 110 546 97.5 554.5 c 128,-1,25
 85 563 85 563 52 569 c 2,26,-1
 40 572 l 2,27,28
 31 574 31 574 31 580 c 2,29,-1
 31 600 l 1,30,-1
 33 602 l 1,31,32
 107 600 107 600 148 600 c 0,33,34
 164 600 164 600 193 600.5 c 128,-1,35
 222 601 222 601 242 602 c 2,36,-1
 263 602 l 1,37,-1
 264 600 l 1,38,-1
 264 580 l 2,39,40
 264 573 264 573 257 572 c 2,41,-1
 243 569 l 2,42,43
 210 564 210 564 198 554 c 128,-1,44
 186 544 186 544 186 523 c 2,45,-1
 186 78 l 2,0,1
EndSplineSet
Validated: 1
EndChar

StartChar: digit_two
Encoding: 57458 57458 111
Width: 502
GlyphClass: 2
Flags: W
AnchorPoint: "Anchor-1" 270 750 basechar 0
AnchorPoint: "Anchor-0" 270 -100 basechar 0
LayerCount: 2
Fore
SplineSet
410 78 m 2,0,1
 410 55 410 55 422.5 46 c 128,-1,2
 435 37 435 37 467 31 c 2,3,-1
 480 29 l 2,4,5
 488 27 488 27 488 20 c 2,6,-1
 488 0 l 1,7,-1
 486 -2 l 1,8,9
 413 0 413 0 372 0 c 2,10,-1
 146 0 l 2,11,12
 129 0 129 0 100.5 -0.5 c 128,-1,13
 72 -1 72 -1 52 -2 c 2,14,-1
 31 -2 l 1,15,-1
 29 0 l 1,16,-1
 29 20 l 2,17,18
 29 27 29 27 37 29 c 2,19,-1
 50 31 l 2,20,21
 83 36 83 36 95.5 46 c 128,-1,22
 108 56 108 56 108 78 c 2,23,-1
 108 523 l 2,24,25
 108 546 108 546 95 555 c 128,-1,26
 82 564 82 564 50 569 c 2,27,-1
 37 572 l 2,28,29
 29 574 29 574 29 580 c 2,30,-1
 29 600 l 1,31,-1
 31 602 l 1,32,33
 104 600 104 600 145 600 c 2,34,-1
 372 600 l 2,35,36
 388 600 388 600 416.5 600.5 c 128,-1,37
 445 601 445 601 466 602 c 2,38,-1
 486 602 l 1,39,-1
 488 600 l 1,40,-1
 488 580 l 2,41,42
 488 574 488 574 480 572 c 2,43,-1
 467 569 l 2,44,45
 434 564 434 564 422 554 c 128,-1,46
 410 544 410 544 410 523 c 2,47,-1
 410 78 l 2,0,1
184 78 m 2,48,49
 184 53 184 53 197 42 c 128,-1,50
 210 31 210 31 241 31 c 2,51,-1
 276 31 l 2,52,53
 334 31 334 31 334 78 c 2,54,-1
 334 523 l 2,55,56
 334 547 334 547 320.5 558 c 128,-1,57
 307 569 307 569 276 569 c 2,58,-1
 241 569 l 2,59,60
 184 569 184 569 184 523 c 2,61,-1
 184 78 l 2,48,49
EndSplineSet
Validated: 1
EndChar

StartChar: digit_three
Encoding: 57459 57459 112
Width: 760
GlyphClass: 2
Flags: W
AnchorPoint: "Anchor-1" 380 750 basechar 0
AnchorPoint: "Anchor-0" 380 -100 basechar 0
LayerCount: 2
Fore
SplineSet
639 78 m 2,0,1
 639 54 639 54 651 45.5 c 128,-1,2
 663 37 663 37 696 31 c 2,3,-1
 709 29 l 2,4,5
 717 27 717 27 717 20 c 2,6,-1
 717 0 l 1,7,-1
 715 -2 l 1,8,9
 642 0 642 0 601 0 c 2,10,-1
 148 0 l 2,11,12
 131 0 131 0 102.5 -0.5 c 128,-1,13
 74 -1 74 -1 54 -2 c 2,14,-1
 33 -2 l 1,15,-1
 31 0 l 1,16,-1
 31 20 l 2,17,18
 31 27 31 27 39 29 c 2,19,-1
 52 31 l 2,20,21
 84 36 84 36 97 46 c 128,-1,22
 110 56 110 56 110 78 c 2,23,-1
 110 523 l 2,24,25
 110 546 110 546 98 554.5 c 128,-1,26
 86 563 86 563 52 569 c 2,27,-1
 40 572 l 2,28,29
 31 574 31 574 31 580 c 2,30,-1
 31 600 l 1,31,-1
 33 602 l 1,32,33
 107 600 107 600 148 600 c 2,34,-1
 600 600 l 2,35,36
 617 600 617 600 645.5 600.5 c 128,-1,37
 674 601 674 601 694 602 c 2,38,-1
 715 602 l 1,39,-1
 717 600 l 1,40,-1
 717 580 l 2,41,42
 717 574 717 574 709 572 c 2,43,-1
 696 569 l 2,44,45
 664 564 664 564 651.5 554 c 128,-1,46
 639 544 639 544 639 523 c 2,47,-1
 639 78 l 2,0,1
412 78 m 2,48,49
 412 53 412 53 425.5 42 c 128,-1,50
 439 31 439 31 470 31 c 2,51,-1
 505 31 l 2,52,53
 563 31 563 31 563 78 c 2,54,-1
 563 523 l 2,55,56
 563 547 563 547 549.5 558 c 128,-1,57
 536 569 536 569 505 569 c 2,58,-1
 470 569 l 2,59,60
 412 569 412 569 412 523 c 2,61,-1
 412 78 l 2,48,49
186 78 m 2,62,63
 186 53 186 53 199 42 c 128,-1,64
 212 31 212 31 243 31 c 2,65,-1
 279 31 l 2,66,67
 336 31 336 31 336 78 c 2,68,-1
 336 523 l 2,69,70
 336 547 336 547 322.5 558 c 128,-1,71
 309 569 309 569 279 569 c 2,72,-1
 243 569 l 2,73,74
 186 569 186 569 186 523 c 2,75,-1
 186 78 l 2,62,63
EndSplineSet
Validated: 1
EndChar

StartChar: digit_four
Encoding: 57460 57460 113
Width: 314
GlyphClass: 2
Flags: W
AnchorPoint: "Anchor-1" 140 750 basechar 0
AnchorPoint: "Anchor-0" 140 -250 basechar 0
LayerCount: 2
Fore
SplineSet
100 473 m 2,0,1
 100 505 100 505 96.5 522 c 128,-1,2
 93 539 93 539 83 548.5 c 128,-1,3
 73 558 73 558 60.5 560.5 c 128,-1,4
 48 563 48 563 22 564 c 0,5,6
 18 568 18 568 18 580 c 128,-1,7
 18 592 18 592 22 597 c 1,8,9
 98 595 98 595 142 595 c 0,10,11
 182 595 182 595 282 597 c 1,12,13
 286 592 286 592 286 580 c 128,-1,14
 286 568 286 568 282 564 c 0,15,16
 247 563 247 563 231.5 560.5 c 128,-1,17
 216 558 216 558 203.5 548.5 c 128,-1,18
 191 539 191 539 187.5 522 c 128,-1,19
 184 505 184 505 184 473 c 2,20,-1
 184 31 l 2,21,22
 184 -33 184 -33 192.5 -77 c 128,-1,23
 201 -121 201 -121 215 -141 c 128,-1,24
 229 -161 229 -161 242 -169 c 128,-1,25
 255 -177 255 -177 270 -177 c 0,26,27
 297 -177 297 -177 310 -150 c 0,28,29
 322 -125 322 -125 350 -125 c 0,30,31
 361 -125 361 -125 377.5 -139 c 128,-1,32
 394 -153 394 -153 394 -168 c 0,33,34
 394 -192 394 -192 367 -207 c 128,-1,35
 340 -222 340 -222 318 -222 c 0,36,37
 283 -222 283 -222 257 -213 c 128,-1,38
 231 -204 231 -204 202 -179 c 0,39,40
 180 -161 180 -161 166.5 -146 c 128,-1,41
 153 -131 153 -131 135 -104 c 128,-1,42
 117 -77 117 -77 108.5 -37.5 c 128,-1,43
 100 2 100 2 100 53 c 2,44,-1
 100 473 l 2,0,1
EndSplineSet
Validated: 1
EndChar

StartChar: digit_five
Encoding: 57461 57461 114
Width: 512
GlyphClass: 2
Flags: W
AnchorPoint: "Anchor-1" 270 750 basechar 0
AnchorPoint: "Anchor-0" 140 -250 basechar 0
LayerCount: 2
Fore
SplineSet
98 473 m 2,0,1
 98 505 98 505 94.5 522 c 128,-1,2
 91 539 91 539 81 548.5 c 128,-1,3
 71 558 71 558 58.5 560.5 c 128,-1,4
 46 563 46 563 20 564 c 0,5,6
 16 568 16 568 16 580 c 128,-1,7
 16 592 16 592 20 597 c 1,8,9
 96 595 96 595 140 595 c 0,10,11
 180 595 180 595 280 597 c 1,12,13
 284 592 284 592 284 580 c 128,-1,14
 284 568 284 568 280 564 c 0,15,16
 245 563 245 563 229.5 560.5 c 128,-1,17
 214 558 214 558 201.5 548.5 c 128,-1,18
 189 539 189 539 185.5 522 c 128,-1,19
 182 505 182 505 182 473 c 2,20,-1
 182 31 l 2,21,22
 182 -33 182 -33 190.5 -77 c 128,-1,23
 199 -121 199 -121 213 -141 c 128,-1,24
 227 -161 227 -161 240 -169 c 128,-1,25
 253 -177 253 -177 268 -177 c 0,26,27
 295 -177 295 -177 308 -150 c 0,28,29
 320 -125 320 -125 348 -125 c 0,30,31
 359 -125 359 -125 375.5 -139 c 128,-1,32
 392 -153 392 -153 392 -168 c 0,33,34
 392 -192 392 -192 365 -207 c 128,-1,35
 338 -222 338 -222 316 -222 c 0,36,37
 281 -222 281 -222 255 -213 c 128,-1,38
 229 -204 229 -204 200 -179 c 0,39,40
 178 -161 178 -161 164.5 -146 c 128,-1,41
 151 -131 151 -131 133 -104 c 128,-1,42
 115 -77 115 -77 106.5 -37.5 c 128,-1,43
 98 2 98 2 98 53 c 2,44,-1
 98 473 l 2,0,1
409 473 m 2,45,-1
 409 257 l 2,46,47
 409 225 409 225 411.5 208.5 c 128,-1,48
 414 192 414 192 423 182 c 128,-1,49
 432 172 432 172 443.5 170 c 128,-1,50
 455 168 455 168 481 166 c 1,51,52
 486 161 486 161 486 149 c 128,-1,53
 486 137 486 137 481 133 c 1,54,55
 411 135 411 135 370 135 c 0,56,57
 332 135 332 135 258 133 c 1,58,59
 254 137 254 137 254 149 c 128,-1,60
 254 161 254 161 258 166 c 1,61,62
 285 168 285 168 296 170.5 c 128,-1,63
 307 173 307 173 316.5 182.5 c 128,-1,64
 326 192 326 192 328 208.5 c 128,-1,65
 330 225 330 225 330 257 c 2,66,-1
 330 473 l 2,67,68
 330 505 330 505 328 521.5 c 128,-1,69
 326 538 326 538 316.5 548 c 128,-1,70
 307 558 307 558 295.5 560 c 128,-1,71
 284 562 284 562 258 564 c 0,72,73
 254 568 254 568 254 580 c 128,-1,74
 254 592 254 592 258 597 c 1,75,76
 336 595 336 595 369 595 c 0,77,78
 405 595 405 595 481 597 c 1,79,80
 486 592 486 592 486 580 c 128,-1,81
 486 568 486 568 481 564 c 0,82,83
 455 562 455 562 444 559.5 c 128,-1,84
 433 557 433 557 423 547.5 c 128,-1,85
 413 538 413 538 411 521.5 c 128,-1,86
 409 505 409 505 409 473 c 2,45,-1
EndSplineSet
Validated: 5
EndChar

StartChar: digit_six
Encoding: 57462 57462 115
Width: 696
GlyphClass: 2
Flags: W
AnchorPoint: "Anchor-1" 380 750 basechar 0
AnchorPoint: "Anchor-0" 140 -250 basechar 0
LayerCount: 2
Fore
SplineSet
100 473 m 2,0,1
 100 505 100 505 96.5 522 c 128,-1,2
 93 539 93 539 83 548.5 c 128,-1,3
 73 558 73 558 60.5 560.5 c 128,-1,4
 48 563 48 563 22 564 c 0,5,6
 18 568 18 568 18 580 c 128,-1,7
 18 592 18 592 22 597 c 1,8,9
 98 595 98 595 142 595 c 0,10,11
 182 595 182 595 282 597 c 1,12,13
 286 592 286 592 286 580 c 128,-1,14
 286 568 286 568 282 564 c 0,15,16
 247 563 247 563 231.5 560.5 c 128,-1,17
 216 558 216 558 203.5 548.5 c 128,-1,18
 191 539 191 539 187.5 522 c 128,-1,19
 184 505 184 505 184 473 c 2,20,-1
 184 31 l 2,21,22
 184 -33 184 -33 192.5 -77 c 128,-1,23
 201 -121 201 -121 215 -141 c 128,-1,24
 229 -161 229 -161 242 -169 c 128,-1,25
 255 -177 255 -177 270 -177 c 0,26,27
 297 -177 297 -177 310 -150 c 0,28,29
 322 -125 322 -125 350 -125 c 0,30,31
 361 -125 361 -125 377.5 -139 c 128,-1,32
 394 -153 394 -153 394 -168 c 0,33,34
 394 -192 394 -192 367 -207 c 128,-1,35
 340 -222 340 -222 318 -222 c 0,36,37
 283 -222 283 -222 257 -213 c 128,-1,38
 231 -204 231 -204 202 -179 c 0,39,40
 180 -161 180 -161 166.5 -146 c 128,-1,41
 153 -131 153 -131 135 -104 c 128,-1,42
 117 -77 117 -77 108.5 -37.5 c 128,-1,43
 100 2 100 2 100 53 c 2,44,-1
 100 473 l 2,0,1
411 473 m 2,45,-1
 411 257 l 2,46,47
 411 225 411 225 413.5 208.5 c 128,-1,48
 416 192 416 192 425 182 c 128,-1,49
 434 172 434 172 445.5 170 c 128,-1,50
 457 168 457 168 483 166 c 1,51,52
 488 161 488 161 488 149 c 128,-1,53
 488 137 488 137 483 133 c 1,54,55
 413 135 413 135 372 135 c 0,56,57
 334 135 334 135 260 133 c 1,58,59
 256 137 256 137 256 149 c 128,-1,60
 256 161 256 161 260 166 c 1,61,62
 287 168 287 168 298 170.5 c 128,-1,63
 309 173 309 173 318.5 182.5 c 128,-1,64
 328 192 328 192 330 208.5 c 128,-1,65
 332 225 332 225 332 257 c 2,66,-1
 332 473 l 2,67,68
 332 505 332 505 330 521.5 c 128,-1,69
 328 538 328 538 318.5 548 c 128,-1,70
 309 558 309 558 297.5 560 c 128,-1,71
 286 562 286 562 260 564 c 0,72,73
 256 568 256 568 256 580 c 128,-1,74
 256 592 256 592 260 597 c 1,75,76
 338 595 338 595 371 595 c 0,77,78
 407 595 407 595 483 597 c 1,79,80
 488 592 488 592 488 580 c 128,-1,81
 488 568 488 568 483 564 c 0,82,83
 457 562 457 562 446 559.5 c 128,-1,84
 435 557 435 557 425 547.5 c 128,-1,85
 415 538 415 538 413 521.5 c 128,-1,86
 411 505 411 505 411 473 c 2,45,-1
594 474 m 2,87,-1
 594 258 l 2,88,89
 594 225 594 225 596 208.5 c 128,-1,90
 598 192 598 192 607.5 182.5 c 128,-1,91
 617 173 617 173 628.5 170.5 c 128,-1,92
 640 168 640 168 666 167 c 1,93,94
 670 162 670 162 670 150 c 128,-1,95
 670 138 670 138 666 134 c 1,96,97
 596 136 596 136 555 136 c 0,98,99
 517 136 517 136 443 134 c 1,100,101
 438 138 438 138 438 150 c 128,-1,102
 438 162 438 162 443 167 c 1,103,104
 469 169 469 169 480 171 c 128,-1,105
 491 173 491 173 501 183 c 128,-1,106
 511 193 511 193 513 209 c 128,-1,107
 515 225 515 225 515 258 c 2,108,-1
 515 474 l 2,109,110
 515 506 515 506 513 522.5 c 128,-1,111
 511 539 511 539 501.5 548.5 c 128,-1,112
 492 558 492 558 480.5 560.5 c 128,-1,113
 469 563 469 563 443 565 c 0,114,115
 438 569 438 569 438 581 c 128,-1,116
 438 593 438 593 443 598 c 1,117,118
 521 596 521 596 554 596 c 0,119,120
 590 596 590 596 666 598 c 1,121,122
 670 593 670 593 670 581 c 128,-1,123
 670 569 670 569 666 565 c 0,124,125
 639 562 639 562 628 560 c 128,-1,126
 617 558 617 558 607.5 548.5 c 128,-1,127
 598 539 598 539 596 522.5 c 128,-1,128
 594 506 594 506 594 474 c 2,87,-1
EndSplineSet
Validated: 5
EndChar

StartChar: digit_seven
Encoding: 57463 57463 116
Width: 298
GlyphClass: 2
Flags: W
AnchorPoint: "Anchor-1" 170 750 basechar 0
AnchorPoint: "Anchor-0" 170 -250 basechar 0
LayerCount: 2
Fore
SplineSet
202 473 m 2,0,-1
 202 53 l 2,1,2
 202 2 202 2 193 -37.5 c 128,-1,3
 184 -77 184 -77 166.5 -104 c 128,-1,4
 149 -131 149 -131 135.5 -146 c 128,-1,5
 122 -161 122 -161 100 -179 c 0,6,7
 50 -222 50 -222 -17 -222 c 0,8,9
 -39 -222 -39 -222 -65.5 -207 c 128,-1,10
 -92 -192 -92 -192 -92 -168 c 0,11,12
 -92 -153 -92 -153 -76 -139 c 128,-1,13
 -60 -125 -60 -125 -48 -125 c 0,14,15
 -20 -125 -20 -125 -8 -150 c 0,16,17
 5 -177 5 -177 32 -177 c 0,18,19
 52 -177 52 -177 69 -164 c 128,-1,20
 86 -151 86 -151 101.5 -101.5 c 128,-1,21
 117 -52 117 -52 117 31 c 2,22,-1
 117 473 l 2,23,24
 117 533 117 533 100 547.5 c 128,-1,25
 83 562 83 562 20 564 c 0,26,27
 16 568 16 568 16 580 c 128,-1,28
 16 592 16 592 20 597 c 1,29,30
 120 595 120 595 159 595 c 0,31,32
 203 595 203 595 279 597 c 1,33,34
 284 592 284 592 284 580 c 128,-1,35
 284 568 284 568 279 564 c 0,36,37
 231 562 231 562 216.5 547 c 128,-1,38
 202 532 202 532 202 473 c 2,0,-1
EndSplineSet
Validated: 1
EndChar

StartChar: digit_eight
Encoding: 57464 57464 117
Width: 534
GlyphClass: 2
Flags: W
AnchorPoint: "Anchor-1" 280 750 basechar 0
AnchorPoint: "Anchor-0" 300 -100 basechar 0
LayerCount: 2
Fore
SplineSet
206 473 m 2,0,-1
 206 53 l 2,1,2
 206 2 206 2 197 -37.5 c 128,-1,3
 188 -77 188 -77 170.5 -104 c 128,-1,4
 153 -131 153 -131 139.5 -146 c 128,-1,5
 126 -161 126 -161 104 -179 c 0,6,7
 54 -222 54 -222 -13 -222 c 0,8,9
 -35 -222 -35 -222 -61.5 -207 c 128,-1,10
 -88 -192 -88 -192 -88 -168 c 0,11,12
 -88 -153 -88 -153 -72 -139 c 128,-1,13
 -56 -125 -56 -125 -44 -125 c 0,14,15
 -16 -125 -16 -125 -4 -150 c 0,16,17
 9 -177 9 -177 36 -177 c 0,18,19
 56 -177 56 -177 73 -164 c 128,-1,20
 90 -151 90 -151 105.5 -101.5 c 128,-1,21
 121 -52 121 -52 121 31 c 2,22,-1
 121 473 l 2,23,24
 121 533 121 533 104 547.5 c 128,-1,25
 87 562 87 562 24 564 c 0,26,27
 20 568 20 568 20 580 c 128,-1,28
 20 592 20 592 24 597 c 1,29,30
 124 595 124 595 163 595 c 0,31,32
 207 595 207 595 283 597 c 1,33,34
 288 592 288 592 288 580 c 128,-1,35
 288 568 288 568 283 564 c 0,36,37
 235 562 235 562 220.5 547 c 128,-1,38
 206 532 206 532 206 473 c 2,0,-1
425 473 m 2,39,-1
 425 257 l 2,40,41
 425 225 425 225 427.5 208.5 c 128,-1,42
 430 192 430 192 439 182 c 128,-1,43
 448 172 448 172 459.5 170 c 128,-1,44
 471 168 471 168 497 166 c 1,45,46
 502 161 502 161 502 149 c 128,-1,47
 502 137 502 137 497 133 c 1,48,49
 427 135 427 135 386 135 c 0,50,51
 348 135 348 135 274 133 c 1,52,53
 270 137 270 137 270 149 c 128,-1,54
 270 161 270 161 274 166 c 1,55,56
 301 168 301 168 312 170.5 c 128,-1,57
 323 173 323 173 332.5 182.5 c 128,-1,58
 342 192 342 192 344 208.5 c 128,-1,59
 346 225 346 225 346 257 c 2,60,-1
 346 473 l 2,61,62
 346 505 346 505 344 521.5 c 128,-1,63
 342 538 342 538 332.5 548 c 128,-1,64
 323 558 323 558 311.5 560 c 128,-1,65
 300 562 300 562 274 564 c 0,66,67
 270 568 270 568 270 580 c 128,-1,68
 270 592 270 592 274 597 c 1,69,70
 352 595 352 595 385 595 c 0,71,72
 421 595 421 595 497 597 c 1,73,74
 502 592 502 592 502 580 c 128,-1,75
 502 568 502 568 497 564 c 0,76,77
 471 562 471 562 460 559.5 c 128,-1,78
 449 557 449 557 439 547.5 c 128,-1,79
 429 538 429 538 427 521.5 c 128,-1,80
 425 505 425 505 425 473 c 2,39,-1
EndSplineSet
Validated: 5
EndChar

StartChar: digit_nine
Encoding: 57465 57465 118
Width: 716
GlyphClass: 2
Flags: W
AnchorPoint: "Anchor-1" 380 750 basechar 0
AnchorPoint: "Anchor-0" 380 -100 basechar 0
LayerCount: 2
Fore
SplineSet
204 473 m 2,0,-1
 204 53 l 2,1,2
 204 2 204 2 195 -37.5 c 128,-1,3
 186 -77 186 -77 168.5 -104 c 128,-1,4
 151 -131 151 -131 137.5 -146 c 128,-1,5
 124 -161 124 -161 102 -179 c 0,6,7
 52 -222 52 -222 -15 -222 c 0,8,9
 -37 -222 -37 -222 -63.5 -207 c 128,-1,10
 -90 -192 -90 -192 -90 -168 c 0,11,12
 -90 -153 -90 -153 -74 -139 c 128,-1,13
 -58 -125 -58 -125 -46 -125 c 0,14,15
 -18 -125 -18 -125 -6 -150 c 0,16,17
 7 -177 7 -177 34 -177 c 0,18,19
 54 -177 54 -177 71 -164 c 128,-1,20
 88 -151 88 -151 103.5 -101.5 c 128,-1,21
 119 -52 119 -52 119 31 c 2,22,-1
 119 473 l 2,23,24
 119 533 119 533 102 547.5 c 128,-1,25
 85 562 85 562 22 564 c 0,26,27
 18 568 18 568 18 580 c 128,-1,28
 18 592 18 592 22 597 c 1,29,30
 122 595 122 595 161 595 c 0,31,32
 205 595 205 595 281 597 c 1,33,34
 286 592 286 592 286 580 c 128,-1,35
 286 568 286 568 281 564 c 0,36,37
 233 562 233 562 218.5 547 c 128,-1,38
 204 532 204 532 204 473 c 2,0,-1
423 473 m 2,39,-1
 423 257 l 2,40,41
 423 225 423 225 425.5 208.5 c 128,-1,42
 428 192 428 192 437 182 c 128,-1,43
 446 172 446 172 457.5 170 c 128,-1,44
 469 168 469 168 495 166 c 1,45,46
 500 161 500 161 500 149 c 128,-1,47
 500 137 500 137 495 133 c 1,48,49
 425 135 425 135 384 135 c 0,50,51
 346 135 346 135 272 133 c 1,52,53
 268 137 268 137 268 149 c 128,-1,54
 268 161 268 161 272 166 c 1,55,56
 299 168 299 168 310 170.5 c 128,-1,57
 321 173 321 173 330.5 182.5 c 128,-1,58
 340 192 340 192 342 208.5 c 128,-1,59
 344 225 344 225 344 257 c 2,60,-1
 344 473 l 2,61,62
 344 505 344 505 342 521.5 c 128,-1,63
 340 538 340 538 330.5 548 c 128,-1,64
 321 558 321 558 309.5 560 c 128,-1,65
 298 562 298 562 272 564 c 0,66,67
 268 568 268 568 268 580 c 128,-1,68
 268 592 268 592 272 597 c 1,69,70
 350 595 350 595 383 595 c 0,71,72
 419 595 419 595 495 597 c 1,73,74
 500 592 500 592 500 580 c 128,-1,75
 500 568 500 568 495 564 c 0,76,77
 469 562 469 562 458 559.5 c 128,-1,78
 447 557 447 557 437 547.5 c 128,-1,79
 427 538 427 538 425 521.5 c 128,-1,80
 423 505 423 505 423 473 c 2,39,-1
606 474 m 2,81,-1
 606 258 l 2,82,83
 606 225 606 225 608 208.5 c 128,-1,84
 610 192 610 192 619.5 182.5 c 128,-1,85
 629 173 629 173 640.5 170.5 c 128,-1,86
 652 168 652 168 678 167 c 1,87,88
 682 162 682 162 682 150 c 128,-1,89
 682 138 682 138 678 134 c 1,90,91
 608 136 608 136 567 136 c 0,92,93
 529 136 529 136 455 134 c 1,94,95
 450 138 450 138 450 150 c 128,-1,96
 450 162 450 162 455 167 c 1,97,98
 481 169 481 169 492 171 c 128,-1,99
 503 173 503 173 513 183 c 128,-1,100
 523 193 523 193 525 209 c 128,-1,101
 527 225 527 225 527 258 c 2,102,-1
 527 474 l 2,103,104
 527 506 527 506 525 522.5 c 128,-1,105
 523 539 523 539 513.5 548.5 c 128,-1,106
 504 558 504 558 492.5 560.5 c 128,-1,107
 481 563 481 563 455 565 c 0,108,109
 450 569 450 569 450 581 c 128,-1,110
 450 593 450 593 455 598 c 1,111,112
 533 596 533 596 566 596 c 0,113,114
 602 596 602 596 678 598 c 1,115,116
 682 593 682 593 682 581 c 128,-1,117
 682 569 682 569 678 565 c 0,118,119
 651 562 651 562 640 560 c 128,-1,120
 629 558 629 558 619.5 548.5 c 128,-1,121
 610 539 610 539 608 522.5 c 128,-1,122
 606 506 606 506 606 474 c 2,81,-1
EndSplineSet
Validated: 5
EndChar

StartChar: digit_ten
Encoding: 57466 57466 119
Width: 444
GlyphClass: 2
Flags: W
AnchorPoint: "Anchor-1" 236 750 basechar 0
AnchorPoint: "Anchor-0" 236 -100 basechar 0
LayerCount: 2
Fore
SplineSet
381 631 m 1,0,1
 394 562 394 562 399 502 c 1,2,3
 386 492 386 492 366 496 c 1,4,5
 348 556 348 556 316 590 c 128,-1,6
 284 624 284 624 218 624 c 0,7,8
 174 624 174 624 141 589.5 c 128,-1,9
 108 555 108 555 108 512 c 0,10,11
 108 488 108 488 119.5 466.5 c 128,-1,12
 131 445 131 445 146 431.5 c 128,-1,13
 161 418 161 418 186.5 404 c 128,-1,14
 212 390 212 390 227.5 383.5 c 128,-1,15
 243 377 243 377 268 368 c 0,16,17
 342 340 342 340 386 298 c 128,-1,18
 430 256 430 256 430 184 c 0,19,20
 430 136 430 136 405 93 c 128,-1,21
 380 50 380 50 336 23 c 0,22,23
 284 -10 284 -10 213 -10 c 0,24,25
 165 -10 165 -10 113 1.5 c 128,-1,26
 61 13 61 13 33 13 c 1,27,28
 18 76 18 76 13 165 c 1,29,30
 29 173 29 173 46 168 c 1,31,32
 78 26 78 26 221 26 c 0,33,34
 281 26 281 26 313.5 57.5 c 128,-1,35
 346 89 346 89 346 149 c 0,36,37
 346 184 346 184 335 209.5 c 128,-1,38
 324 235 324 235 300 252.5 c 128,-1,39
 276 270 276 270 259.5 278 c 128,-1,40
 243 286 243 286 212 298 c 0,41,42
 131 329 131 329 84 371.5 c 128,-1,43
 37 414 37 414 37 485 c 0,44,45
 37 562 37 562 92.5 610 c 128,-1,46
 148 658 148 658 227 658 c 0,47,48
 284 658 284 658 325.5 645.5 c 128,-1,49
 367 633 367 633 381 631 c 1,0,1
EndSplineSet
Validated: 33
EndChar

StartChar: digit_eleven
Encoding: 57467 57467 120
Width: 544
GlyphClass: 2
Flags: W
AnchorPoint: "Anchor-1" 256 750 basechar 0
AnchorPoint: "Anchor-0" 256 -100 basechar 0
LayerCount: 2
Fore
SplineSet
168 41 m 2,0,-1
 394 41 l 1,1,-1
 176 316 l 1,2,-1
 177 321 l 1,3,-1
 437 601 l 1,4,-1
 160 601 l 2,5,6
 107 601 107 601 81 569 c 128,-1,7
 55 537 55 537 37 474 c 1,8,9
 19 471 19 471 4 479 c 1,10,11
 14 584 14 584 30 644 c 1,12,-1
 448 644 l 1,13,-1
 519 646 l 1,14,15
 522 640 522 640 522 629.5 c 128,-1,16
 522 619 522 619 519 613 c 1,17,18
 504 609 504 609 490 592 c 2,19,-1
 269 335 l 1,20,-1
 267 334 l 1,21,-1
 462 68 l 2,22,23
 487 35 487 35 518 30 c 1,24,25
 521 25 521 25 521 14 c 128,-1,26
 521 3 521 3 518 -2 c 1,27,-1
 417 -1 l 1,28,-1
 44 -1 l 1,29,30
 31 58 31 58 23 154 c 1,31,32
 39 162 39 162 56 159 c 1,33,34
 65 132 65 132 69.5 119.5 c 128,-1,35
 74 107 74 107 83.5 88.5 c 128,-1,36
 93 70 93 70 103 62 c 128,-1,37
 113 54 113 54 129.5 47.5 c 128,-1,38
 146 41 146 41 168 41 c 2,0,-1
EndSplineSet
Validated: 33
EndChar

StartChar: digit_twelve
Encoding: 57468 57468 121
Width: 534
GlyphClass: 2
Flags: W
AnchorPoint: "Anchor-1" 256 750 basechar 0
AnchorPoint: "Anchor-0" 256 -100 basechar 0
LayerCount: 2
Fore
SplineSet
267 49 m 2,0,1
 330 49 330 49 342 54.5 c 128,-1,2
 354 60 354 60 354 86 c 2,3,-1
 354 275 l 1,4,-1
 292 275 l 2,5,6
 149 275 149 275 78.5 321.5 c 128,-1,7
 8 368 8 368 8 480 c 0,8,9
 8 567 8 567 71.5 612.5 c 128,-1,10
 135 658 135 658 225 658 c 0,11,12
 258 658 258 658 310 657 c 128,-1,13
 362 656 362 656 395 656 c 0,14,15
 421 656 421 656 509 658 c 1,16,-1
 509 634 l 2,17,18
 509 629 509 629 505 629 c 2,19,-1
 475 626 l 2,20,21
 454 624 454 624 444.5 613.5 c 128,-1,22
 435 603 435 603 435 579 c 2,23,-1
 435 83 l 2,24,25
 435 57 435 57 442.5 50 c 128,-1,26
 450 43 450 43 475 41 c 2,27,-1
 505 38 l 2,28,29
 509 38 509 38 509 34 c 2,30,-1
 509 9 l 1,31,-1
 394 11 l 1,32,-1
 176 11 l 2,33,34
 113 11 113 11 63 -2 c 1,35,-1
 49 151 l 1,36,-1
 75 154 l 1,37,38
 93 92 93 92 119.5 70.5 c 128,-1,39
 146 49 146 49 186 49 c 2,40,-1
 267 49 l 2,0,1
354 578 m 2,41,42
 354 604 354 604 337.5 614 c 128,-1,43
 321 624 321 624 271 624 c 0,44,45
 189 624 189 624 143 583 c 128,-1,46
 97 542 97 542 97 458 c 0,47,48
 97 309 97 309 265 309 c 2,49,-1
 354 309 l 1,50,-1
 354 578 l 2,41,42
EndSplineSet
Validated: 1
EndChar

StartChar: lsd_marker
Encoding: 57469 57469 122
Width: 210
GlyphClass: 4
Flags: W
AnchorPoint: "Anchor-2" 108 -300 basemark 0
AnchorPoint: "Anchor-2" 108 -100 mark 0
AnchorPoint: "Anchor-0" 108 -100 mark 0
LayerCount: 2
Fore
SplineSet
20 -167 m 128,-1,1
 20 -133 20 -133 46.5 -107.5 c 128,-1,2
 73 -82 73 -82 108 -82 c 128,-1,3
 143 -82 143 -82 169.5 -107 c 128,-1,4
 196 -132 196 -132 196 -167 c 0,5,6
 196 -201 196 -201 170 -226.5 c 128,-1,7
 144 -252 144 -252 108 -252 c 0,8,9
 73 -252 73 -252 46.5 -226.5 c 128,-1,0
 20 -201 20 -201 20 -167 c 128,-1,1
108 -114 m 0,10,11
 85 -114 85 -114 72.5 -129 c 128,-1,12
 60 -144 60 -144 60 -167 c 0,13,14
 60 -189 60 -189 73 -204.5 c 128,-1,15
 86 -220 86 -220 108 -220 c 128,-1,16
 130 -220 130 -220 143 -204.5 c 128,-1,17
 156 -189 156 -189 156 -167 c 0,18,19
 156 -143 156 -143 143 -128.5 c 128,-1,20
 130 -114 130 -114 108 -114 c 0,10,11
EndSplineSet
Validated: 1048577
EndChar

StartChar: rightcurl_above_double
Encoding: 65538 -1 123
Width: 0
GlyphClass: 4
Flags: W
AnchorPoint: "Anchor-3" 141 1000 basemark 0
AnchorPoint: "Anchor-3" 141 700 mark 0
AnchorPoint: "Anchor-1" 141 700 mark 0
LayerCount: 2
Fore
SplineSet
300 892 m 0,0,1
 341 892 341 892 375 865.5 c 128,-1,2
 409 839 409 839 409 807 c 0,3,4
 409 797 409 797 401.5 789 c 128,-1,5
 394 781 394 781 383 781 c 128,-1,6
 372 781 372 781 362 790 c 128,-1,7
 352 799 352 799 352 812 c 0,8,9
 352 828 352 828 339 842 c 128,-1,10
 326 856 326 856 308 856 c 0,11,12
 261 856 261 856 261 748 c 2,13,-1
 261 643 l 1,14,-1
 222 643 l 1,15,-1
 222 773 l 2,16,17
 222 892 222 892 300 892 c 0,0,1
100 892 m 0,18,19
 141 892 141 892 175 865.5 c 128,-1,20
 209 839 209 839 209 807 c 0,21,22
 209 797 209 797 201.5 789 c 128,-1,23
 194 781 194 781 183 781 c 128,-1,24
 172 781 172 781 162 790 c 128,-1,25
 152 799 152 799 152 812 c 0,26,27
 152 828 152 828 139 842 c 128,-1,28
 126 856 126 856 108 856 c 0,29,30
 61 856 61 856 61 748 c 2,31,-1
 61 643 l 1,32,-1
 22 643 l 1,33,-1
 22 773 l 2,34,35
 22 892 22 892 100 892 c 0,18,19
EndSplineSet
Validated: 1048577
Ligature2: "'liga' Standard Ligatures lookup 0 subtable" rightcurl_above rightcurl_above
EndChar

StartChar: leftcurl_above_double
Encoding: 65539 -1 124
Width: 0
GlyphClass: 4
Flags: W
AnchorPoint: "Anchor-3" 261 1000 basemark 0
AnchorPoint: "Anchor-3" 261 700 mark 0
AnchorPoint: "Anchor-1" 261 700 mark 0
LayerCount: 2
Fore
SplineSet
308 868 m 0,0,1
 290 868 290 868 277 854 c 128,-1,2
 264 840 264 840 264 824 c 0,3,4
 264 811 264 811 254 802 c 128,-1,5
 244 793 244 793 233 793 c 128,-1,6
 222 793 222 793 214.5 801 c 128,-1,7
 207 809 207 809 207 819 c 0,8,9
 207 850 207 850 240.5 877 c 128,-1,10
 274 904 274 904 316 904 c 0,11,12
 394 904 394 904 394 785 c 2,13,-1
 394 653 l 1,14,-1
 355 653 l 1,15,-1
 355 760 l 2,16,17
 355 868 355 868 308 868 c 0,0,1
108 868 m 0,18,19
 90 868 90 868 77 854 c 128,-1,20
 64 840 64 840 64 824 c 0,21,22
 64 811 64 811 54 802 c 128,-1,23
 44 793 44 793 33 793 c 128,-1,24
 22 793 22 793 14.5 801 c 128,-1,25
 7 809 7 809 7 819 c 0,26,27
 7 850 7 850 40.5 877 c 128,-1,28
 74 904 74 904 116 904 c 0,29,30
 194 904 194 904 194 785 c 2,31,-1
 194 653 l 1,32,-1
 155 653 l 1,33,-1
 155 760 l 2,34,35
 155 868 155 868 108 868 c 0,18,19
EndSplineSet
Validated: 1048577
Ligature2: "'liga' Standard Ligatures lookup 0 subtable" leftcurl_above leftcurl_above
EndChar

StartChar: exclam
Encoding: 33 33 125
Width: 288
GlyphClass: 2
Flags: W
LayerCount: 2
Fore
SplineSet
144 658 m 128,-1,1
 165 658 165 658 181 640 c 128,-1,2
 197 622 197 622 197 585 c 0,3,4
 197 556 197 556 193.5 528.5 c 128,-1,5
 190 501 190 501 183.5 462.5 c 128,-1,6
 177 424 177 424 173 392 c 0,7,8
 167 345 167 345 164 302.5 c 128,-1,9
 161 260 161 260 160 237 c 128,-1,10
 159 214 159 214 158 210 c 0,11,12
 156 190 156 190 144 190 c 128,-1,13
 132 190 132 190 130 203 c 0,14,15
 129 209 129 209 127 241 c 128,-1,16
 125 273 125 273 121.5 315.5 c 128,-1,17
 118 358 118 358 114 392 c 0,18,19
 111 423 111 423 101 484 c 128,-1,20
 91 545 91 545 91 585 c 0,21,22
 91 622 91 622 107 640 c 128,-1,0
 123 658 123 658 144 658 c 128,-1,1
91 43 m 128,-1,24
 91 65 91 65 106.5 80.5 c 128,-1,25
 122 96 122 96 144 96 c 128,-1,26
 166 96 166 96 181.5 80.5 c 128,-1,27
 197 65 197 65 197 43 c 128,-1,28
 197 21 197 21 181.5 5.5 c 128,-1,29
 166 -10 166 -10 144 -10 c 128,-1,30
 122 -10 122 -10 106.5 5.5 c 128,-1,23
 91 21 91 21 91 43 c 128,-1,24
EndSplineSet
Validated: 1
EndChar

StartChar: quotedbl
Encoding: 34 34 126
Width: 336
GlyphClass: 2
Flags: W
LayerCount: 2
Fore
SplineSet
89 426 m 1,0,1
 63 585 63 585 63 594 c 0,2,3
 63 612 63 612 78 628 c 128,-1,4
 93 644 93 644 114 644 c 0,5,6
 149 644 149 644 149 611 c 1,7,-1
 116 430 l 1,8,-1
 89 426 l 1,0,1
215 427 m 1,9,10
 189 586 189 586 189 595 c 0,11,12
 189 613 189 613 204 629 c 128,-1,13
 219 645 219 645 240 645 c 0,14,15
 275 645 275 645 275 612 c 1,16,-1
 242 431 l 1,17,-1
 215 427 l 1,9,10
EndSplineSet
Validated: 1
EndChar

StartChar: numbersign
Encoding: 35 35 127
Width: 465
GlyphClass: 2
Flags: W
LayerCount: 2
Fore
SplineSet
335 360 m 1,0,-1
 316 245 l 1,1,-1
 411 245 l 1,2,-1
 404 192 l 1,3,-1
 310 192 l 1,4,-1
 280 14 l 1,5,-1
 242 14 l 1,6,-1
 269 192 l 1,7,-1
 157 192 l 1,8,-1
 128 14 l 1,9,-1
 91 14 l 1,10,-1
 119 192 l 1,11,-1
 26 192 l 1,12,-1
 34 245 l 1,13,-1
 128 245 l 1,14,-1
 146 360 l 1,15,-1
 53 360 l 1,16,-1
 61 413 l 1,17,-1
 154 413 l 1,18,-1
 183 592 l 1,19,-1
 221 592 l 1,20,-1
 191 413 l 1,21,-1
 305 413 l 1,22,-1
 333 592 l 1,23,-1
 371 592 l 1,24,-1
 342 413 l 1,25,-1
 438 413 l 1,26,-1
 430 360 l 1,27,-1
 335 360 l 1,0,-1
279 245 m 1,28,-1
 297 360 l 1,29,-1
 184 360 l 1,30,-1
 165 245 l 1,31,-1
 279 245 l 1,28,-1
EndSplineSet
Validated: 1
EndChar

StartChar: dollar
Encoding: 36 36 128
Width: 465
GlyphClass: 2
Flags: W
LayerCount: 2
Fore
SplineSet
371 585 m 1,0,1
 384 520 384 520 388 465 c 1,2,3
 381 459 381 459 361 459 c 2,4,-1
 357 459 l 1,5,6
 342 506 342 506 320 535.5 c 128,-1,7
 298 565 298 565 255 575 c 1,8,-1
 243 351 l 1,9,10
 287 334 287 334 289 333 c 0,11,12
 417 278 417 278 417 171 c 0,13,14
 417 127 417 127 393.5 86.5 c 128,-1,15
 370 46 370 46 330 21 c 0,16,17
 285 -7 285 -7 223 -9 c 1,18,-1
 219 -93 l 1,19,20
 209 -98 209 -98 182 -98 c 1,21,-1
 187 -8 l 1,22,23
 157 -6 157 -6 116 3 c 128,-1,24
 75 12 75 12 48 12 c 1,25,26
 33 73 33 73 29 153 c 1,27,28
 44 161 44 161 59 156 c 1,29,30
 85 41 85 41 188 26 c 1,31,-1
 202 281 l 2,32,33
 199 283 199 283 186 288 c 0,34,35
 51 346 51 346 51 451 c 0,36,37
 51 521 51 521 100.5 564.5 c 128,-1,38
 150 608 150 608 220 610 c 1,39,-1
 225 690 l 1,40,41
 240 695 240 695 262 695 c 1,42,-1
 257 609 l 1,43,44
 292 607 292 607 322 597 c 128,-1,45
 352 587 352 587 371 585 c 1,0,1
238 268 m 1,46,-1
 225 24 l 1,47,48
 280 25 280 25 309.5 54.5 c 128,-1,49
 339 84 339 84 339 139 c 0,50,51
 339 192 339 192 312 220.5 c 128,-1,52
 285 249 285 249 238 268 c 1,46,-1
207 367 m 1,53,-1
 219 578 l 1,54,55
 178 577 178 577 148 546 c 128,-1,56
 118 515 118 515 118 476 c 0,57,58
 118 411 118 411 207 367 c 1,53,-1
EndSplineSet
Validated: 1
EndChar

StartChar: percent
Encoding: 37 37 129
Width: 637
GlyphClass: 2
Flags: W
LayerCount: 2
Fore
SplineSet
364 521 m 0,0,1
 404 521 404 521 448.5 534 c 128,-1,2
 493 547 493 547 514 575 c 1,3,-1
 546 559 l 1,4,-1
 136 -12 l 1,5,-1
 102 3 l 1,6,-1
 461 503 l 1,7,8
 413 484 413 484 354 484 c 0,9,10
 310 484 310 484 274 505 c 1,11,12
 277 494 277 494 277 480 c 0,13,14
 277 422 277 422 241.5 362.5 c 128,-1,15
 206 303 206 303 149 303 c 0,16,17
 106 303 106 303 81.5 336.5 c 128,-1,18
 57 370 57 370 57 412 c 0,19,20
 57 478 57 478 96.5 524.5 c 128,-1,21
 136 571 136 571 190 571 c 0,22,23
 210 571 210 571 229.5 563.5 c 128,-1,24
 249 556 249 556 257 546 c 1,25,26
 311 521 311 521 364 521 c 0,0,1
378 98 m 0,27,28
 378 160 378 160 417.5 208 c 128,-1,29
 457 256 457 256 512 256 c 0,30,31
 548 256 548 256 573 235.5 c 128,-1,32
 598 215 598 215 598 165 c 0,33,34
 598 106 598 106 563 47 c 128,-1,35
 528 -12 528 -12 471 -12 c 0,36,37
 428 -12 428 -12 403 21.5 c 128,-1,38
 378 55 378 55 378 98 c 0,27,28
111 398 m 0,39,40
 111 363 111 363 124.5 348.5 c 128,-1,41
 138 334 138 334 155 334 c 0,42,43
 193 334 193 334 218.5 382 c 128,-1,44
 244 430 244 430 244 479 c 0,45,46
 244 540 244 540 201 540 c 0,47,48
 166 540 166 540 138.5 492.5 c 128,-1,49
 111 445 111 445 111 398 c 0,39,40
433 83 m 0,50,51
 433 19 433 19 477 19 c 0,52,53
 515 19 515 19 540 67.5 c 128,-1,54
 565 116 565 116 565 164 c 0,55,56
 565 198 565 198 551.5 211.5 c 128,-1,57
 538 225 538 225 523 225 c 0,58,59
 488 225 488 225 460.5 177.5 c 128,-1,60
 433 130 433 130 433 83 c 0,50,51
EndSplineSet
Validated: 1
EndChar

StartChar: ampersand
Encoding: 38 38 130
Width: 705
GlyphClass: 2
Flags: W
LayerCount: 2
Fore
SplineSet
421 94 m 1,0,1
 345 -10 345 -10 235 -10 c 0,2,3
 148 -10 148 -10 95.5 30 c 128,-1,4
 43 70 43 70 43 156 c 0,5,6
 43 216 43 216 86.5 268.5 c 128,-1,7
 130 321 130 321 228 376 c 1,8,9
 177 464 177 464 177 517 c 0,10,11
 177 566 177 566 219 606.5 c 128,-1,12
 261 647 261 647 331 647 c 0,13,14
 384 647 384 647 421.5 616.5 c 128,-1,15
 459 586 459 586 459 539 c 0,16,17
 459 499 459 499 417 454 c 128,-1,18
 375 409 375 409 310 371 c 1,19,-1
 314 363 l 1,20,21
 345 310 345 310 436 187 c 1,22,23
 477 248 477 248 513 315 c 0,24,25
 532 350 532 350 533 366 c 128,-1,26
 534 382 534 382 523 386.5 c 128,-1,27
 512 391 512 391 482 393 c 1,28,29
 478 398 478 398 478 410 c 128,-1,30
 478 422 478 422 482 426 c 1,31,32
 522 424 522 424 577 424 c 0,33,34
 621 424 621 424 661 426 c 1,35,36
 666 422 666 422 666 410 c 128,-1,37
 666 398 666 398 661 393 c 1,38,39
 615 390 615 390 598 376.5 c 128,-1,40
 581 363 581 363 547 302 c 0,41,42
 495 210 495 210 458 157 c 1,43,-1
 494 107 l 2,44,45
 516 77 516 77 537 60.5 c 128,-1,46
 558 44 558 44 571 44 c 0,47,48
 619 44 619 44 647 98 c 1,49,50
 658 98 658 98 668 88 c 1,51,52
 652 39 652 39 623 14.5 c 128,-1,53
 594 -10 594 -10 565 -10 c 0,54,55
 545 -10 545 -10 531 -7.5 c 128,-1,56
 517 -5 517 -5 494.5 11 c 128,-1,57
 472 27 472 27 450 57 c 2,58,-1
 421 94 l 1,0,1
250 338 m 1,59,60
 177 298 177 298 151 256 c 128,-1,61
 125 214 125 214 125 156 c 0,62,63
 125 87 125 87 157.5 55 c 128,-1,64
 190 23 190 23 242 23 c 0,65,66
 292 23 292 23 324.5 46.5 c 128,-1,67
 357 70 357 70 398 126 c 1,68,69
 357 180 357 180 308 250.5 c 128,-1,70
 259 321 259 321 250 338 c 1,59,60
289 409 m 1,71,72
 336 440 336 440 363 475.5 c 128,-1,73
 390 511 390 511 390 539 c 0,74,75
 390 573 390 573 373 593.5 c 128,-1,76
 356 614 356 614 326 614 c 0,77,78
 302 614 302 614 276.5 589 c 128,-1,79
 251 564 251 564 251 519 c 0,80,81
 251 481 251 481 289 409 c 1,71,72
EndSplineSet
Validated: 1
EndChar

StartChar: quotesingle
Encoding: 39 39 131
Width: 190
GlyphClass: 2
Flags: W
LayerCount: 2
Fore
SplineSet
79 426 m 1,0,1
 53 585 53 585 53 594 c 0,2,3
 53 612 53 612 68 628 c 128,-1,4
 83 644 83 644 104 644 c 0,5,6
 139 644 139 644 139 611 c 1,7,-1
 106 430 l 1,8,-1
 79 426 l 1,0,1
EndSplineSet
Validated: 1
EndChar

StartChar: parenleft
Encoding: 40 40 132
Width: 298
GlyphClass: 2
Flags: W
LayerCount: 2
Fore
SplineSet
44 252 m 0,0,1
 44 386 44 386 103 506 c 128,-1,2
 162 626 162 626 256 707 c 1,3,4
 272 706 272 706 277 689 c 1,5,6
 127 520 127 520 127 252 c 0,7,8
 127 -14 127 -14 277 -187 c 1,9,10
 272 -201 272 -201 256 -204 c 1,11,12
 197 -153 197 -153 154.5 -91 c 128,-1,13
 112 -29 112 -29 91.5 20.5 c 128,-1,14
 71 70 71 70 59 124.5 c 128,-1,15
 47 179 47 179 45.5 203.5 c 128,-1,16
 44 228 44 228 44 252 c 0,0,1
EndSplineSet
Validated: 1
EndChar

StartChar: parenright
Encoding: 41 41 133
Width: 298
GlyphClass: 2
Flags: W
LayerCount: 2
Fore
SplineSet
254 252 m 0,0,1
 254 118 254 118 195 -2 c 128,-1,2
 136 -122 136 -122 42 -203 c 1,3,4
 26 -202 26 -202 21 -185 c 1,5,6
 171 -16 171 -16 171 252 c 0,7,8
 171 518 171 518 21 691 c 1,9,10
 26 705 26 705 42 708 c 1,11,12
 101 657 101 657 143.5 595 c 128,-1,13
 186 533 186 533 206.5 483.5 c 128,-1,14
 227 434 227 434 239 379.5 c 128,-1,15
 251 325 251 325 252.5 300.5 c 128,-1,16
 254 276 254 276 254 252 c 0,0,1
EndSplineSet
Validated: 1
EndChar

StartChar: asterisk
Encoding: 42 42 134
Width: 369
GlyphClass: 2
Flags: W
LayerCount: 2
Fore
SplineSet
168 547 m 1,0,1
 151 551 151 551 126 551 c 0,2,3
 45 551 45 551 45 588 c 0,4,5
 45 600 45 600 53 609 c 128,-1,6
 61 618 61 618 78 618 c 0,7,8
 97 618 97 618 126.5 596 c 128,-1,9
 156 574 156 574 174 567 c 1,10,11
 172 587 172 587 161.5 616.5 c 128,-1,12
 151 646 151 646 151 659 c 0,13,14
 151 675 151 675 159.5 686.5 c 128,-1,15
 168 698 168 698 181 698 c 0,16,17
 214 698 214 698 214 663 c 0,18,19
 214 649 214 649 205 614.5 c 128,-1,20
 196 580 196 580 195 566 c 1,21,22
 214 574 214 574 243 596 c 128,-1,23
 272 618 272 618 290 618 c 128,-1,24
 308 618 308 618 316 608 c 128,-1,25
 324 598 324 598 324 588 c 0,26,27
 324 551 324 551 255 551 c 0,28,29
 224 551 224 551 200 547 c 1,30,31
 212 534 212 534 235 518.5 c 128,-1,32
 258 503 258 503 270.5 490.5 c 128,-1,33
 283 478 283 478 283 460 c 0,34,35
 283 447 283 447 274 439 c 128,-1,36
 265 431 265 431 254 431 c 0,37,38
 237 431 237 431 225.5 447 c 128,-1,39
 214 463 214 463 202.5 492.5 c 128,-1,40
 191 522 191 522 183 535 c 1,41,42
 176 522 176 522 164 491 c 128,-1,43
 152 460 152 460 141 445.5 c 128,-1,44
 130 431 130 431 113 431 c 0,45,46
 100 431 100 431 92 439.5 c 128,-1,47
 84 448 84 448 84 459 c 0,48,49
 84 478 84 478 97 491 c 128,-1,50
 110 504 110 504 133 518.5 c 128,-1,51
 156 533 156 533 168 547 c 1,0,1
EndSplineSet
Validated: 1
EndChar

StartChar: plus
Encoding: 43 43 135
Width: 550
GlyphClass: 2
Flags: W
LayerCount: 2
Fore
SplineSet
250 435 m 2,0,1
 250 444 250 444 262.5 453 c 128,-1,2
 275 462 275 462 283 462 c 0,3,4
 300 462 300 462 300 448 c 2,5,-1
 300 276 l 1,6,-1
 476 276 l 2,7,8
 490 276 490 276 490 259 c 0,9,10
 490 251 490 251 481 238.5 c 128,-1,11
 472 226 472 226 463 226 c 2,12,-1
 300 226 l 1,13,-1
 300 66 l 2,14,15
 300 57 300 57 288.5 49 c 128,-1,16
 277 41 277 41 266 41 c 0,17,18
 250 41 250 41 250 56 c 2,19,-1
 250 226 l 1,20,-1
 75 226 l 2,21,22
 60 226 60 226 60 242 c 0,23,24
 60 253 60 253 68 264.5 c 128,-1,25
 76 276 76 276 85 276 c 2,26,-1
 250 276 l 1,27,-1
 250 435 l 2,0,1
EndSplineSet
Validated: 1
EndChar

StartChar: comma
Encoding: 44 44 136
Width: 220
GlyphClass: 2
Flags: W
LayerCount: 2
Fore
SplineSet
104 95 m 0,0,1
 134 95 134 95 152 68 c 128,-1,2
 170 41 170 41 170 -4 c 0,3,4
 170 -54 170 -54 135 -89 c 128,-1,5
 100 -124 100 -124 52 -133 c 1,6,7
 43 -124 43 -124 43 -109 c 1,8,9
 79 -100 79 -100 105 -73.5 c 128,-1,10
 131 -47 131 -47 131 -29 c 0,11,12
 131 -2 131 -2 95 2 c 0,13,14
 51 9 51 9 51 46 c 0,15,16
 51 67 51 67 66 81 c 128,-1,17
 81 95 81 95 104 95 c 0,0,1
EndSplineSet
Validated: 1
EndChar

StartChar: hyphen
Encoding: 45 45 137
Width: 338
GlyphClass: 2
Flags: W
LayerCount: 2
Fore
SplineSet
271 223 m 2,0,-1
 55 223 l 2,1,2
 40 223 40 223 40 242 c 0,3,4
 40 256 40 256 48 269.5 c 128,-1,5
 56 283 56 283 65 283 c 2,6,-1
 284 283 l 2,7,8
 298 283 298 283 298 263 c 0,9,10
 298 253 298 253 289 238 c 128,-1,11
 280 223 280 223 271 223 c 2,0,-1
EndSplineSet
Validated: 1
EndChar

StartChar: period
Encoding: 46 46 138
Width: 220
GlyphClass: 2
Flags: W
LayerCount: 2
Fore
SplineSet
57 43 m 128,-1,1
 57 65 57 65 72.5 80.5 c 128,-1,2
 88 96 88 96 110 96 c 128,-1,3
 132 96 132 96 147.5 80.5 c 128,-1,4
 163 65 163 65 163 43 c 128,-1,5
 163 21 163 21 147.5 5.5 c 128,-1,6
 132 -10 132 -10 110 -10 c 128,-1,7
 88 -10 88 -10 72.5 5.5 c 128,-1,0
 57 21 57 21 57 43 c 128,-1,1
EndSplineSet
Validated: 1
EndChar

StartChar: slash
Encoding: 47 47 139
Width: 323
GlyphClass: 2
Flags: W
LayerCount: 2
Fore
SplineSet
293 646 m 1,0,-1
 56 -59 l 1,1,-1
 15 -59 l 1,2,-1
 252 646 l 1,3,-1
 293 646 l 1,0,-1
EndSplineSet
Validated: 1
EndChar

StartChar: semicolon
Encoding: 59 59 140
Width: 236
GlyphClass: 2
Flags: W
LayerCount: 2
Fore
SplineSet
123 95 m 0,0,1
 153 95 153 95 171 68 c 128,-1,2
 189 41 189 41 189 -4 c 0,3,4
 189 -54 189 -54 154 -89 c 128,-1,5
 119 -124 119 -124 71 -133 c 1,6,7
 62 -124 62 -124 62 -109 c 1,8,9
 98 -100 98 -100 124 -73.5 c 128,-1,10
 150 -47 150 -47 150 -29 c 0,11,12
 150 -2 150 -2 114 2 c 0,13,14
 70 9 70 9 70 46 c 0,15,16
 70 67 70 67 85 81 c 128,-1,17
 100 95 100 95 123 95 c 0,0,1
70 355 m 128,-1,19
 70 377 70 377 85.5 392.5 c 128,-1,20
 101 408 101 408 123 408 c 128,-1,21
 145 408 145 408 160.5 392.5 c 128,-1,22
 176 377 176 377 176 355 c 128,-1,23
 176 333 176 333 160.5 317.5 c 128,-1,24
 145 302 145 302 123 302 c 128,-1,25
 101 302 101 302 85.5 317.5 c 128,-1,18
 70 333 70 333 70 355 c 128,-1,19
EndSplineSet
Validated: 1
EndChar

StartChar: less
Encoding: 60 60 141
Width: 550
GlyphClass: 2
Flags: W
LayerCount: 2
Fore
SplineSet
138 239 m 1,0,-1
 455 123 l 1,1,2
 465 112 465 112 465 95 c 128,-1,3
 465 78 465 78 455 73 c 1,4,-1
 65 215 l 1,5,6
 52 238 52 238 65 263 c 1,7,-1
 455 404 l 1,8,9
 465 399 465 399 465 382 c 128,-1,10
 465 365 465 365 455 354 c 1,11,-1
 138 239 l 1,0,-1
EndSplineSet
Validated: 33
EndChar

StartChar: equal
Encoding: 61 61 142
Width: 550
GlyphClass: 2
Flags: W
LayerCount: 2
Fore
SplineSet
464 309 m 2,0,-1
 75 309 l 2,1,2
 60 309 60 309 60 325 c 0,3,4
 60 336 60 336 68 347.5 c 128,-1,5
 76 359 76 359 85 359 c 2,6,-1
 477 359 l 2,7,8
 491 359 491 359 491 342 c 0,9,10
 491 334 491 334 482 321.5 c 128,-1,11
 473 309 473 309 464 309 c 2,0,-1
464 143 m 2,12,-1
 75 143 l 2,13,14
 60 143 60 143 60 159 c 0,15,16
 60 170 60 170 68 181.5 c 128,-1,17
 76 193 76 193 85 193 c 2,18,-1
 477 193 l 2,19,20
 491 193 491 193 491 176 c 0,21,22
 491 168 491 168 482 155.5 c 128,-1,23
 473 143 473 143 464 143 c 2,12,-1
EndSplineSet
Validated: 1
EndChar

StartChar: greater
Encoding: 62 62 143
Width: 550
GlyphClass: 2
Flags: W
LayerCount: 2
Fore
SplineSet
412 236 m 1,0,-1
 95 352 l 1,1,2
 85 363 85 363 85 380 c 128,-1,3
 85 397 85 397 95 402 c 1,4,-1
 485 260 l 1,5,6
 498 238 498 238 485 212 c 1,7,-1
 95 71 l 1,8,9
 85 76 85 76 85 93 c 128,-1,10
 85 110 85 110 95 121 c 1,11,-1
 412 236 l 1,0,-1
EndSplineSet
Validated: 33
EndChar

StartChar: question
Encoding: 63 63 144
Width: 435
GlyphClass: 2
Flags: W
LayerCount: 2
Fore
SplineSet
114 572 m 0,0,1
 114 554 114 554 120 546 c 128,-1,2
 126 538 126 538 126 522 c 128,-1,3
 126 506 126 506 114 496.5 c 128,-1,4
 102 487 102 487 87 487 c 0,5,6
 71 487 71 487 58.5 497 c 128,-1,7
 46 507 46 507 46 530 c 0,8,9
 46 579 46 579 97 620 c 0,10,11
 142 659 142 659 221 659 c 0,12,13
 297 659 297 659 343 617.5 c 128,-1,14
 389 576 389 576 389 508 c 0,15,16
 389 480 389 480 380 456 c 128,-1,17
 371 432 371 432 351 411.5 c 128,-1,18
 331 391 331 391 318 380 c 128,-1,19
 305 369 305 369 280 351 c 0,20,21
 238 320 238 320 228 301 c 0,22,23
 214 274 214 274 214 228 c 2,24,-1
 214 184 l 2,25,26
 214 174 214 174 197 174 c 0,27,28
 181 174 181 174 181 184 c 2,29,-1
 181 230 l 2,30,31
 181 327 181 327 251 391 c 0,32,33
 281 419 281 419 293.5 444 c 128,-1,34
 306 469 306 469 306 504 c 0,35,36
 306 554 306 554 279.5 590 c 128,-1,37
 253 626 253 626 211 626 c 128,-1,38
 169 626 169 626 141.5 610.5 c 128,-1,39
 114 595 114 595 114 572 c 0,0,1
144 43 m 128,-1,41
 144 65 144 65 159.5 80.5 c 128,-1,42
 175 96 175 96 197 96 c 128,-1,43
 219 96 219 96 234.5 80.5 c 128,-1,44
 250 65 250 65 250 43 c 128,-1,45
 250 21 250 21 234.5 5.5 c 128,-1,46
 219 -10 219 -10 197 -10 c 128,-1,47
 175 -10 175 -10 159.5 5.5 c 128,-1,40
 144 21 144 21 144 43 c 128,-1,41
EndSplineSet
Validated: 1
EndChar

StartChar: bracketleft
Encoding: 91 91 145
Width: 356
GlyphClass: 2
Flags: W
LayerCount: 2
Fore
SplineSet
108 -193 m 1,0,-1
 108 703 l 1,1,-1
 320 703 l 1,2,3
 324 698 324 698 324 688 c 128,-1,4
 324 678 324 678 320 673 c 1,5,6
 249 668 249 668 220 657.5 c 128,-1,7
 191 647 191 647 183 628 c 128,-1,8
 175 609 175 609 175 561 c 2,9,-1
 175 -50 l 2,10,11
 175 -87 175 -87 178 -103.5 c 128,-1,12
 181 -120 181 -120 196.5 -134.5 c 128,-1,13
 212 -149 212 -149 239 -154 c 128,-1,14
 266 -159 266 -159 320 -163 c 1,15,16
 324 -168 324 -168 324 -178 c 128,-1,17
 324 -188 324 -188 320 -193 c 1,18,-1
 108 -193 l 1,0,-1
EndSplineSet
Validated: 1
EndChar

StartChar: backslash
Encoding: 92 92 146
Width: 287
GlyphClass: 2
Flags: W
LayerCount: 2
Fore
SplineSet
55 698 m 1,0,-1
 285 -48 l 1,1,-1
 241 -48 l 1,2,-1
 11 698 l 1,3,-1
 55 698 l 1,0,-1
EndSplineSet
Validated: 1
EndChar

StartChar: bracketright
Encoding: 93 93 147
Width: 356
GlyphClass: 2
Flags: W
LayerCount: 2
Fore
SplineSet
248 704 m 1,0,-1
 248 -192 l 1,1,-1
 36 -192 l 1,2,3
 32 -188 32 -188 32 -177 c 128,-1,4
 32 -166 32 -166 36 -162 c 0,5,6
 107 -157 107 -157 136 -146.5 c 128,-1,7
 165 -136 165 -136 173 -117 c 128,-1,8
 181 -98 181 -98 181 -50 c 2,9,-1
 181 561 l 2,10,11
 181 598 181 598 178 614.5 c 128,-1,12
 175 631 175 631 159.5 645.5 c 128,-1,13
 144 660 144 660 117 665 c 128,-1,14
 90 670 90 670 36 674 c 0,15,16
 32 678 32 678 32 689 c 128,-1,17
 32 700 32 700 36 704 c 1,18,-1
 248 704 l 1,0,-1
EndSplineSet
Validated: 1
EndChar

StartChar: asciicircum
Encoding: 94 94 148
Width: 518
GlyphClass: 2
Flags: W
LayerCount: 2
Fore
SplineSet
259 593 m 1,0,-1
 157 346 l 1,1,-1
 112 346 l 1,2,-1
 239 650 l 1,3,-1
 281 650 l 1,4,-1
 407 346 l 1,5,-1
 362 346 l 1,6,-1
 259 593 l 1,0,-1
EndSplineSet
Validated: 1
EndChar

StartChar: underscore
Encoding: 95 95 149
Width: 486
GlyphClass: 2
Flags: W
LayerCount: 2
Fore
SplineSet
476 -110 m 1,0,1
 482 -116 482 -116 482 -132 c 128,-1,2
 482 -148 482 -148 476 -154 c 1,3,-1
 10 -154 l 1,4,5
 4 -148 4 -148 4 -132 c 128,-1,6
 4 -116 4 -116 10 -110 c 1,7,-1
 476 -110 l 1,0,1
EndSplineSet
Validated: 1
EndChar

StartChar: grave
Encoding: 96 96 150
Width: 392
GlyphClass: 2
Flags: W
LayerCount: 2
Fore
SplineSet
178 699 m 1,0,-1
 248 573 l 2,1,2
 254 561 254 561 254 549 c 0,3,4
 254 545 254 545 249.5 541.5 c 128,-1,5
 245 538 245 538 239 538 c 0,6,7
 231 538 231 538 210 558 c 2,8,-1
 96 667 l 1,9,-1
 98 678 l 1,10,11
 129 701 129 701 163 701 c 0,12,13
 170 701 170 701 178 699 c 1,0,-1
EndSplineSet
Validated: 1
EndChar

StartChar: braceleft
Encoding: 123 123 151
Width: 277
GlyphClass: 2
Flags: W
LayerCount: 2
Fore
SplineSet
178 552 m 2,0,-1
 186 386 l 2,1,2
 189 324 189 324 163 294.5 c 128,-1,3
 137 265 137 265 81 249 c 1,4,-1
 81 245 l 1,5,6
 136 222 136 222 162.5 187.5 c 128,-1,7
 189 153 189 153 186 95 c 2,8,-1
 178 -54 l 2,9,10
 175 -114 175 -114 199 -151 c 128,-1,11
 223 -188 223 -188 258 -188 c 1,12,13
 262 -192 262 -192 262 -200 c 128,-1,14
 262 -208 262 -208 258 -212 c 1,15,16
 177 -212 177 -212 139.5 -177 c 128,-1,17
 102 -142 102 -142 106 -49 c 2,18,-1
 112 121 l 2,19,20
 115 223 115 223 14 235 c 1,21,22
 2 247 2 247 14 259 c 1,23,24
 65 264 65 264 88.5 295.5 c 128,-1,25
 112 327 112 327 112 370 c 2,26,-1
 106 554 l 2,27,28
 101 707 101 707 258 707 c 1,29,30
 262 702 262 702 262 695 c 128,-1,31
 262 688 262 688 258 683 c 0,32,33
 239 678 239 678 228 672 c 128,-1,34
 217 666 217 666 202.5 652.5 c 128,-1,35
 188 639 188 639 182 614 c 128,-1,36
 176 589 176 589 178 552 c 2,0,-1
EndSplineSet
Validated: 33
EndChar

StartChar: bar
Encoding: 124 124 152
Width: 205
GlyphClass: 2
Flags: W
LayerCount: 2
Fore
SplineSet
125 -232 m 1,0,-1
 81 -232 l 1,1,-1
 81 698 l 1,2,-1
 125 698 l 1,3,-1
 125 -232 l 1,0,-1
EndSplineSet
Validated: 1
EndChar

StartChar: braceright
Encoding: 125 125 153
Width: 277
GlyphClass: 2
Flags: W
LayerCount: 2
Fore
SplineSet
95 -58 m 2,0,-1
 87 108 l 2,1,2
 84 170 84 170 110 199.5 c 128,-1,3
 136 229 136 229 192 245 c 1,4,-1
 192 249 l 1,5,6
 137 272 137 272 110.5 306.5 c 128,-1,7
 84 341 84 341 87 399 c 2,8,-1
 95 548 l 2,9,10
 99 608 99 608 74.5 645 c 128,-1,11
 50 682 50 682 15 682 c 1,12,13
 10 686 10 686 10 694 c 128,-1,14
 10 702 10 702 15 706 c 1,15,16
 96 706 96 706 133.5 671 c 128,-1,17
 171 636 171 636 167 543 c 2,18,-1
 161 373 l 2,19,20
 158 271 158 271 259 259 c 1,21,22
 271 247 271 247 259 235 c 1,23,24
 208 230 208 230 184.5 198.5 c 128,-1,25
 161 167 161 167 161 124 c 2,26,-1
 167 -60 l 2,27,28
 172 -213 172 -213 15 -213 c 1,29,30
 10 -208 10 -208 10 -201 c 128,-1,31
 10 -194 10 -194 15 -189 c 0,32,33
 34 -184 34 -184 45 -178 c 128,-1,34
 56 -172 56 -172 70.5 -158.5 c 128,-1,35
 85 -145 85 -145 91 -120 c 128,-1,36
 97 -95 97 -95 95 -58 c 2,0,-1
EndSplineSet
Validated: 33
EndChar

StartChar: asciitilde
Encoding: 126 126 154
Width: 449
GlyphClass: 2
Flags: W
LayerCount: 2
Fore
SplineSet
26 209 m 1,0,1
 36 260 36 260 73 298.5 c 128,-1,2
 110 337 110 337 154 337 c 0,3,4
 186 337 186 337 229 305 c 0,5,6
 274 272 274 272 301 272 c 0,7,8
 327 272 327 272 356 288.5 c 128,-1,9
 385 305 385 305 400 339 c 1,10,11
 412 339 412 339 417 333 c 1,12,13
 403 284 403 284 377 255 c 128,-1,14
 351 226 351 226 332.5 219.5 c 128,-1,15
 314 213 314 213 297 213 c 0,16,17
 265 213 265 213 221 246 c 0,18,19
 178 278 178 278 148 278 c 0,20,21
 121 278 121 278 90.5 257.5 c 128,-1,22
 60 237 60 237 43 205 c 1,23,24
 34 205 34 205 26 209 c 1,0,1
EndSplineSet
Validated: 1
EndChar

StartChar: exclamdown
Encoding: 161 161 156
Width: 288
GlyphClass: 2
Flags: W
LayerCount: 2
Fore
SplineSet
144 -229 m 128,-1,1
 123 -229 123 -229 107 -211 c 128,-1,2
 91 -193 91 -193 91 -156 c 0,3,4
 91 -127 91 -127 94.5 -99.5 c 128,-1,5
 98 -72 98 -72 104.5 -33.5 c 128,-1,6
 111 5 111 5 115 37 c 0,7,8
 121 84 121 84 124 126.5 c 128,-1,9
 127 169 127 169 128 192 c 128,-1,10
 129 215 129 215 130 219 c 0,11,12
 132 239 132 239 144 239 c 128,-1,13
 156 239 156 239 158 226 c 0,14,15
 159 220 159 220 161 188 c 128,-1,16
 163 156 163 156 166.5 113.5 c 128,-1,17
 170 71 170 71 174 37 c 0,18,19
 177 6 177 6 187 -55 c 128,-1,20
 197 -116 197 -116 197 -156 c 0,21,22
 197 -193 197 -193 181 -211 c 128,-1,0
 165 -229 165 -229 144 -229 c 128,-1,1
91 386 m 128,-1,24
 91 408 91 408 106.5 423.5 c 128,-1,25
 122 439 122 439 144 439 c 128,-1,26
 166 439 166 439 181.5 423.5 c 128,-1,27
 197 408 197 408 197 386 c 128,-1,28
 197 364 197 364 181.5 348.5 c 128,-1,29
 166 333 166 333 144 333 c 128,-1,30
 122 333 122 333 106.5 348.5 c 128,-1,23
 91 364 91 364 91 386 c 128,-1,24
EndSplineSet
Validated: 1
EndChar

StartChar: brokenbar
Encoding: 166 166 157
Width: 211
GlyphClass: 2
Flags: W
LayerCount: 2
Fore
SplineSet
130 161 m 1,0,-1
 130 -201 l 1,1,-1
 81 -201 l 1,2,-1
 81 161 l 1,3,-1
 130 161 l 1,0,-1
130 674 m 1,4,-1
 130 312 l 1,5,-1
 81 312 l 1,6,-1
 81 674 l 1,7,-1
 130 674 l 1,4,-1
EndSplineSet
Validated: 1
EndChar

StartChar: section
Encoding: 167 167 158
Width: 473
GlyphClass: 2
Flags: W
LayerCount: 2
Fore
SplineSet
125 415 m 1,0,1
 80 460 80 460 80 526 c 0,2,3
 80 579 80 579 121.5 618.5 c 128,-1,4
 163 658 163 658 236 658 c 0,5,6
 302 658 302 658 338.5 625 c 128,-1,7
 375 592 375 592 375 557 c 0,8,9
 375 519 375 519 339 519 c 0,10,11
 309 519 309 519 298 560 c 0,12,13
 289 593 289 593 274.5 610 c 128,-1,14
 260 627 260 627 230 627 c 0,15,16
 195 627 195 627 172 604 c 128,-1,17
 149 581 149 581 149 546 c 0,18,19
 149 476 149 476 240 427 c 0,20,21
 244 425 244 425 266 413.5 c 128,-1,22
 288 402 288 402 294.5 398 c 128,-1,23
 301 394 301 394 321 382.5 c 128,-1,24
 341 371 341 371 348.5 363.5 c 128,-1,25
 356 356 356 356 371.5 343 c 128,-1,26
 387 330 387 330 393.5 318 c 128,-1,27
 400 306 400 306 408.5 290.5 c 128,-1,28
 417 275 417 275 420 257 c 128,-1,29
 423 239 423 239 423 219 c 0,30,31
 423 131 423 131 348 71 c 1,32,33
 393 26 393 26 393 -40 c 0,34,35
 393 -93 393 -93 351.5 -132.5 c 128,-1,36
 310 -172 310 -172 237 -172 c 0,37,38
 171 -172 171 -172 134.5 -139 c 128,-1,39
 98 -106 98 -106 98 -71 c 0,40,41
 98 -33 98 -33 134 -33 c 0,42,43
 164 -33 164 -33 175 -74 c 0,44,45
 184 -107 184 -107 198.5 -124 c 128,-1,46
 213 -141 213 -141 243 -141 c 0,47,48
 278 -141 278 -141 301 -118 c 128,-1,49
 324 -95 324 -95 324 -60 c 0,50,51
 324 10 324 10 233 59 c 0,52,53
 229 61 229 61 207 72.5 c 128,-1,54
 185 84 185 84 178.5 88 c 128,-1,55
 172 92 172 92 152 103.5 c 128,-1,56
 132 115 132 115 124.5 122.5 c 128,-1,57
 117 130 117 130 101.5 143 c 128,-1,58
 86 156 86 156 79.5 168 c 128,-1,59
 73 180 73 180 64.5 195.5 c 128,-1,60
 56 211 56 211 53 229 c 128,-1,61
 50 247 50 247 50 267 c 0,62,63
 50 355 50 355 125 415 c 1,0,1
327 90 m 1,64,65
 369 128 369 128 369 171 c 0,66,67
 369 198 369 198 359 221.5 c 128,-1,68
 349 245 349 245 339 259.5 c 128,-1,69
 329 274 329 274 303.5 293 c 128,-1,70
 278 312 278 312 266.5 319 c 128,-1,71
 255 326 255 326 222 345 c 0,72,73
 177 371 177 371 146 396 c 1,74,75
 104 359 104 359 104 315 c 0,76,77
 104 288 104 288 114 264.5 c 128,-1,78
 124 241 124 241 134 226.5 c 128,-1,79
 144 212 144 212 169.5 193 c 128,-1,80
 195 174 195 174 206.5 167 c 128,-1,81
 218 160 218 160 251 141 c 0,82,83
 297 115 297 115 327 90 c 1,64,65
EndSplineSet
Validated: 1
EndChar

StartChar: dieresis
Encoding: 168 168 159
Width: 379
GlyphClass: 2
Flags: W
LayerCount: 2
Fore
SplineSet
50 575 m 0,0,1
 50 595 50 595 64 609 c 128,-1,2
 78 623 78 623 97 623 c 128,-1,3
 116 623 116 623 130 609 c 128,-1,4
 144 595 144 595 144 575 c 0,5,6
 144 556 144 556 130 542 c 128,-1,7
 116 528 116 528 97 528 c 128,-1,8
 78 528 78 528 64 542 c 128,-1,9
 50 556 50 556 50 575 c 0,0,1
219 575 m 0,10,11
 219 595 219 595 233 609 c 128,-1,12
 247 623 247 623 266 623 c 128,-1,13
 285 623 285 623 299 609 c 128,-1,14
 313 595 313 595 313 575 c 0,15,16
 313 556 313 556 299.5 542 c 128,-1,17
 286 528 286 528 266 528 c 128,-1,18
 246 528 246 528 232.5 542 c 128,-1,19
 219 556 219 556 219 575 c 0,10,11
EndSplineSet
Validated: 1
EndChar

StartChar: guillemotleft
Encoding: 171 171 160
Width: 543
GlyphClass: 2
Flags: W
LayerCount: 2
Fore
SplineSet
156 215 m 1,0,1
 211 154 211 154 283 45 c 1,2,3
 280 28 280 28 259 26 c 1,4,5
 160 134 160 134 74 209 c 1,6,-1
 74 221 l 1,7,8
 154 291 154 291 259 404 c 1,9,10
 280 402 280 402 283 385 c 1,11,12
 215 282 215 282 156 215 c 1,0,1
336 215 m 1,13,14
 391 154 391 154 463 45 c 1,15,16
 460 28 460 28 439 26 c 1,17,18
 340 134 340 134 254 209 c 1,19,-1
 254 221 l 1,20,21
 334 291 334 291 439 404 c 1,22,23
 460 402 460 402 463 385 c 1,24,25
 395 282 395 282 336 215 c 1,13,14
EndSplineSet
Validated: 1
EndChar

StartChar: logicalnot
Encoding: 172 172 161
Width: 599
GlyphClass: 2
Flags: W
LayerCount: 2
Fore
SplineSet
499 99 m 1,0,-1
 499 323 l 1,1,-1
 40 323 l 1,2,3
 32 348 32 348 40 367 c 1,4,-1
 553 367 l 1,5,-1
 553 99 l 1,6,7
 522 88 522 88 499 99 c 1,0,-1
EndSplineSet
Validated: 33
EndChar

StartChar: uni00AD
Encoding: 173 173 162
Width: 338
GlyphClass: 2
Flags: W
LayerCount: 2
Fore
SplineSet
271 223 m 2,0,-1
 55 223 l 2,1,2
 40 223 40 223 40 242 c 0,3,4
 40 256 40 256 48 269.5 c 128,-1,5
 56 283 56 283 65 283 c 2,6,-1
 284 283 l 2,7,8
 298 283 298 283 298 263 c 0,9,10
 298 253 298 253 289 238 c 128,-1,11
 280 223 280 223 271 223 c 2,0,-1
EndSplineSet
Validated: 1
EndChar

StartChar: macron
Encoding: 175 175 163
Width: 397
GlyphClass: 2
Flags: W
LayerCount: 2
Fore
SplineSet
315 529 m 2,0,-1
 71 529 l 2,1,2
 59 529 59 529 59 544 c 0,3,4
 59 554 59 554 65.5 563.5 c 128,-1,5
 72 573 72 573 81 573 c 2,6,-1
 325 573 l 2,7,8
 339 573 339 573 339 559 c 0,9,10
 339 549 339 549 331.5 539 c 128,-1,11
 324 529 324 529 315 529 c 2,0,-1
EndSplineSet
Validated: 1
EndChar

StartChar: degree
Encoding: 176 176 164
Width: 267
GlyphClass: 2
Flags: W
LayerCount: 2
Fore
SplineSet
34 509 m 0,0,1
 34 551 34 551 63.5 580.5 c 128,-1,2
 93 610 93 610 134 610 c 128,-1,3
 175 610 175 610 204 580.5 c 128,-1,4
 233 551 233 551 233 509 c 0,5,6
 233 468 233 468 204 438.5 c 128,-1,7
 175 409 175 409 134 409 c 128,-1,8
 93 409 93 409 63.5 438.5 c 128,-1,9
 34 468 34 468 34 509 c 0,0,1
199 508 m 0,10,11
 199 536 199 536 182 558 c 128,-1,12
 165 580 165 580 134 580 c 128,-1,13
 103 580 103 580 85.5 558.5 c 128,-1,14
 68 537 68 537 68 508 c 0,15,16
 68 480 68 480 86 459.5 c 128,-1,17
 104 439 104 439 134 439 c 0,18,19
 163 439 163 439 181 460 c 128,-1,20
 199 481 199 481 199 508 c 0,10,11
EndSplineSet
Validated: 1
EndChar

StartChar: plusminus
Encoding: 177 177 165
Width: 550
GlyphClass: 2
Flags: W
LayerCount: 2
Fore
SplineSet
250 520 m 2,0,1
 250 529 250 529 262.5 538 c 128,-1,2
 275 547 275 547 283 547 c 0,3,4
 300 547 300 547 300 533 c 2,5,-1
 300 361 l 1,6,-1
 476 361 l 2,7,8
 490 361 490 361 490 344 c 0,9,10
 490 336 490 336 481 323.5 c 128,-1,11
 472 311 472 311 463 311 c 2,12,-1
 300 311 l 1,13,-1
 300 151 l 2,14,15
 300 142 300 142 288.5 134 c 128,-1,16
 277 126 277 126 266 126 c 0,17,18
 250 126 250 126 250 141 c 2,19,-1
 250 311 l 1,20,-1
 75 311 l 2,21,22
 60 311 60 311 60 327 c 0,23,24
 60 338 60 338 68 349.5 c 128,-1,25
 76 361 76 361 85 361 c 2,26,-1
 250 361 l 1,27,-1
 250 520 l 2,0,1
463 37 m 2,28,-1
 75 37 l 2,29,30
 60 37 60 37 60 53 c 0,31,32
 60 64 60 64 68 75.5 c 128,-1,33
 76 87 76 87 85 87 c 2,34,-1
 476 87 l 2,35,36
 490 87 490 87 490 70 c 0,37,38
 490 62 490 62 481 49.5 c 128,-1,39
 472 37 472 37 463 37 c 2,28,-1
EndSplineSet
Validated: 1
EndChar

StartChar: acute
Encoding: 180 180 166
Width: 341
GlyphClass: 2
Flags: W
LayerCount: 2
Fore
SplineSet
175 703 m 2,0,1
 181 705 181 705 189 705 c 0,2,3
 220 705 220 705 244 682 c 1,4,-1
 247 671 l 1,5,-1
 132 562 l 2,6,7
 113 543 113 543 102 543 c 0,8,9
 97 543 97 543 92.5 547 c 128,-1,10
 88 551 88 551 88 556 c 0,11,12
 88 566 88 566 99 584 c 2,13,-1
 175 703 l 2,0,1
EndSplineSet
Validated: 1
EndChar

StartChar: periodcentered
Encoding: 183 183 167
Width: 250
GlyphClass: 2
Flags: W
LayerCount: 2
Fore
SplineSet
125 199 m 128,-1,1
 104 199 104 199 87.5 215.5 c 128,-1,2
 71 232 71 232 71 253 c 128,-1,3
 71 274 71 274 87.5 290.5 c 128,-1,4
 104 307 104 307 125 307 c 128,-1,5
 146 307 146 307 162.5 290.5 c 128,-1,6
 179 274 179 274 179 253 c 128,-1,7
 179 232 179 232 162.5 215.5 c 128,-1,0
 146 199 146 199 125 199 c 128,-1,1
EndSplineSet
Validated: 1
EndChar

StartChar: guillemotright
Encoding: 187 187 168
Width: 543
GlyphClass: 2
Flags: W
LayerCount: 2
Fore
SplineSet
207 215 m 1,0,1
 143 290 143 290 80 385 c 1,2,3
 85 402 85 402 104 404 c 1,4,5
 210 291 210 291 289 221 c 1,6,-1
 289 209 l 1,7,8
 203 132 203 132 104 26 c 1,9,10
 85 28 85 28 80 45 c 1,11,12
 147 147 147 147 207 215 c 1,0,1
387 215 m 1,13,14
 323 290 323 290 260 385 c 1,15,16
 265 402 265 402 284 404 c 1,17,18
 390 291 390 291 469 221 c 1,19,-1
 469 209 l 1,20,21
 383 132 383 132 284 26 c 1,22,23
 265 28 265 28 260 45 c 1,24,25
 327 147 327 147 387 215 c 1,13,14
EndSplineSet
Validated: 1
EndChar

StartChar: questiondown
Encoding: 191 191 169
Width: 435
GlyphClass: 2
Flags: W
LayerCount: 2
Fore
SplineSet
321 -143 m 0,0,1
 321 -124 321 -124 315 -117 c 128,-1,2
 309 -110 309 -110 309 -93 c 0,3,4
 309 -77 309 -77 321 -67.5 c 128,-1,5
 333 -58 333 -58 348 -58 c 0,6,7
 364 -58 364 -58 376.5 -68 c 128,-1,8
 389 -78 389 -78 389 -101 c 0,9,10
 389 -150 389 -150 338 -191 c 0,11,12
 293 -230 293 -230 214 -230 c 0,13,14
 138 -230 138 -230 92 -188.5 c 128,-1,15
 46 -147 46 -147 46 -79 c 0,16,17
 46 -51 46 -51 55 -27 c 128,-1,18
 64 -3 64 -3 84 17.5 c 128,-1,19
 104 38 104 38 117 49 c 128,-1,20
 130 60 130 60 155 78 c 0,21,22
 197 109 197 109 207 128 c 0,23,24
 221 155 221 155 221 201 c 2,25,-1
 221 245 l 2,26,27
 221 255 221 255 238 255 c 0,28,29
 254 255 254 255 254 245 c 2,30,-1
 254 199 l 2,31,32
 254 102 254 102 184 38 c 0,33,34
 154 10 154 10 141.5 -15 c 128,-1,35
 129 -40 129 -40 129 -75 c 0,36,37
 129 -125 129 -125 155.5 -161 c 128,-1,38
 182 -197 182 -197 224 -197 c 128,-1,39
 266 -197 266 -197 293.5 -181.5 c 128,-1,40
 321 -166 321 -166 321 -143 c 0,0,1
185 386 m 128,-1,42
 185 408 185 408 200.5 423.5 c 128,-1,43
 216 439 216 439 238 439 c 128,-1,44
 260 439 260 439 275.5 423.5 c 128,-1,45
 291 408 291 408 291 386 c 128,-1,46
 291 364 291 364 275.5 348.5 c 128,-1,47
 260 333 260 333 238 333 c 128,-1,48
 216 333 216 333 200.5 348.5 c 128,-1,41
 185 364 185 364 185 386 c 128,-1,42
EndSplineSet
Validated: 1
EndChar

StartChar: multiply
Encoding: 215 215 170
Width: 550
GlyphClass: 2
Flags: W
LayerCount: 2
Fore
SplineSet
308 252 m 1,0,-1
 431 130 l 1,1,-1
 396 95 l 1,2,-1
 274 217 l 1,3,-1
 152 95 l 1,4,-1
 116 130 l 1,5,-1
 239 252 l 1,6,-1
 116 375 l 1,7,-1
 152 410 l 1,8,-1
 274 287 l 1,9,-1
 396 410 l 1,10,-1
 431 375 l 1,11,-1
 308 252 l 1,0,-1
EndSplineSet
Validated: 1
EndChar

StartChar: divide
Encoding: 247 247 171
Width: 550
GlyphClass: 2
Flags: W
LayerCount: 2
Fore
SplineSet
463 226 m 2,0,-1
 75 226 l 2,1,2
 60 226 60 226 60 242 c 0,3,4
 60 253 60 253 68 264.5 c 128,-1,5
 76 276 76 276 85 276 c 2,6,-1
 476 276 l 2,7,8
 490 276 490 276 490 259 c 0,9,10
 490 251 490 251 481 238.5 c 128,-1,11
 472 226 472 226 463 226 c 2,0,-1
226 387 m 128,-1,13
 226 405 226 405 239 418 c 128,-1,14
 252 431 252 431 270 431 c 0,15,16
 289 431 289 431 302 418 c 128,-1,17
 315 405 315 405 315 387 c 128,-1,18
 315 369 315 369 302 356 c 128,-1,19
 289 343 289 343 270 343 c 0,20,21
 252 343 252 343 239 356 c 128,-1,12
 226 369 226 369 226 387 c 128,-1,13
226 119 m 128,-1,23
 226 137 226 137 239 150 c 128,-1,24
 252 163 252 163 270 163 c 0,25,26
 289 163 289 163 302 150 c 128,-1,27
 315 137 315 137 315 119 c 128,-1,28
 315 101 315 101 302 88 c 128,-1,29
 289 75 289 75 270 75 c 0,30,31
 252 75 252 75 239 88 c 128,-1,22
 226 101 226 101 226 119 c 128,-1,23
EndSplineSet
Validated: 1
EndChar
